<?xml version="1.0" encoding="utf-8"?>
<!-- Generator: Adobe Illustrator 25.0.1, SVG Export Plug-In . SVG Version: 6.00 Build 0)  -->
<svg version="1.1" id="Capa_1" xmlns="http://www.w3.org/2000/svg" xmlns:xlink="http://www.w3.org/1999/xlink" x="0px" y="0px"
	 viewBox="0 0 900 900" style="enable-background:new 0 0 900 900;" xml:space="preserve">
<style type="text/css">
	.st0{fill:#FEFEFE;}
	.st1{fill:#356735;}
	.st2{fill:#FD6734;}
	.st3{fill:#033599;}
	.st4{fill:#FE9935;}
	.st5{fill:#8B302F;}
	.st6{fill:#040404;}
	.st7{fill:#030303;}
	.st8{fill:#050505;}
	.st9{fill:#090909;}
</style>
<g>
	<g>
		<path class="st0" d="M0,0c300,0,600,0,900,0c0,300,0,600,0,900c-300,0-600,0-900,0C0,600,0,300,0,0z M613.5,671.5
			c0.4,0.3,0.8,0.7,1.2,1c-1.1,13.2,6.8,20.6,19.9,17.5c10.2-2.3,20-6.2,29.9-9.3c10.8-3.5,21.5-3.7,32.2,0.2
			c13.7,5.1,19.9,18.7,14.8,32.4c-3.9,10.6-11.5,18.1-20.5,24.5c-1.5,1.1-2.9,2.2-4.4,3.4c0.3,0.5,0.5,1,0.8,1.4
			c1.7-0.5,3.9-0.5,5.2-1.6c7.7-6.2,16.1-12,22.7-19.2c14.1-15.5,13.2-35-0.4-50.9c-18.9-22.1-52.3-27.7-78.7-16.5
			c-8.2,3.5-15.7,8.7-24,11.8c-23.3,8.8-46,9.5-67.3-6.2c-7-5.2-14.7-9.2-23.5-10.4c-9-1.2-14.9,5.6-12.7,14.5
			c1.7,6.7,6.3,10.9,12.1,13.8c11.5,5.8,23.8,8.3,36.6,7.9C577.2,685.1,595.8,679.9,613.5,671.5z M662.7,593.3
			c0.6-0.2,1.3-0.4,1.9-0.6c-1.1-4.4-1.5-9.2-3.3-13.3c-11.7-26.5-22.5-53.4-35.7-79c-20.3-39.4-48.9-72-87-95.4
			c-9.5-5.8-19.9-11-30.5-14.1c-17.1-5.1-29.1,6.5-26.1,24c0.6,3.6,2.2,7.3,4.2,10.5c8.2,13.4,20.5,22,34.3,28.7
			c23.7,11.5,46.9,23.6,68,39.5c30.8,23.2,52.9,53.1,68.5,88.1C658.6,585.6,660.7,589.4,662.7,593.3z M218.8,591.3
			c0.3,0.7,0.6,1.5,0.9,2.2c6.8-2.3,13.8-4.1,20.4-6.9c32.3-13.6,64.7-27,94-46.7c31.4-21.2,57.3-47.6,76-80.6
			c4.5-8,8.1-16.8,10.4-25.7c3-11.4-3-21.6-13-24c-7-1.7-13.9-1.2-20.2,2.8c-8.1,5.2-15.7,11-20.5,19.4
			c-8.9,15.7-17.1,31.9-25.7,47.9c-15.2,28.3-34,53.6-58.9,74.1c-17.5,14.4-37.5,24.5-57.7,34.3C222.6,589,220.7,590.2,218.8,591.3z
			 M132.2,289.6c-0.2,0.5-0.4,1.1-0.6,1.6c2.3,1.9,4.3,4.1,6.9,5.6c15.3,8.6,30.7,17.2,46.2,25.5c23.5,12.6,47.9,22.9,73.7,29.7
			c28.2,7.5,56.9,10,85.9,6.7c11.6-1.3,23.2-4.3,34.3-7.9c8.2-2.7,14.4-8.9,14.3-18.5c-0.1-9.8-5-17-14.3-20.9
			c-10.1-4.3-20.8-6.3-31.6-4.6c-17.4,2.7-34.6,6.2-51.9,9.4c-30.7,5.6-61.3,6.3-92,0.3c-22.2-4.4-42.6-13.7-62.8-23.5
			C137.6,291.7,134.9,290.7,132.2,289.6z M469.3,5.3c-0.5-0.3-1-0.6-1.4-0.9c-2.5,3.1-5.6,5.9-7.5,9.4c-15,27.4-30.6,54.5-42.2,83.6
			c-16.4,41.1-23.1,83.4-17,127.3c1.4,10.2,4.7,20.3,8.6,29.9c3.1,7.7,10,12.1,18.8,11.4c7.7-0.6,14-4.4,17.6-11.5
			c7.5-14.5,8.1-30.1,4.9-45.6c-5.6-27.3-12.1-54.3-12.7-82.4c-0.3-15.7,0.7-31.1,3.3-46.5c3.9-22.7,13.1-43.5,22.9-64.1
			C466.3,12.5,467.8,8.9,469.3,5.3z M742.9,234.2c0-0.4-0.1-0.9-0.1-1.3c-0.7-0.2-1.5-0.7-2.2-0.7c-8.4-0.5-16.8-1.4-25.2-1.4
			c-29.6,0.1-59.1,0.3-88.4,5.1c-38.7,6.3-74.3,20.1-106.1,43c-10,7.2-19.9,14.7-26,25.8c-7.7,13.9,1.8,30,17.7,30.2
			c12.9,0.2,24.7-4.3,34.7-11.9c12.5-9.4,24.2-19.8,36.2-29.9c41.3-34.7,87.9-56.3,142.8-57.3C731.8,235.7,737.3,234.8,742.9,234.2z
			 M649.4,747.5c-3.7,7.5-6.7,14.1-10.3,20.4c-5.6,9.6-11.7,18.9-17.5,28.5c-3.7,6.1-4.7,12.7-3.7,19.7c0.6,4.3,1.9,8.2,6.3,10
			c4.5,1.8,8.6,0.1,11.3-3.3c4.9-6.2,10.1-12.5,13.4-19.6c7.2-15.3,12.3-31.4,14-48.3c0.5,0,0.8-0.1,1.1,0c25.4,14,40,36.2,48,63.4
			c2.8,9.6,4.8,19.4,8.2,28.7c1.8,4.9,5.3,9.8,9.2,13.2c6.1,5.3,15.4,2.4,18.4-5.2c0.9-2.3,1.3-4.8,1.3-7.3
			c0.2-18.5-6.2-34.8-17.2-49.5c-17.2-23.1-38.7-40.7-65.5-51.6c-1.4-0.6-3.3-2-3.5-3.3c-2.1-11.9-3.7-23.9-5.8-35.8
			c-0.9-4.9-2.9-9.5-8.1-13.6c7,16.6,4.6,31.8,1,47.6c-10.2-3.3-20-3.1-30-1.4c4.6,1.3,9.3,2,13.9,3.1
			C638.8,744.2,643.3,745.7,649.4,747.5z M823.2,815.2c-5.2,1.3-9.5,3.1-13.9,3.2c-14.6,0.3-31.7-11.4-36.4-25.3
			c-2.9-8.6-5.5-17.5-6.7-26.4c-3.5-25.8,2.2-49.4,20.5-68.5c5.8-6,13.6-10,20.2-15.2c5.2-4.1,10.3-8.4,14.8-13.2
			c3.6-4,4-9.2,1.1-13.9c-3.1-5-8.6-7.3-13.8-6.3c-7.4,1.5-14.9,4-21.3,7.8c-16.9,10.2-28.3,25.4-35.9,43.5
			c-8.5,20.4-8.9,41.4-5.6,62.9c2.5,16,8.6,30,19.8,41.6c8.8,9.2,19.3,15.9,32,18.2C807.5,825.2,816.3,823.7,823.2,815.2z
			 M422.3,851.9c-0.3-2-0.2-2.4-0.4-2.6c-0.9-1.2-1.9-2.3-2.9-3.4c-12.4-13.9-22.4-29.3-29-46.8c-10.2-27.4-7.7-55-0.3-82.3
			c3.6-13.1,8.5-25.8,12.7-38.8c1.8-5.7,1.8-11.5-0.8-17c-3.4-7.2-11.9-9.5-17.9-4.3c-4.1,3.5-7.8,7.8-10.5,12.4
			c-7.8,13.4-10.2,28.3-10.7,43.5c-0.6,19.7,2.7,38.9,7,57.9c3.9,17.5,11.8,33.3,21.7,47.8c7.3,10.7,16.9,20,25.6,29.8
			C418,849.5,419.9,850.3,422.3,851.9z M282.2,653.7c-0.4,0.3-0.8,0.5-1.2,0.8c0.3,0.9,0.4,1.8,0.8,2.6c5.8,11.7,8.9,24.2,11.4,36.9
			c5.8,29.5-1.5,56.2-16.7,81.4c-3.8,6.2-7.2,12.7-10.2,19.4c-3.2,7.2-4.8,14.9-3.4,22.9c0.9,5.5,3,10.3,8.8,12.2
			c5.2,1.7,9.6-0.3,13.2-3.7c2.7-2.5,5.4-5.2,7-8.3c3.7-7.2,7.6-14.5,9.8-22.3c8.6-30.3,10.4-61.2,2.4-91.8
			c-3.8-14.6-10.7-28.5-16.5-42.6C286.7,658.4,284.1,656.2,282.2,653.7z M178.8,750.5c0,3.2,0,6.7,0,10.1c0.1,11-0.2,22,4.8,32.2
			c2.3,4.7,6.6,6,11.1,6.2c4.6,0.2,7.4-3,8.5-7.1c0.8-2.9,1.4-6.2,1-9.2c-1.3-9.2-3.1-18.3-4.8-27.8c2,0.1,4.3,0.3,6.6,0.3
			c5.8,0,11.7,0.5,17.4-0.3c7-1,14.1-2.7,18.8-9c3.9-5.3,2.9-11.3-2.3-15.1c-7.1-5.2-14.5-3.9-21.9-1.3c-7.6,2.7-15,5.9-22.9,9
			c-4.6-19.6-2.9-38.8-2.8-57.9c-0.6,0-1.3-0.1-1.9-0.1c-3.7,20.2-7.4,40.3-11.1,60.9c-6.2-0.5-12.3-0.9-18.4-1.4
			c-0.2,0.7-0.4,1.3-0.6,2C166.4,744.8,172.6,747.6,178.8,750.5z M134.9,684.3c-0.5-0.1-1.1-0.3-1.6-0.4c-0.4,0.6-1,1.2-1.3,1.9
			c-5.6,13.5-13,25.8-22.3,37c-14.5,17.3-32.6,30.4-50.4,43.8c-6.6,5-12.5,10.4-15.6,18.4c-3.3,8.1,2.8,19.6,13.4,16.1
			c4-1.3,8.2-3.2,11.2-6c7.4-6.9,14.7-14,21.2-21.8c20-23.9,34.3-50.9,43.7-80.6C134.1,690,134.3,687.1,134.9,684.3z M570.2,690.9
			c-0.3,0.1-0.6,0.3-0.9,0.4c0.1,0.7,0.1,1.5,0.2,2.2c5.5,29.2-0.2,56-16.8,80.6c-2.9,4.3-5.9,8.6-7.9,13.2
			c-2.7,6-5.1,12.3-6.5,18.7c-1.2,5.6,0.7,11,5.8,14.4c5,3.3,10.7,5.1,15.8,1.2c3.4-2.6,6.1-6.5,8-10.4
			c7.1-15.2,10.2-31.5,11.8-48.1c2.2-23.3,0.4-46.1-7-68.4C572.2,693.3,571,692.1,570.2,690.9z M829,683c2.2,2.9,3.5,4.7,4.9,6.5
			c9.1,12,13.3,25.4,11,40.6c-1.9,12.3-5.3,23.9-14,33.5c-4.2,4.6-7.7,10-10.8,15.5c-3.6,6.4-1.5,14.4,4.2,18.8
			c4.9,3.8,12.3,3.2,17.7-1.5c7-6,11.7-13.7,14.1-22.5c7-26.4,2.4-51.5-9.9-75.3C842.8,692.2,838.5,685.6,829,683z M33.5,803.1
			c-0.4,0.4-0.8,0.8-1.1,1.2c3.6,3.3,6.8,7.2,10.9,9.7c13.3,8.3,27.8,13.3,43.6,14.6c14.4,1.1,28.6-0.1,42.1-5.5
			c6.4-2.5,11.6-6.4,14.2-13.2c1.7-4.6,1.6-9.3-1.9-12.6c-3.5-3.3-8.3-4.5-13-2.7c-5.4,2.1-10.6,4.8-15.9,7.1
			c-9.1,4-18.1,8.3-27.5,11.6c-12.2,4.3-24.5,4-36.3-2C43.4,808.7,38.5,805.8,33.5,803.1z M148.6,663.6c-0.3-0.3-0.7-0.7-1-1
			c-1.4,0.8-2.9,1.6-4.3,2.5c-8.6,5.8-18,7.9-28.3,7.8c-11.9-0.1-22.9-3.6-33.6-8.3c-7.6-3.3-15.1-7-22.8-10
			c-5.5-2.1-12.6,0.1-15.5,4c-2.8,3.7-3,11.1,1,15.4c3.5,3.7,8,7.3,12.8,8.7c15.7,4.8,31.8,5,47.9,2.2c14.9-2.6,29.1-7,40.5-17.6
			C146.5,666.2,147.5,664.9,148.6,663.6z M258.5,666.4c0.2-0.6,0.4-1.2,0.6-1.9c-3.5-1.5-6.8-3.5-10.5-4.5
			c-19.8-5.3-39.9-7-60.3-5.8c-8.9,0.5-17.8,2.6-26.4,4.9c-7.8,2.1-11.4,9.1-9.1,15.6c1.9,5.3,7.2,8.4,14.4,6.8
			c9.8-2.3,19.5-5.3,29.1-8.5c16.3-5.6,33-8.6,50.2-7.8C250.6,665.4,254.6,666,258.5,666.4z M368.7,793.1c0.4-0.1,0.8-0.2,1.2-0.4
			c0.1-0.5,0.3-1,0.2-1.4c-3.8-13.6-7.5-27.2-11.6-40.7c-4.2-14.2-8.8-28.3-17.8-40.3c-2.9-3.9-6.9-7.3-11.1-9.6
			c-5.7-3.1-11.2-1-13.3,4.4c-2.8,7.1-2.3,14.4,2.3,20.4c4.8,6.3,10.3,12.3,16.3,17.5c9.5,8.2,16.7,17.8,22.2,29
			C360.7,779.1,364.8,786,368.7,793.1z M248.3,812.2c-0.2-0.4-0.3-0.7-0.5-1.1c-5.7,1-11.3,2.3-17,2.8c-16.5,1.4-32.3-2.7-47.9-7.4
			c-5.3-1.6-11-2.3-16.5-2.7c-4.9-0.3-9.6,3.4-10.4,7c-1,4.6,1.6,10.4,6,12.7c2.2,1.1,4.6,2.2,7,2.5c7.4,1,14.8,1.6,22.2,2.3
			c16.8,1.5,32.6-2.2,47.6-9.3C242.2,817.3,245.1,814.4,248.3,812.2z M507.2,756.3c-0.1-0.6-0.2-1.1-0.3-1.7
			c-21.7,7.8-41.6,2.5-61-7.4c-2.7-1.4-5.9-2.3-9-2.7c-5.2-0.8-10.3,1.7-10.6,5.3c-0.3,4.3,2,7.9,6.1,9.3c6.8,2.4,13.8,5,20.9,6
			c14.2,2.1,28.1-0.6,41.8-4.2C499.2,759.8,503.2,757.8,507.2,756.3z"/>
		<path class="st1" d="M662.7,593.3c-2-3.9-4.1-7.7-5.9-11.7c-15.6-35-37.6-64.9-68.5-88.1c-21.1-15.8-44.3-28-68-39.5
			c-13.8-6.7-26.1-15.4-34.3-28.7c-2-3.2-3.6-6.9-4.2-10.5c-2.9-17.5,9.1-29,26.1-24c10.7,3.2,21,8.3,30.5,14.1
			c38.1,23.4,66.7,56,87,95.4c13.2,25.7,24.1,52.6,35.7,79c1.8,4.1,2.2,8.8,3.3,13.3C663.9,592.9,663.3,593.1,662.7,593.3z"/>
		<path class="st2" d="M218.8,591.3c1.9-1.1,3.8-2.2,5.8-3.2c20.2-9.8,40.2-19.9,57.7-34.3c24.9-20.5,43.7-45.9,58.9-74.1
			c8.6-15.9,16.8-32.1,25.7-47.9c4.7-8.4,12.4-14.3,20.5-19.4c6.3-4,13.2-4.5,20.2-2.8c10,2.4,16,12.7,13,24
			c-2.4,8.9-5.9,17.7-10.4,25.7c-18.7,33-44.6,59.4-76,80.6c-29.3,19.7-61.7,33.1-94,46.7c-6.6,2.8-13.6,4.6-20.4,6.9
			C219.3,592.7,219.1,592,218.8,591.3z"/>
		<path class="st3" d="M132.2,289.6c2.7,1.1,5.5,2.1,8.1,3.4c20.2,9.8,40.6,19.1,62.8,23.5c30.7,6,61.4,5.4,92-0.3
			c17.3-3.2,34.6-6.7,51.9-9.4c10.8-1.7,21.5,0.3,31.6,4.6c9.3,3.9,14.2,11.1,14.3,20.9c0.1,9.5-6.1,15.8-14.3,18.5
			c-11.1,3.6-22.7,6.6-34.3,7.9c-29,3.3-57.7,0.7-85.9-6.7c-25.8-6.8-50.2-17.2-73.7-29.7c-15.5-8.3-30.9-16.9-46.2-25.5
			c-2.5-1.4-4.6-3.7-6.9-5.6C131.8,290.7,132,290.1,132.2,289.6z"/>
		<path class="st4" d="M469.3,5.3c-1.6,3.6-3,7.1-4.7,10.7c-9.8,20.6-19.1,41.4-22.9,64.1c-2.6,15.4-3.6,30.8-3.3,46.5
			c0.6,28.1,7.1,55.2,12.7,82.4c3.2,15.5,2.6,31.1-4.9,45.6c-3.6,7-9.9,10.8-17.6,11.5c-8.8,0.7-15.7-3.7-18.8-11.4
			c-3.9-9.6-7.2-19.7-8.6-29.9c-6-43.9,0.6-86.2,17-127.3c11.6-29.1,27.2-56.2,42.2-83.6c1.9-3.5,5-6.3,7.5-9.4
			C468.4,4.7,468.8,5,469.3,5.3z"/>
		<path class="st5" d="M742.9,234.2c-5.6,0.5-11.1,1.4-16.7,1.6c-54.9,1.1-101.4,22.6-142.8,57.3c-12,10.1-23.7,20.4-36.2,29.9
			c-10.1,7.6-21.8,12.1-34.7,11.9c-15.9-0.2-25.4-16.2-17.7-30.2c6.1-11.1,16.1-18.6,26-25.8c31.9-22.9,67.4-36.6,106.1-43
			c29.3-4.8,58.9-5,88.4-5.1c8.4,0,16.8,0.8,25.2,1.4c0.8,0,1.5,0.5,2.2,0.7C742.8,233.4,742.9,233.8,742.9,234.2z"/>
		<path class="st6" d="M613.5,671.5c-17.8,8.4-36.4,13.6-56.1,14.3c-12.8,0.5-25.1-2.1-36.6-7.9c-5.8-2.9-10.4-7.1-12.1-13.8
			c-2.2-8.8,3.8-15.7,12.7-14.5c8.8,1.2,16.5,5.2,23.5,10.4c21.2,15.7,44,15.1,67.3,6.2c8.3-3.2,15.8-8.4,24-11.8
			c26.3-11.2,59.7-5.6,78.7,16.5c13.6,15.9,14.6,35.5,0.4,50.9c-6.7,7.3-15,13-22.7,19.2c-1.3,1.1-3.4,1.1-5.2,1.6
			c-0.3-0.5-0.5-1-0.8-1.4c1.5-1.1,2.9-2.3,4.4-3.4c9-6.4,16.6-13.8,20.5-24.5c5.1-13.7-1.1-27.3-14.8-32.4
			c-10.7-4-21.5-3.7-32.2-0.2c-10,3.2-19.8,7-29.9,9.3c-13.1,3-21-4.4-19.9-17.5c0-0.4,0-0.9,0.1-1.3
			C614.3,671.3,613.9,671.4,613.5,671.5z"/>
		<path class="st6" d="M649.4,747.5c-6.1-1.7-10.6-3.2-15.3-4.3c-4.6-1.1-9.3-1.8-13.9-3.1c9.9-1.7,19.8-1.9,30,1.4
			c3.5-15.7,6-31-1-47.6c5.2,4.1,7.2,8.7,8.1,13.6c2.1,11.9,3.7,23.9,5.8,35.8c0.2,1.3,2.1,2.7,3.5,3.3
			c26.8,10.9,48.3,28.5,65.5,51.6c10.9,14.7,17.3,31,17.2,49.5c0,2.4-0.4,5-1.3,7.3c-3.1,7.6-12.3,10.5-18.4,5.2
			c-4-3.5-7.4-8.3-9.2-13.2c-3.4-9.3-5.4-19.2-8.2-28.7c-8-27.2-22.7-49.4-48-63.4c-0.2-0.1-0.6,0-1.1,0c-1.7,16.9-6.8,33-14,48.3
			c-3.3,7.1-8.5,13.4-13.4,19.6c-2.6,3.4-6.8,5-11.3,3.3c-4.4-1.7-5.8-5.6-6.3-10c-0.9-7,0.1-13.7,3.7-19.7
			c5.8-9.5,11.9-18.8,17.5-28.5C642.8,761.6,645.7,754.9,649.4,747.5z"/>
		<path class="st7" d="M823.2,815.2c-7,8.5-15.8,10-25.2,8.3c-12.7-2.3-23.2-9-32-18.2c-11.2-11.6-17.3-25.6-19.8-41.6
			c-3.3-21.5-3-42.5,5.6-62.9c7.6-18.1,19-33.3,35.9-43.5c6.4-3.8,14-6.3,21.3-7.8c5.1-1,10.7,1.3,13.8,6.3c2.9,4.7,2.5,10-1.1,13.9
			c-4.5,4.8-9.6,9.1-14.8,13.2c-6.6,5.3-14.5,9.2-20.2,15.2c-18.4,19.2-24,42.8-20.5,68.5c1.2,8.9,3.8,17.8,6.7,26.4
			c4.7,13.9,21.8,25.7,36.4,25.3C813.7,818.4,818,816.5,823.2,815.2z"/>
		<path class="st6" d="M422.3,851.9c-2.5-1.6-4.3-2.4-5.5-3.7c-8.7-9.8-18.3-19-25.6-29.8c-9.9-14.5-17.8-30.4-21.7-47.8
			c-4.3-19.1-7.6-38.3-7-57.9c0.5-15.3,2.9-30.2,10.7-43.5c2.7-4.6,6.5-8.9,10.5-12.4c5.9-5.2,14.5-2.9,17.9,4.3
			c2.6,5.5,2.7,11.3,0.8,17c-4.2,13-9.2,25.7-12.7,38.8c-7.4,27.4-10,54.9,0.3,82.3c6.6,17.5,16.6,32.9,29,46.8c1,1.1,2,2.2,2.9,3.4
			C422.1,849.6,422,850,422.3,851.9z"/>
		<path class="st6" d="M282.2,653.7c1.9,2.5,4.5,4.7,5.6,7.4c5.8,14.1,12.7,27.9,16.5,42.6c8,30.6,6.2,61.5-2.4,91.8
			c-2.2,7.7-6.1,15-9.8,22.3c-1.6,3.2-4.4,5.9-7,8.3c-3.7,3.4-8.1,5.4-13.2,3.7c-5.8-1.9-7.9-6.7-8.8-12.2c-1.4-8,0.2-15.7,3.4-22.9
			c3-6.7,6.4-13.1,10.2-19.4c15.2-25.2,22.5-51.8,16.7-81.4c-2.5-12.8-5.6-25.3-11.4-36.9c-0.4-0.8-0.5-1.7-0.8-2.6
			C281.4,654.3,281.8,654,282.2,653.7z"/>
		<path class="st6" d="M178.8,750.5c-6.2-2.9-12.4-5.7-18.5-8.5c0.2-0.7,0.4-1.3,0.6-2c6.1,0.5,12.2,0.9,18.4,1.4
			c3.7-20.5,7.4-40.7,11.1-60.9c0.6,0,1.3,0.1,1.9,0.1c-0.1,19.1-1.8,38.3,2.8,57.9c7.9-3.1,15.3-6.3,22.9-9
			c7.4-2.6,14.8-3.9,21.9,1.3c5.2,3.8,6.2,9.9,2.3,15.1c-4.7,6.3-11.8,8-18.8,9c-5.7,0.8-11.6,0.3-17.4,0.3c-2.3,0-4.6-0.2-6.6-0.3
			c1.7,9.5,3.5,18.6,4.8,27.8c0.4,3-0.2,6.2-1,9.2c-1.1,4.1-3.9,7.3-8.5,7.1c-4.5-0.2-8.8-1.5-11.1-6.2c-5-10.3-4.7-21.3-4.8-32.2
			C178.8,757.1,178.8,753.7,178.8,750.5z"/>
		<path class="st6" d="M134.9,684.3c-0.5,2.8-0.8,5.7-1.7,8.4c-9.4,29.7-23.8,56.7-43.7,80.6C83,781,75.7,788.2,68.2,795
			c-3,2.8-7.2,4.7-11.2,6c-10.6,3.5-16.7-8-13.4-16.1c3.2-7.9,9.1-13.4,15.6-18.4c17.8-13.5,35.9-26.5,50.4-43.8
			c9.4-11.2,16.7-23.5,22.3-37c0.3-0.7,0.9-1.3,1.3-1.9C133.8,684,134.4,684.1,134.9,684.3z"/>
		<path class="st6" d="M570.2,690.9c0.9,1.3,2.1,2.4,2.5,3.8c7.4,22.3,9.2,45.1,7,68.4c-1.6,16.6-4.7,32.9-11.8,48.1
			c-1.8,3.9-4.6,7.9-8,10.4c-5.1,3.9-10.8,2.1-15.8-1.2c-5.1-3.4-7-8.8-5.8-14.4c1.4-6.4,3.8-12.7,6.5-18.7c2.1-4.7,5.1-9,7.9-13.2
			c16.6-24.6,22.3-51.5,16.8-80.6c-0.1-0.7-0.1-1.5-0.2-2.2C569.6,691.1,569.9,691,570.2,690.9z"/>
		<path class="st6" d="M829,683c9.5,2.6,13.8,9.2,17.1,15.5c12.3,23.8,16.9,48.9,9.9,75.3c-2.3,8.9-7,16.5-14.1,22.5
			c-5.5,4.7-12.8,5.3-17.7,1.5c-5.7-4.4-7.8-12.4-4.2-18.8c3.1-5.5,6.6-10.8,10.8-15.5c8.7-9.6,12.1-21.2,14-33.5
			c2.3-15.2-1.9-28.5-11-40.6C832.5,687.7,831.2,685.8,829,683z"/>
		<path class="st6" d="M33.5,803.1c5,2.7,10,5.6,15,8.2c11.8,6,24.1,6.3,36.3,2c9.4-3.3,18.4-7.7,27.5-11.6c5.3-2.3,10.5-5,15.9-7.1
			c4.7-1.8,9.6-0.5,13,2.7c3.5,3.3,3.6,8,1.9,12.6c-2.5,6.8-7.8,10.6-14.2,13.2c-13.5,5.4-27.7,6.6-42.1,5.5
			c-15.7-1.2-30.2-6.3-43.6-14.6c-4.1-2.5-7.3-6.5-10.9-9.7C32.7,803.9,33.1,803.5,33.5,803.1z"/>
		<path class="st6" d="M148.6,663.6c-1.1,1.3-2,2.6-3.2,3.8c-11.4,10.6-25.7,15-40.5,17.6c-16.1,2.9-32.2,2.6-47.9-2.2
			c-4.7-1.5-9.3-5-12.8-8.7c-4-4.3-3.8-11.7-1-15.4c2.9-3.9,10-6.1,15.5-4c7.7,3,15.2,6.6,22.8,10c10.7,4.7,21.7,8.1,33.6,8.3
			c10.3,0.1,19.7-2.1,28.3-7.8c1.4-0.9,2.9-1.7,4.3-2.5C147.9,662.9,148.2,663.3,148.6,663.6z"/>
		<path class="st6" d="M258.5,666.4c-4-0.4-7.9-1-11.9-1.2c-17.3-0.8-33.9,2.2-50.2,7.8c-9.5,3.3-19.2,6.3-29.1,8.5
			c-7.2,1.7-12.5-1.4-14.4-6.8c-2.3-6.5,1.3-13.6,9.1-15.6c8.6-2.3,17.5-4.3,26.4-4.9c20.3-1.3,40.5,0.5,60.3,5.8
			c3.6,1,7,3,10.5,4.5C259,665.2,258.7,665.8,258.5,666.4z"/>
		<path class="st8" d="M368.7,793.1c-3.9-7.1-8.1-14-11.6-21.3c-5.5-11.2-12.7-20.8-22.2-29c-6-5.2-11.5-11.2-16.3-17.5
			c-4.6-6-5.1-13.3-2.3-20.4c2.1-5.4,7.7-7.5,13.3-4.4c4.2,2.3,8.3,5.8,11.1,9.6c9,12,13.5,26.2,17.8,40.3
			c4,13.5,7.7,27.1,11.6,40.7c0.1,0.4-0.1,1-0.2,1.4C369.5,792.8,369.1,792.9,368.7,793.1z"/>
		<path class="st7" d="M248.3,812.2c-3.2,2.3-6.1,5.1-9.6,6.8c-15.1,7.1-30.9,10.8-47.6,9.3c-7.4-0.6-14.8-1.3-22.2-2.3
			c-2.4-0.3-4.8-1.4-7-2.5c-4.4-2.3-7-8.1-6-12.7c0.8-3.6,5.5-7.3,10.4-7c5.6,0.3,11.2,1.1,16.5,2.7c15.7,4.8,31.4,8.8,47.9,7.4
			c5.7-0.5,11.3-1.8,17-2.8C247.9,811.4,248.1,811.8,248.3,812.2z"/>
		<path class="st9" d="M507.2,756.3c-4,1.5-8,3.5-12.1,4.6c-13.7,3.6-27.6,6.4-41.8,4.2c-7.1-1.1-14.1-3.6-20.9-6
			c-4-1.4-6.4-5-6.1-9.3c0.3-3.6,5.4-6.1,10.6-5.3c3.1,0.5,6.2,1.3,9,2.7c19.4,9.9,39.3,15.2,61,7.4
			C507,755.1,507.1,755.7,507.2,756.3z"/>
		<path class="st0" d="M613.5,671.5c0.4-0.1,0.8-0.2,1.2-0.3c0,0.4,0,0.9-0.1,1.3C614.3,672.2,613.9,671.8,613.5,671.5z"/>
	</g>
</g>
</svg>
