<?xml version="1.0" encoding="utf-8"?>
<!-- Generator: Adobe Illustrator 25.0.1, SVG Export Plug-In . SVG Version: 6.00 Build 0)  -->
<svg version="1.1" id="Capa_1" xmlns="http://www.w3.org/2000/svg" xmlns:xlink="http://www.w3.org/1999/xlink" x="0px" y="0px"
	 viewBox="0 0 1100 1069" style="enable-background:new 0 0 1100 1069;" xml:space="preserve">
<style type="text/css">
	.st0{fill:#FEFEFE;}
	.st1{fill:#356735;}
	.st2{fill:#FD6735;}
	.st3{fill:#05359A;}
	.st4{fill:#FE9A35;}
	.st5{fill:#892E2D;}
	.st6{fill:#050505;}
	.st7{fill:#040404;}
	.st8{fill:#060606;}
	.st9{fill:#852625;}
	.st10{fill:#A25A59;}
	.st11{fill:#A35C5B;}
	.st12{fill:#A35B5B;}
	.st13{fill:#A76262;}
	.st14{fill:#A45D5C;}
</style>
<g>
	<g>
		<path class="st0" d="M0-10c366.6,0,733.3,0,1100,0c0,366.6,0,733.3,0,1100c-366.7,0-733.4,0-1100,0C0,723.3,0,356.7,0-10z
			 M620.9,432.1c0.4,0.2,0.8,0.5,1.2,0.7c0.7,0.3,1.3,0.7,2,1c2.6,1,5.1,2.7,7.7,2.8c5.1,0.1,10.5,0.2,15.2-1.4
			c9-3,17.6-7.2,26.4-10.9c1-0.8,2.1-1.5,3.1-2.3c11.3-9.3,22.7-18.7,34-28c0.3-0.1,0.4-0.2,0.5-0.5c0.5-0.5,1-1,1.6-1.6
			c0.1-0.1,0.3-0.2,0.4-0.4c0.7-0.3,1.5-0.5,2.1-1c11.4-9,22.4-18.7,34.4-27c12.4-8.6,25.6-16,38.5-23.9c0.4-0.2,0.8-0.4,1.2-0.6
			l0.5,0c0,0,0.3-0.3,0.3-0.3c1.3-0.7,2.7-1.3,4-2c9.3-4,18.7-7.9,28-11.9c0.3-0.1,0.6-0.2,0.9-0.3c12-3.3,24-6.6,36.1-9.9
			c0.6-0.1,1.3-0.1,1.9-0.2c2.9-0.4,5.8-0.8,8.7-1.1c13-1.3,25.9-2.4,38.9-3.8c1.2-0.1,2.3-1.7,3.4-2.7c-0.6-1.3-1.3-2.7-1.9-4
			c-3,0-6,0.1-9,0.1c-0.7,0-1.4,0-2,0.1c-7.5,0.2-14.9,0.4-22.4,0.6c-0.4,0-0.8,0-1.2,0c-2.9,0-5.8,0-8.8,0c-0.8,0-1.5,0-2.3,0
			c-2.6,0-5.1,0-7.7,0c-2.2,0.1-4.5,0.1-6.7,0.2c-1,0-2,0-3,0c-1,0-2,0-3,0c-4.6,0.1-9.2,0.3-13.9,0.4c-1,0.1-2,0.3-3,0.4
			c-3.5,0.3-7,0.6-10.5,0.8c-2.9,0.1-5.8,0.2-8.7,0.4c-1,0.1-1.9,0.2-2.9,0.3c-1,0.2-2,0.3-3,0.5c-1.9,0.2-3.7,0.5-5.6,0.7
			c-1.5,0.1-3,0.3-4.6,0.4c-1.7,0.2-3.5,0.5-5.2,0.7c-0.6,0.1-1.2,0.2-1.8,0.3c-0.8,0.2-1.6,0.4-2.4,0.6c-0.9,0.1-1.7,0.3-2.6,0.4
			c-1.4,0.2-2.9,0.5-4.3,0.7c-0.6,0.1-1.1,0.2-1.7,0.3c-2.8,0.2-5.6,0.2-8.3,0.8c-21.1,4.9-42.1,10.4-62,19.3
			c-8.5,3.8-16.7,8.4-25.1,12.6c-3.6,2.2-7.1,4.3-10.7,6.5c-0.6,0.3-1.2,0.5-1.8,0.8c-4.4,2.7-9,5.3-13.3,8.3
			c-7.6,5.4-15.5,10.5-22.3,16.7c-6.8,6.3-12.5,13.8-18.7,20.8c-0.2,0.4-0.4,0.8-0.6,1.2c-0.3,0.1-0.5,0.3-0.5,0.6
			c-5.7,8.4-4.8,19.9,1.9,26.8C615.4,427.6,618.2,429.9,620.9,432.1z M826.3,767.6c0.8-0.3,1.5-0.6,2.3-0.9
			c-1.3-5.6-1.8-11.4-3.9-16.7c-14-34.5-27.9-69.1-45.7-102c-27.1-49.7-62.9-91.5-111.1-121.8c-12.4-7.8-25.1-15-39.6-18.6
			c-13.3-3.3-25.9,1-31.3,11.4c-4.6,9-4.6,18.5-0.2,27.5c8.5,17.4,22.6,29.5,39.5,38.3c31,16.2,62.7,30.8,90.9,51.9
			c17.9,13.4,34.4,28.4,48.8,45.5c18.1,21.4,31.3,45.8,43.1,71.1C821.3,758.2,823.9,762.9,826.3,767.6z M257.7,764.6
			c0.2,0.7,0.5,1.3,0.7,2c1.5-0.2,3.1-0.2,4.5-0.7c7.3-2.3,14.7-4.2,21.7-7.1c36.1-15.1,72.3-29.9,105.8-50.4
			c31.9-19.5,60.6-42.8,84.3-72c15.3-18.8,28.8-38.7,38.1-61.3c3.2-7.8,5.6-15.9,3.6-24.3c-4.1-17.3-21.3-25.4-38-17.8
			c-11.3,5.1-20.4,13.2-28,22.9c-10.8,13.7-17.9,29.5-25.4,45.2c-14.4,30.2-31.5,58.7-53.6,83.9c-12.7,14.6-26.8,27.7-42.4,39.3
			c-19.9,14.8-42.2,25.3-64.2,36.4C262.4,761.9,260.1,763.3,257.7,764.6z M147,378c-0.4,0.8-0.9,1.5-1.3,2.3
			c5.1,3.8,9.8,8.2,15.3,11.3c16.5,9.3,33.3,18.2,50,27.1c29,15.3,59,28.4,90.6,37.6c35.8,10.3,72.1,14,109.1,11.5
			c17.5-1.2,34.7-3.9,51.1-10.4c13.6-5.4,20.5-15.8,18.7-28.4c-1.4-9.6-6.6-17-15.5-21.4c-20.5-10.1-42-8.6-63.5-4.5
			c-17.6,3.4-35,7.8-52.7,10.6c-25.3,4.1-50.9,5.7-76.5,3.7c-19.3-1.5-38.5-3.9-56.7-10.6c-20-7.3-39.3-16.3-58.9-24.6
			C153.4,380.9,150.2,379.5,147,378z M578.5,14c-0.7-0.3-1.3-0.6-2-0.9c-3.3,4.3-7.2,8.3-9.7,13c-14.9,27.9-30,55.6-44,84
			c-14,28.5-24.3,58.4-29.3,89.8c-2.6,16.6-3.8,33.5-4.6,50.3c-0.6,12.3,0.3,24.8,1.2,37.1c0.6,7.4,1.9,14.9,3.9,22
			c2.4,8.9,4.9,18.1,9.2,26.1c6.3,11.9,18.9,15.4,28.8,11.9c9.5-3.4,16.2-9.8,19.9-19.7c8.4-22.7,5.6-45.4,0.3-68.1
			c-2.5-10.5-5.5-20.9-6.9-31.6c-2.6-19.7-4.8-39.5-6.1-59.3c-1.8-27.1,1.8-53.7,9-79.9c6.6-24,17.8-46.2,28.1-68.7
			C577.2,18.1,577.8,16,578.5,14z M846.8,921.4c0.2,0.5,0.3,1,0.5,1.5c2.1-0.5,4.7-0.5,6.2-1.7c8.9-7.1,18.9-13.5,26.1-22.1
			c15.4-18.1,16.7-36.3,3.8-53.9c-18.3-24.9-44-33.7-74.3-30c-13.8,1.7-25.8,7.9-37.9,14.2c-30.6,15.9-60.9,18.4-90.7-3.2
			c-7-5.1-16-8.1-24.5-10.5c-8.6-2.5-14.8,2.3-16,11c-0.8,5.9,1.6,11.5,6.2,15.1c5.2,4,11,7.6,17,9.9c23.4,8.9,47.1,6.1,70.5-0.5
			c10.1-2.9,19.8-7,29.6-10.6c-4,18.9,13.3,25.6,27,20.9c9-3.1,18-5.9,26.9-9.1c13.1-4.6,26.2-5.9,39.6-1.5
			c17,5.6,24.9,21.9,18.4,38.6c-3.2,8.2-7.8,15.4-14.8,20.9C855.8,914.2,851.3,917.8,846.8,921.4z M819.1,936
			c6.3,4.2,12.5,7.4,17.4,11.9c6.6,6,12.8,12.7,18.3,19.8c10.3,13.3,17.5,28.2,21.5,44.6c2.6,10.6,5.3,21.3,9,31.6
			c2,5.4,5.6,10.7,9.7,14.8c7.2,6.9,18.4,4,22.3-5.1c1.1-2.5,1.6-5.5,1.7-8.2c0.4-17.5-4.4-33.7-13.6-48.3
			c-19.9-31.4-47-54.6-81.5-68.8c-3.2-1.3-5-2.7-5.2-6.6c-0.5-7.9-1.4-15.9-2.9-23.7c-1.7-8.2-4.2-16.3-6.7-24.3
			c-0.7-2.3-3-4.1-4.6-6.1c7,18.4,3.8,36.1-0.2,54.3c-11.8-3.9-23.3-3.8-35.8-1.9c12,2.9,22.8,5.5,35.2,8.5c-4.5,9-7.9,16.7-12.1,24
			c-6.8,11.8-14.3,23.2-21.3,35c-4,6.7-4.3,14.2-3.2,21.8c0.7,4.7,2.5,8.8,7.2,10.6c4.7,1.8,9.2,0.4,12.3-3.2
			c5.1-5.9,10.6-11.7,14-18.6C810.1,978.9,816.7,958.8,819.1,936z M1004.3,1007.4c-5.6,1.3-10.8,3.5-16.1,3.5
			c-18,0.1-36.7-14.1-42.6-31.2c-4.8-13.9-8.3-27.9-7.9-42.7c0.5-18.2,3.9-35.4,13.7-51.3c8.6-14.1,21.6-22.7,34.6-31.8
			c6.3-4.4,12.6-9.5,17.2-15.6c6.9-9.1,2.9-18.7-8-22.3c-5.8-1.9-11.2-0.7-16.6,1.2c-14.1,4.9-25.9,13.4-35.8,24.5
			c-20,22.3-29.4,48.8-29.6,78.4c-0.1,10.2,1.4,20.4,3.2,30.5c5.2,30.4,21.9,51.9,50.5,63.9c7.9,3.3,16.2,3.8,24.5,1.7
			C996.7,1014.8,1001.2,1012.3,1004.3,1007.4z M504.7,1042.1c0.4-0.5,0.8-1,1.2-1.5c-3-3.5-5.9-6.9-8.9-10.4
			c-24.3-29.1-38.6-62.1-36.4-100.6c1.1-19.9,4.9-39.6,12-58.5c3.7-9.8,6.9-19.7,10.1-29.7c2-6.2,2.1-12.4-0.4-18.6
			c-3.9-9.6-14.2-12.6-21.8-5.8c-4.6,4.1-8.9,9.1-11.9,14.5c-11.5,20.6-13.5,43.3-11.8,66.1c1.2,15.4,4.3,30.7,6.9,46
			c2.3,13.5,6.9,26.3,13.4,38.4c4.2,7.7,8.3,15.6,13,23c8.2,12.9,18.1,24.3,29.9,33.9C501.5,1040.2,503.1,1041.1,504.7,1042.1z
			 M342.9,812.9c-0.6,1.5-0.9,1.9-0.8,2.1c0.2,0.6,0.4,1.2,0.7,1.8c10.4,21.1,15.4,43.6,15.7,66.9c0.4,23.7-7.5,45.4-18.7,65.9
			c-3.5,6.4-7.8,12.4-11.1,19c-5.3,10.5-9.4,21.4-7.7,33.5c0.9,6.7,3.2,12.7,10.3,15.1c6.5,2.2,11.9-0.6,16.2-5
			c3.5-3.5,6.7-7.5,9-11.8c10.2-18.9,15.5-39.2,16.8-60.5c0.8-12.9,1.4-25.9,0.7-38.7c-0.9-16.1-3.9-32-9.9-47.1
			c-4.7-12-10.6-23.6-16.1-35.3C347,816.6,344.8,815.1,342.9,812.9z M239.5,844.3c-0.4-0.1-0.9-0.1-1.3-0.2c-0.7,2-1.6,3.9-1.9,5.9
			c-3.6,19.8-7.1,39.6-10.4,59.4c-0.7,4.3-1.9,5.9-6.6,5c-5.3-1-10.8-1-16.2-1.4c-0.1,0.5-0.2,1-0.3,1.5c5.9,5.7,14.2,7.1,21.1,10.2
			c0,7.3-0.4,14.3,0.1,21.2c0.6,9.9,0.8,20,5.9,29c2.7,4.8,7.4,6.2,12.2,6.5c4.8,0.4,7.9-2.9,9.9-7.1c3-6.3,1.8-12.7,0.7-19
			c-1.4-8.3-3.5-16.4-5.3-24.7c9.5,0,18.7,0.8,27.7-0.2c8.7-0.9,17.5-3.2,23-11.3c3.7-5.5,2.5-12.2-2.7-16.3
			c-8.3-6.4-17.2-5-26.1-1.8c-8.7,3.2-17.2,6.7-26.4,10.4C237.3,888.8,239.1,866.5,239.5,844.3z M669.2,918.1
			c-0.2-0.5-0.4-0.9-0.6-1.4c-0.6,0.1-1.3,0-1.8,0.2c-19.9,6.8-40.5,9.9-61.3,7.7c-17.2-1.8-33.8-6.6-49.6-14.2
			c-9.7-4.7-19.5-9.4-29.7-12.8c-6.1-2-13.1-2.4-19.5-1.6c-11.2,1.4-15.9,12-9.7,21.5c2.5,3.8,6.4,7.5,10.5,9.4
			c18.9,9,38.8,13.3,60.1,13.5c16,0.1,31.5-1.5,47.1-4.3c16.4-2.9,32.6-6.5,47.7-13.9C664.7,921.2,666.9,919.5,669.2,918.1z
			 M711.8,863.2c-0.3,0.2-0.7,0.3-1,0.5c0.5,5.6,0.9,11.1,1.6,16.7c2.7,20.9-0.6,40.8-10.2,59.5c-4.8,9.5-10.5,18.5-15.9,27.6
			c-5.3,9.1-10.5,18.2-11.6,28.9c-0.7,6.6,0.8,12.7,6.7,16.7c5.8,4,12.6,6.1,18.5,1.5c4.2-3.3,7.8-8.3,9.8-13.3
			c17.2-43.9,19-88.6,5-133.7C714.1,866,712.7,864.7,711.8,863.2z M172.7,848.4c-0.6-0.1-1.1-0.3-1.7-0.4c-0.5,0.8-1.3,1.5-1.6,2.3
			c-8,19.3-19.2,36.4-33.6,51.5c-15.3,16-33.2,28.8-50.6,42.1c-7.9,6-15.1,12.6-18.4,22.4c-3.3,9.6,5.2,21.3,14.9,17.7
			c5-1.9,10.6-3.8,14.3-7.4c10.2-9.9,20.2-20.3,29.2-31.4c21.3-26.1,35.8-55.9,46-87.9C172.1,854.5,172.2,851.4,172.7,848.4z
			 M1013.9,853.6c-0.4,0.5-0.8,0.9-1.3,1.4c0,0.2-0.1,0.4-0.1,0.5c0.9,1.2,1.7,2.4,2.6,3.6c11.8,14.6,17.7,31,14.6,50
			c-2.3,14.2-6.2,27.4-16.3,38.4c-5,5.5-9.1,11.9-12.7,18.4c-4,7.1-1.2,16.5,5.3,21.4c5.7,4.2,14,3.5,20.1-1.8
			c8.4-7.2,13.6-16.3,16.7-26.7c5.8-19.5,3.9-38.9-0.6-58.2c-3.2-13.5-7.6-26.6-17.2-37.1C1021.8,859.8,1017.7,856.8,1013.9,853.6z
			 M55.3,986.2c-0.2,0.2-0.5,0.4-0.7,0.6c0.9,1.3,1.6,3,2.8,4c5.5,4.2,10.7,9,16.7,12.2c29.5,15.3,60.2,17.6,91.6,6.5
			c6.7-2.4,12.3-6.5,15.7-13.2c2.8-5.6,3.1-11.3-0.8-16.5c-2.7-3.6-11.6-5.1-16.8-3c-5.7,2.3-11.2,5.1-16.8,7.5
			c-10.5,4.6-20.8,9.6-31.6,13.5c-14.5,5.2-29,5-43-2.2C66.7,992.6,61,989.3,55.3,986.2z M188.6,824.5c-0.3-0.4-0.7-0.8-1-1.2
			c-1.3,0.8-2.7,1.6-4,2.3c-3.9,2.1-7.7,4.8-11.9,6.2c-20.6,7.1-40.3,3-59.5-5.4c-9.1-4-18.1-8.4-27.3-12.1
			c-6.5-2.6-14.8-0.1-18.3,4.4c-3.4,4.4-3,12.5,1,18.3c3.5,5.2,8.5,8.3,14.5,9.9c18.1,4.9,36.5,5.6,54.9,2.5
			c17.8-3,34.7-8.2,48.3-20.9C186.6,827.5,187.5,825.9,188.6,824.5z M316.1,827.9c0.2-0.6,0.5-1.2,0.7-1.8c-3-1.5-5.9-3.6-9.1-4.5
			c-26.6-7.4-53.6-9.9-81-6.6c-7.7,0.9-15.5,2.5-22.9,4.7c-7.5,2.2-12,9.6-10.7,15.9c1.7,7.5,7.3,11.2,16.3,10.2
			c4.4-0.5,8.9-1.3,13.2-2.6c13.9-4.2,27.6-9.2,41.7-12.9c14.5-3.9,29.5-5.1,44.5-2.8C311.2,827.6,313.7,827.7,316.1,827.9z
			 M443.8,974.7c0.4-0.2,0.9-0.3,1.3-0.5c0-0.7,0.2-1.5,0-2.2c-5-17.4-9.7-34.9-15-52.2c-4.7-15.1-9.9-30.1-20-42.6
			c-3.2-4-7.7-7.5-12.3-9.8c-6.4-3.2-12.5-0.6-14.9,5.5c-3.3,8.2-2.7,16.5,2.5,23.3c5.6,7.4,12,14.3,19.1,20.4
			c11,9.5,19.5,20.7,25.8,33.7C434.3,958.6,439.2,966.5,443.8,974.7z M304.5,996.6c-0.3-0.5-0.6-1.1-0.9-1.6c-1.4,0.3-2.8,0.7-4.1,1
			c-4.7,1-9.4,2.3-14.1,2.7c-20.1,1.7-39.2-3.1-58.2-9c-5.8-1.8-12.1-2.9-18-2.5c-3.9,0.3-8.6,3.1-11.1,6.3
			c-2.9,3.7-1.3,8.9,1.9,12.4c2.4,2.5,5.6,5.2,8.9,5.8c11.4,2,22.9,3.9,34.4,4.2c16.5,0.4,32.6-3.1,47.7-10.1
			C295.8,1003.4,300,999.6,304.5,996.6z"/>
		<path class="st1" d="M826.3,767.6c-2.4-4.7-5-9.4-7.3-14.2c-11.8-25.3-25-49.6-43.1-71.1c-14.4-17.1-30.9-32.1-48.8-45.5
			c-28.2-21.1-59.9-35.8-90.9-51.9c-16.8-8.8-30.9-20.9-39.5-38.3c-4.4-9-4.4-18.5,0.2-27.5c5.4-10.4,17.9-14.8,31.3-11.4
			c14.4,3.6,27.2,10.8,39.6,18.6c48.3,30.3,84.1,72.1,111.1,121.8c17.9,32.8,31.8,67.4,45.7,102c2.1,5.2,2.6,11.1,3.9,16.7
			C827.9,767,827.1,767.3,826.3,767.6z"/>
		<path class="st2" d="M257.7,764.6c2.4-1.3,4.8-2.6,7.2-3.8c22-11.1,44.3-21.7,64.2-36.4c15.6-11.5,29.7-24.7,42.4-39.3
			c22-25.3,39.1-53.8,53.6-83.9c7.5-15.6,14.6-31.4,25.4-45.2c7.6-9.7,16.7-17.8,28-22.9c16.7-7.6,33.9,0.5,38,17.8
			c2,8.4-0.4,16.5-3.6,24.3c-9.3,22.5-22.8,42.4-38.1,61.3c-23.7,29.2-52.4,52.5-84.3,72c-33.5,20.5-69.7,35.3-105.8,50.4
			c-7,2.9-14.4,4.8-21.7,7.1c-1.4,0.4-3,0.4-4.5,0.7C258.2,765.9,257.9,765.2,257.7,764.6z"/>
		<path class="st3" d="M147,378c3.2,1.4,6.4,2.9,9.7,4.3c19.6,8.3,38.9,17.3,58.9,24.6c18.2,6.6,37.4,9.1,56.7,10.6
			c25.7,2,51.2,0.4,76.5-3.7c17.7-2.9,35.1-7.3,52.7-10.6c21.5-4.1,43-5.6,63.5,4.5c8.8,4.3,14.1,11.7,15.5,21.4
			c1.8,12.6-5.1,23.1-18.7,28.4c-16.4,6.5-33.6,9.2-51.1,10.4c-37,2.5-73.3-1.2-109.1-11.5c-31.7-9.2-61.6-22.3-90.6-37.6
			c-16.8-8.8-33.5-17.8-50-27.1c-5.5-3.1-10.2-7.5-15.3-11.3C146.1,379.6,146.5,378.8,147,378z"/>
		<path class="st4" d="M578.5,14c-0.7,2-1.3,4.2-2.2,6.1c-10.3,22.5-21.6,44.7-28.1,68.7c-7.1,26.2-10.8,52.8-9,79.9
			c1.3,19.8,3.5,39.6,6.1,59.3c1.4,10.6,4.5,21.1,6.9,31.6c5.4,22.7,8.1,45.4-0.3,68.1c-3.6,9.8-10.3,16.3-19.9,19.7
			c-10,3.5-22.5,0-28.8-11.9c-4.3-8.1-6.7-17.2-9.2-26.1c-2-7.2-3.3-14.6-3.9-22c-0.9-12.4-1.8-24.8-1.2-37.1
			c0.8-16.8,1.9-33.7,4.6-50.3c5-31.4,15.3-61.4,29.3-89.8c14-28.3,29.1-56.1,44-84c2.5-4.7,6.4-8.7,9.7-13
			C577.2,13.4,577.8,13.7,578.5,14z"/>
		<path class="st5" d="M861,314.5c-0.6,0.1-1.3,0.1-1.9,0.2c-0.3-0.3-0.7-0.5-1-0.8c-5.3-1.9-11.4-0.9-13.9,2.1l0,0
			c-5.1-0.2-10.1,0-14,4c0,0,0,0,0,0c-4.8,0.5-9.9,0.3-12.9,5.3c-0.6,0.3-1.3,0.6-1.9,0.9c-4.1-2.4-6.6,0.3-9.1,2.9c0,0,0,0.1,0,0.1
			c-1.3,0.1-2.8-0.1-3.9,0.4c-12,6.4-24.3,12.5-35.9,19.6c-18.6,11.3-36.3,23.9-52,39c-0.8,0.8-0.9,2.2-1.4,3.4
			c-0.1,0.1-0.2,0.3-0.4,0.4c-0.7,0-1.3-0.1-2-0.1c0.1,0.6,0.3,1.1,0.4,1.7c-0.1,0.3-0.2,0.4-0.5,0.5c-1.9,0.5-4.1,0.6-5.5,1.7
			c-11.6,8.9-23.1,17.9-34.6,27c-0.3,0.2-0.2,0.9-0.3,1.4l-0.1-0.1c-1.3,0.7-2.7,1.3-4,2c0,0,0,0,0,0c-1,0.2-2,0.2-2.9,0.5
			c-9.4,3.2-18.7,6.6-28.8,6.5c-2.8,0-5.6,0-8.4,0c0,0,0,0,0,0c-4.3-3.3-8.7-6.7-13-10c0,0-0.1,0-0.1,0c-0.3-1.7-0.8-3.5-0.9-5.2
			c-0.2-4.9-1.8-10.5,0.1-14.4c3.5-7.1,8.5-13.8,14.1-19.4c13.8-13.8,29.8-24.7,46.9-34.1c3.6-2,6.7-4.8,10-7.3
			c0.6-0.3,1.3-0.7,1.9-1c1-0.3,2.1-0.6,3.1-0.9l0,0c1.3-0.7,2.7-1.3,4-2c0,0,0,0,0,0c3.9-1.3,7.8-2.4,11.5-4c3-1.3,5.6-3.3,8.5-5
			l0,0c2-0.1,4,0.1,5.9-0.5c9.7-2.8,19.3-5.6,28.9-8.7c2.3-0.7,4.2-2.5,6.2-3.9l0,0c8.8-1.1,17.6-2,26.4-3.2
			c12.6-1.8,25.1-4.6,37.7-5.5c20.1-1.4,40.3-1.5,60.5-2.2c1,0,2-0.1,3,0c1,0.1,2,0.4,3,0.6c0,0.4,0,0.9,0,1.3c-3,0.3-6,0.4-9,1.1
			c-4.2,0.9-8.4,2.1-12.5,3.2C861.7,313,861.3,313.7,861,314.5z"/>
		<path class="st6" d="M846.8,921.4c4.5-3.6,9-7.2,13.6-10.8c7-5.5,11.6-12.8,14.8-20.9c6.5-16.7-1.3-33-18.4-38.6
			c-13.4-4.4-26.5-3.1-39.6,1.5c-8.9,3.1-18,6-26.9,9.1c-13.6,4.7-31-2-27-20.9c-9.8,3.6-19.5,7.7-29.6,10.6
			c-23.4,6.6-47,9.4-70.5,0.5c-6.1-2.3-11.9-5.9-17-9.9c-4.6-3.5-7-9.2-6.2-15.1c1.2-8.8,7.4-13.5,16-11c8.5,2.4,17.4,5.4,24.5,10.5
			c29.8,21.6,60.1,19,90.7,3.2c12.2-6.3,24.1-12.5,37.9-14.2c30.3-3.6,56,5.1,74.3,30c12.9,17.5,11.6,35.7-3.8,53.9
			c-7.3,8.6-17.2,15-26.1,22.1c-1.5,1.2-4.1,1.2-6.2,1.7C847.1,922.4,846.9,921.9,846.8,921.4z"/>
		<path class="st6" d="M819.1,936c-2.4,22.7-9.1,42.8-18.5,61.9c-3.4,6.8-8.9,12.7-14,18.6c-3.1,3.6-7.6,4.9-12.3,3.2
			c-4.7-1.8-6.6-5.9-7.2-10.6c-1.1-7.6-0.8-15.1,3.2-21.8c7-11.7,14.4-23.2,21.3-35c4.2-7.3,7.6-15,12.1-24
			c-12.4-3-23.2-5.6-35.2-8.5c12.5-2,24-2,35.8,1.9c3.9-18.3,7.1-35.9,0.2-54.3c1.6,2,3.8,3.8,4.6,6.1c2.6,8,5.1,16.1,6.7,24.3
			c1.6,7.8,2.4,15.8,2.9,23.7c0.3,3.9,2,5.2,5.2,6.6c34.5,14.3,61.6,37.4,81.5,68.8c9.2,14.6,14.1,30.8,13.6,48.3
			c-0.1,2.8-0.6,5.7-1.7,8.2c-3.9,9.1-15.1,12-22.3,5.1c-4.2-4-7.8-9.3-9.7-14.8c-3.7-10.3-6.4-21-9-31.6
			c-4-16.4-11.2-31.3-21.5-44.6c-5.5-7.1-11.7-13.7-18.3-19.8C831.6,943.4,825.5,940.3,819.1,936z"/>
		<path class="st7" d="M1004.3,1007.4c-3.2,4.9-7.7,7.5-12.9,8.8c-8.3,2.2-16.6,1.6-24.5-1.7c-28.6-12-45.4-33.5-50.5-63.9
			c-1.7-10.1-3.2-20.3-3.2-30.5c0.2-29.7,9.6-56.1,29.6-78.4c9.9-11.1,21.7-19.6,35.8-24.5c5.4-1.9,10.8-3.1,16.6-1.2
			c10.9,3.6,15,13.2,8,22.3c-4.6,6.1-10.9,11.2-17.2,15.6c-13,9.1-26,17.7-34.6,31.8c-9.8,15.9-13.2,33.1-13.7,51.3
			c-0.4,14.8,3.1,28.9,7.9,42.7c5.9,17,24.6,31.2,42.6,31.2C993.5,1010.9,998.8,1008.7,1004.3,1007.4z"/>
		<path class="st6" d="M504.7,1042.1c-1.6-1-3.2-1.9-4.6-3.1c-11.8-9.7-21.8-21.1-29.9-33.9c-4.7-7.4-8.8-15.3-13-23
			c-6.5-12.1-11.1-24.9-13.4-38.4c-2.6-15.3-5.7-30.6-6.9-46c-1.7-22.9,0.3-45.5,11.8-66.1c3-5.4,7.3-10.4,11.9-14.5
			c7.7-6.8,18-3.8,21.8,5.8c2.5,6.2,2.4,12.4,0.4,18.6c-3.2,10-6.5,19.9-10.1,29.7c-7,18.9-10.9,38.5-12,58.5
			c-2.2,38.5,12.1,71.5,36.4,100.6c2.9,3.5,5.9,6.9,8.9,10.4C505.5,1041.1,505.1,1041.6,504.7,1042.1z"/>
		<path class="st6" d="M342.9,812.9c2,2.2,4.1,3.8,5.1,5.9c5.6,11.7,11.4,23.3,16.1,35.3c5.9,15.1,8.9,31,9.9,47.1
			c0.7,12.8,0.1,25.8-0.7,38.7c-1.3,21.3-6.6,41.7-16.8,60.5c-2.3,4.3-5.5,8.3-9,11.8c-4.3,4.4-9.7,7.3-16.2,5
			c-7.1-2.4-9.4-8.4-10.3-15.1c-1.6-12.1,2.4-23,7.7-33.5c3.3-6.5,7.5-12.5,11.1-19c11.3-20.5,19.1-42.2,18.7-65.9
			c-0.4-23.3-5.3-45.8-15.7-66.9c-0.3-0.6-0.6-1.2-0.7-1.8C342,814.7,342.3,814.4,342.9,812.9z"/>
		<path class="st8" d="M239.5,844.3c-0.3,22.2-2.2,44.5,3.1,67.2c9.2-3.6,17.7-7.2,26.4-10.4c8.9-3.2,17.7-4.6,26.1,1.8
			c5.2,4,6.4,10.8,2.7,16.3c-5.5,8.1-14.3,10.4-23,11.3c-9,1-18.2,0.2-27.7,0.2c1.8,8.4,3.9,16.5,5.3,24.7c1.1,6.3,2.3,12.8-0.7,19
			c-2.1,4.2-5.1,7.5-9.9,7.1c-4.8-0.4-9.5-1.8-12.2-6.5c-5.1-9-5.3-19.1-5.9-29c-0.4-6.9-0.1-13.9-0.1-21.2
			c-6.9-3.1-15.1-4.4-21.1-10.2c0.1-0.5,0.2-1,0.3-1.5c5.4,0.4,10.9,0.4,16.2,1.4c4.7,0.9,5.9-0.8,6.6-5
			c3.3-19.8,6.9-39.6,10.4-59.4c0.4-2,1.3-4,1.9-5.9C238.6,844.2,239,844.2,239.5,844.3z"/>
		<path class="st6" d="M669.2,918.1c-2.3,1.4-4.5,3-7,4.2c-15.1,7.3-31.3,10.9-47.7,13.9c-15.5,2.8-31.1,4.4-47.1,4.3
			c-21.3-0.1-41.1-4.5-60.1-13.5c-4.1-1.9-8-5.6-10.5-9.4c-6.2-9.5-1.5-20.1,9.7-21.5c6.4-0.8,13.4-0.4,19.5,1.6
			c10.2,3.4,20,8.1,29.7,12.8c15.8,7.5,32.4,12.4,49.6,14.2c20.9,2.2,41.4-1,61.3-7.7c0.6-0.2,1.2-0.1,1.8-0.2
			C668.8,917.2,669,917.7,669.2,918.1z"/>
		<path class="st8" d="M711.8,863.2c1,1.4,2.3,2.8,2.8,4.4c14,45.1,12.2,89.8-5,133.7c-2,5-5.6,10-9.8,13.3
			c-5.9,4.6-12.7,2.5-18.5-1.5c-5.9-4-7.4-10.1-6.7-16.7c1.2-10.7,6.4-19.8,11.6-28.9c5.4-9.2,11.1-18.2,15.9-27.6
			c9.5-18.7,12.8-38.6,10.2-59.5c-0.7-5.5-1.1-11.1-1.6-16.7C711.1,863.5,711.4,863.4,711.8,863.2z"/>
		<path class="st8" d="M172.7,848.4c-0.5,3-0.6,6.1-1.5,8.9c-10.2,32-24.7,61.8-46,87.9c-9,11.1-19,21.4-29.2,31.4
			c-3.7,3.6-9.3,5.5-14.3,7.4c-9.7,3.6-18.2-8-14.9-17.7C70,956.5,77.2,950,85.1,944c17.5-13.3,35.3-26.1,50.6-42.1
			c14.4-15.1,25.7-32.2,33.6-51.5c0.4-0.9,1.1-1.6,1.6-2.3C171.6,848.1,172.1,848.3,172.7,848.4z"/>
		<path class="st8" d="M1013.9,853.6c3.8,3.3,7.9,6.2,11.2,9.9c9.6,10.5,14,23.7,17.2,37.1c4.6,19.3,6.5,38.7,0.6,58.2
			c-3.1,10.4-8.3,19.6-16.7,26.7c-6.1,5.3-14.4,6-20.1,1.8c-6.6-4.9-9.3-14.3-5.3-21.4c3.6-6.5,7.7-12.9,12.7-18.4
			c10-11,14-24.3,16.3-38.4c3-19-2.8-35.4-14.6-50c-0.9-1.2-1.8-2.4-2.6-3.6c-0.1-0.1,0-0.3,0.1-0.5
			C1013.1,854.5,1013.5,854,1013.9,853.6z"/>
		<path class="st6" d="M55.3,986.2c5.7,3.1,11.4,6.4,17.2,9.4c14,7.2,28.5,7.4,43,2.2c10.7-3.9,21.1-8.9,31.6-13.5
			c5.6-2.5,11.1-5.2,16.8-7.5c5.2-2.1,14-0.6,16.8,3c4,5.2,3.6,10.8,0.8,16.5c-3.3,6.7-8.9,10.8-15.7,13.2
			c-31.4,11.1-62.1,8.9-91.6-6.5c-6.1-3.1-11.3-8-16.7-12.2c-1.2-0.9-1.9-2.6-2.8-4C54.9,986.6,55.1,986.4,55.3,986.2z"/>
		<path class="st8" d="M188.6,824.5c-1.1,1.4-2.1,3-3.4,4.2c-13.6,12.7-30.5,17.9-48.3,20.9c-18.5,3.1-36.8,2.4-54.9-2.5
			c-6-1.6-11-4.8-14.5-9.9c-4-5.8-4.3-13.9-1-18.3c3.5-4.5,11.8-7,18.3-4.4c9.3,3.7,18.2,8.1,27.3,12.1c19.2,8.3,38.9,12.5,59.5,5.4
			c4.2-1.4,7.9-4.1,11.9-6.2c1.4-0.7,2.7-1.6,4-2.3C188,823.7,188.3,824.1,188.6,824.5z"/>
		<path class="st6" d="M316.1,827.9c-2.4-0.2-4.9-0.2-7.3-0.6c-15.1-2.3-30-1-44.5,2.8c-14,3.7-27.7,8.7-41.7,12.9
			c-4.3,1.3-8.7,2.1-13.2,2.6c-9,1-14.7-2.7-16.3-10.2c-1.4-6.3,3.1-13.7,10.7-15.9c7.5-2.2,15.2-3.7,22.9-4.7
			c27.4-3.3,54.4-0.8,81,6.6c3.2,0.9,6.1,3,9.1,4.5C316.6,826.6,316.3,827.2,316.1,827.9z"/>
		<path class="st8" d="M443.8,974.7c-4.5-8.2-9.5-16.1-13.5-24.5c-6.3-13.1-14.8-24.2-25.8-33.7c-7-6.1-13.4-13-19.1-20.4
			c-5.2-6.8-5.8-15.1-2.5-23.3c2.4-6.1,8.5-8.7,14.9-5.5c4.6,2.3,9,5.8,12.3,9.8c10.1,12.5,15.4,27.5,20,42.6
			c5.3,17.3,10.1,34.8,15,52.2c0.2,0.7,0,1.5,0,2.2C444.6,974.4,444.2,974.5,443.8,974.7z"/>
		<path class="st8" d="M304.5,996.6c-4.5,3.1-8.7,6.9-13.6,9.1c-15.1,7-31.2,10.5-47.7,10.1c-11.5-0.3-23-2.2-34.4-4.2
			c-3.2-0.6-6.5-3.2-8.9-5.8c-3.2-3.5-4.8-8.6-1.9-12.4c2.5-3.2,7.2-6,11.1-6.3c5.9-0.4,12.3,0.7,18,2.5c19,5.9,38.1,10.7,58.2,9
			c4.8-0.4,9.4-1.8,14.1-2.7c1.4-0.3,2.8-0.7,4.1-1C303.9,995.5,304.2,996,304.5,996.6z"/>
		<path class="st9" d="M862,312.2c4.2-1.1,8.3-2.3,12.5-3.2c2.9-0.6,6-0.7,9-1.1c0-0.4,0-0.9,0-1.3c-1-0.2-2-0.5-3-0.6
			c-1-0.1-2-0.1-3,0c-20.2,0.7-40.4,0.8-60.5,2.2c-12.6,0.9-25.1,3.7-37.7,5.5c-8.8,1.2-17.6,2.2-26.4,3.2c1.1-0.3,2.1-0.7,3.2-1
			c6-1.6,11.9-3.3,17.9-4.9c0.6-0.1,1.1-0.2,1.7-0.3c1.4-0.2,2.9-0.5,4.3-0.7c0.9-0.1,1.7-0.3,2.6-0.4c0.8-0.2,1.6-0.4,2.4-0.6
			c0.6-0.1,1.2-0.2,1.8-0.3c1.7-0.2,3.5-0.5,5.2-0.7c1.5-0.1,3-0.3,4.6-0.4c1.9-0.2,3.7-0.5,5.6-0.7c1-0.2,2-0.3,3-0.5
			c1-0.1,1.9-0.2,2.9-0.3c2.9-0.1,5.8-0.2,8.7-0.4c3.5-0.3,7-0.6,10.5-0.8c1-0.1,2-0.3,3-0.4c4.6-0.1,9.2-0.3,13.9-0.4c1,0,2,0,3,0
			c1,0,2,0,3,0c2.2-0.1,4.5-0.1,6.7-0.2c2.6,0,5.1,0,7.7,0c0.8,0,1.5,0,2.3,0c2.9,0,5.8,0,8.8,0c0.4,0,0.8,0,1.2,0
			c7.5-0.2,14.9-0.4,22.4-0.6c0.7,0,1.4,0,2-0.1c3,0,6-0.1,9-0.1c0.6,1.3,1.3,2.7,1.9,4c-1.3,0.4-2.5,0.9-3.8,1
			C892.8,309.4,877.4,310.8,862,312.2z"/>
		<path class="st9" d="M683,342.8c-3.3,2.4-6.4,5.3-10,7.3c-17.1,9.4-33.1,20.3-46.9,34.1c-5.6,5.6-10.6,12.3-14.1,19.4
			c-1.9,3.9-0.3,9.5-0.1,14.4c0.1,1.7,0.6,3.5,0.9,5.2c-1.3-2.9-3.5-5.7-3.6-8.6c-0.2-5.3,0.9-10.5,1.5-15.8c0-0.3,0.2-0.5,0.5-0.6
			c0.2-0.4,0.4-0.8,0.6-1.2c6.2-7,11.8-14.5,18.7-20.8c6.8-6.3,14.7-11.3,22.3-16.7c4.3-3,8.8-5.5,13.3-8.3c0.6-0.3,1.2-0.5,1.8-0.8
			c3.6-2.2,7.1-4.3,10.7-6.5C680.2,343.4,681.6,343.1,683,342.8z"/>
		<path class="st9" d="M713,391.6c0.4-1.1,0.6-2.6,1.4-3.4c15.8-15.1,33.5-27.7,52-39c11.6-7.1,23.9-13.2,35.9-19.6
			c1.1-0.6,2.6-0.3,3.9-0.4c-4,2.3-8.1,4.5-12.1,6.8c-1.3,1-2.7,1.9-4,2.9l-0.3,0.3c0,0-0.5,0-0.5,0c-0.4,0.2-0.8,0.4-1.2,0.6
			c-12.9,7.9-26.1,15.3-38.5,23.9c-11.9,8.3-22.9,18-34.4,27C714.6,391,713.7,391.3,713,391.6z"/>
		<path class="st10" d="M683,342.8c-1.4,0.3-2.9,0.7-4.3,1c8.4-4.2,16.5-8.8,25.1-12.6c19.9-8.9,40.8-14.4,62-19.3
			c2.7-0.6,5.5-0.5,8.3-0.8c-6,1.6-11.9,3.2-17.9,4.9c-1.1,0.3-2.1,0.7-3.2,1c0,0,0,0,0,0c-5.6,1.4-11.3,2.5-16.8,4.2
			c-8.1,2.7-16.1,5.8-24.2,8.8c0,0,0,0,0,0c-6.7,3-13.3,6-20,9c0,0,0,0,0,0c-1.3,0.7-2.7,1.3-4,2c0,0,0,0,0,0
			c-1,0.3-2.1,0.6-3.1,0.9C684.3,342.1,683.6,342.4,683,342.8z"/>
		<path class="st9" d="M670.2,424.1c0.1-0.5,0-1.2,0.3-1.4c11.5-9.1,23-18.1,34.6-27c1.4-1.1,3.6-1.2,5.5-1.7
			c-11.3,9.3-22.7,18.7-34,28c-1,0.8-2.1,1.5-3.1,2.3C672.4,424.2,671.3,424.2,670.2,424.1z"/>
		<path class="st11" d="M862,312.2c15.4-1.4,30.8-2.8,46.1-4.2c1.3-0.1,2.5-0.7,3.8-1c-1.1,0.9-2.2,2.5-3.4,2.7
			c-13,1.4-25.9,2.6-38.9,3.8c-2.9,0.3-5.8,0.7-8.7,1.1C861.3,313.7,861.7,313,862,312.2z"/>
		<path class="st12" d="M670.2,424.1c1.1,0.1,2.2,0.1,3.3,0.2c-8.8,3.7-17.4,7.9-26.4,10.9c-4.7,1.6-10.1,1.5-15.2,1.4
			c-2.6-0.1-5.1-1.8-7.7-2.8c0.6-0.2,1.3-0.5,1.9-0.7c0,0,0,0,0,0c2,0.7,4,2,5.9,1.8c7.7-0.8,15.4-1.7,23-3.4
			c4-0.9,7.5-3.5,11.3-5.4c0,0,0,0,0,0C667.5,425.4,668.8,424.7,670.2,424.1C670.1,424.1,670.2,424.1,670.2,424.1z"/>
		<path class="st11" d="M858,313.9c0.3,0.3,0.7,0.5,1,0.8c-12,3.3-24,6.6-36.1,9.9c2.4-1.5,4.8-3,7.1-4.6c0,0,0,0,0,0
			c4.7-1.3,9.3-2.7,14-4c0,0,0,0,0,0C848.8,315.3,853.4,314.6,858,313.9z"/>
		<path class="st11" d="M794.1,335.9c4-2.3,8.1-4.5,12.1-6.8c0,0,0-0.1,0-0.1c3-1,6.1-1.9,9.1-2.9c0.6-0.3,1.3-0.6,1.9-0.9
			c1.6-0.1,3.3-0.2,4.9-0.3c-9.3,4-18.7,7.9-28,11.9C794.1,336.5,794.1,336.2,794.1,335.9z"/>
		<path class="st13" d="M610.8,398.6c-0.6,5.3-1.7,10.6-1.5,15.8c0.1,2.9,2.3,5.8,3.6,8.6c0,0,0.1,0,0.1,0c-0.1,0.8-0.2,1.5-0.3,2.3
			C605.9,418.5,605.1,407,610.8,398.6z"/>
		<path class="st10" d="M899.1,303.1c-7.5,0.2-14.9,0.4-22.4,0.6C884.1,303.5,891.6,303.3,899.1,303.1z"/>
		<path class="st9" d="M612.7,425.4c0.1-0.8,0.2-1.5,0.3-2.3c4.3,3.3,8.7,6.7,13,10c-0.6,0.2-1.3,0.5-1.9,0.7c-0.7-0.3-1.3-0.7-2-1
			c-0.4-0.2-0.8-0.5-1.2-0.7C618.2,429.9,615.4,427.6,612.7,425.4z"/>
		<path class="st9" d="M822.1,325c-1.6,0.1-3.3,0.2-4.9,0.3c3-4.9,8.1-4.8,12.9-5.3c-2.4,1.5-4.8,3-7.1,4.6
			C822.7,324.7,822.4,324.8,822.1,325z"/>
		<path class="st10" d="M844.1,304c-4.6,0.1-9.2,0.3-13.9,0.4C834.8,304.3,839.4,304.2,844.1,304z"/>
		<path class="st10" d="M827.2,304.9c-3.5,0.3-7,0.6-10.5,0.8C820.2,305.5,823.7,305.2,827.2,304.9z"/>
		<path class="st10" d="M910.1,302.9c-3,0-6,0.1-9,0.1C904.1,303,907.1,303,910.1,302.9z"/>
		<path class="st10" d="M875.5,303.7c-2.9,0-5.8,0-8.8,0C869.6,303.7,872.5,303.7,875.5,303.7z"/>
		<path class="st10" d="M864.4,303.7c-2.6,0-5.1,0-7.7,0C859.3,303.8,861.9,303.7,864.4,303.7z"/>
		<path class="st10" d="M792.1,308.1c-1.7,0.2-3.5,0.5-5.2,0.7C788.6,308.6,790.3,308.3,792.1,308.1z"/>
		<path class="st10" d="M802.2,306.9c-1.9,0.2-3.7,0.5-5.6,0.7C798.5,307.4,800.4,307.2,802.2,306.9z"/>
		<path class="st14" d="M794.1,335.9c0,0.3,0,0.6,0,0.9c-1.3,0.7-2.7,1.3-4,2C791.4,337.9,792.7,336.9,794.1,335.9z"/>
		<path class="st10" d="M780.1,310.1c-1.4,0.2-2.9,0.5-4.3,0.7C777.2,310.5,778.6,310.3,780.1,310.1z"/>
		<path class="st10" d="M850.1,304c-1,0-2,0-3,0C848.1,304,849.1,304,850.1,304z"/>
		<path class="st10" d="M808.1,306.1c-1,0.1-1.9,0.2-2.9,0.3C806.1,306.3,807.1,306.2,808.1,306.1z"/>
		<path class="st9" d="M711.1,393.5c-0.1-0.6-0.3-1.1-0.4-1.7c0.7,0,1.3,0.1,2,0.1C712.1,392.5,711.6,393,711.1,393.5z"/>
		<path class="st10" d="M668,350.2c-0.6,0.3-1.2,0.5-1.8,0.8C666.8,350.8,667.4,350.5,668,350.2z"/>
		<path class="st10" d="M785.1,309.1c-0.8,0.2-1.6,0.4-2.4,0.6C783.5,309.5,784.3,309.3,785.1,309.1z"/>
		<path class="st12" d="M620.9,432.1c0.4,0.2,0.8,0.5,1.2,0.7C621.7,432.6,621.3,432.3,620.9,432.1z"/>
		<path class="st14" d="M788,339.6c0.4-0.2,0.8-0.4,1.2-0.6C788.8,339.3,788.4,339.5,788,339.6z"/>
		<path class="st13" d="M611.9,396.8c-0.2,0.4-0.4,0.8-0.6,1.2C611.5,397.6,611.7,397.2,611.9,396.8z"/>
		<path class="st9" d="M712,329.9c8-3,16-6.1,24.2-8.8c5.5-1.8,11.2-2.9,16.8-4.2c-2.1,1.3-4,3.1-6.2,3.9
			c-9.6,3.1-19.2,5.9-28.9,8.7C716,330,714,329.8,712,329.9z"/>
		<path class="st9" d="M666.1,426.1c-3.7,1.9-7.3,4.5-11.3,5.4c-7.5,1.7-15.3,2.6-23,3.4c-1.9,0.2-3.9-1.2-5.9-1.8
			c2.8,0,5.6-0.1,8.4,0c10.1,0.1,19.4-3.2,28.8-6.5C664.1,426.2,665.1,426.2,666.1,426.1z"/>
		<path class="st9" d="M692,338.9c6.7-3,13.3-6,20-9c-2.8,1.7-5.5,3.7-8.5,5C699.8,336.5,695.9,337.6,692,338.9z"/>
		<path class="st9" d="M844.1,316c-4.7,1.3-9.3,2.7-14,4C834,316,839,315.8,844.1,316z"/>
		<path class="st9" d="M858,313.9c-4.6,0.7-9.3,1.4-13.9,2.1C846.7,313,852.7,312.1,858,313.9z"/>
		<path class="st9" d="M815.2,326.2c-3,1-6.1,1.9-9.1,2.9C808.7,326.5,811.1,323.8,815.2,326.2z"/>
		<path class="st9" d="M688,340.9c1.3-0.7,2.7-1.3,4-2C690.7,339.6,689.3,340.2,688,340.9z"/>
		<path class="st9" d="M670.1,424.1c-1.3,0.7-2.7,1.3-4,2C667.5,425.4,668.8,424.7,670.1,424.1z"/>
		<path class="st9" d="M684.9,341.8c1-0.3,2.1-0.6,3.1-0.9C687,341.2,685.9,341.5,684.9,341.8z"/>
	</g>
</g>
</svg>
