<?xml version="1.0" encoding="utf-8"?>
<!-- Generator: Adobe Illustrator 25.0.1, SVG Export Plug-In . SVG Version: 6.00 Build 0)  -->
<svg version="1.1" id="Capa_1" xmlns="http://www.w3.org/2000/svg" xmlns:xlink="http://www.w3.org/1999/xlink" x="0px" y="0px"
	 viewBox="0 0 1500 1000" style="enable-background:new 0 0 1500 1000;" xml:space="preserve">
<style type="text/css">
	.st0{fill:#FEFEFE;}
	.st1{fill:#356735;}
	.st2{fill:#FD6734;}
	.st3{fill:#033599;}
	.st4{fill:#FE9935;}
	.st5{fill:#8B302F;}
	.st6{fill:#040404;}
	.st7{fill:#030303;}
	.st8{fill:#050505;}
	.st9{fill:#090909;}
</style>
<g>
	<g>
		<path class="st0" d="M0,0c500,0,1000,0,1500,0c0,333.3,0,666.7,0,1000c-500,0-1000,0-1500,0C0,666.7,0,333.3,0,0z M1193.5,444.5
			c0.4,0.3,0.8,0.7,1.2,1c-1.1,13.2,6.8,20.6,19.9,17.5c10.2-2.3,20-6.2,29.9-9.3c10.8-3.5,21.5-3.7,32.2,0.2
			c13.7,5.1,19.9,18.7,14.8,32.4c-3.9,10.6-11.5,18.1-20.5,24.5c-1.5,1.1-2.9,2.2-4.4,3.4c0.3,0.5,0.5,1,0.8,1.4
			c1.7-0.5,3.9-0.5,5.2-1.6c7.7-6.2,16.1-12,22.7-19.2c14.1-15.5,13.2-35-0.4-50.9c-18.9-22.1-52.3-27.7-78.7-16.5
			c-8.2,3.5-15.7,8.7-24,11.8c-23.3,8.8-46,9.5-67.3-6.2c-7-5.2-14.6-9.2-23.5-10.4c-9-1.2-15,5.6-12.7,14.5
			c1.7,6.7,6.3,10.9,12.1,13.8c11.5,5.8,23.8,8.3,36.6,7.9C1157.2,458.1,1175.8,452.9,1193.5,444.5z M542.7,730.4
			c0.6-0.2,1.2-0.4,1.8-0.6c-1-4.3-1.3-9-3-13c-11.7-26.6-22.6-53.7-35.9-79.5c-20.3-39.2-48.7-71.8-86.7-95
			c-9.8-6-20.5-11.3-31.5-14.5c-16.5-4.8-28.2,6.9-25.7,23.8c1.3,8.9,6.9,15.3,12.8,21.5c11,11.6,25.4,17.9,39.4,24.8
			c27.2,13.3,52.6,29.1,74.6,50c21.2,20.2,36.2,44.6,48.3,70.9C538.7,722.7,540.8,726.5,542.7,730.4z M98.8,728.4
			c0.2,0.6,0.4,1.1,0.6,1.7c5.1-1.4,10.5-2.1,15.3-4.3c22.8-10,45.8-19.7,68.1-30.8c34.8-17.3,65.1-40.6,89.1-71.6
			c11.3-14.6,21.4-29.7,27.4-47.2c6.6-19.1-4-32.8-23.4-30.1c-3,0.4-6.1,1.8-8.7,3.4c-8.2,4.9-15.7,11-20.4,19.4
			c-8.8,15.6-16.9,31.6-25.4,47.4c-14.2,26.4-31.5,50.4-54.2,70.3c-18.7,16.4-40.5,27.7-62.7,38.5
			C102.5,726.1,100.7,727.3,98.8,728.4z M12.3,426.5c-0.3,0.5-0.6,1-0.9,1.4c2.2,1.9,4.2,4.2,6.6,5.6c15.5,8.7,31,17.3,46.6,25.7
			c23.5,12.6,47.9,22.9,73.7,29.7c28.2,7.5,56.9,10,85.9,6.7c11.6-1.3,23.2-4.3,34.3-7.9c8.2-2.7,14.4-8.9,14.3-18.4
			c-0.1-9.8-5-17-14.3-20.9c-10.1-4.3-20.8-6.3-31.6-4.6c-17.4,2.7-34.6,6.2-51.9,9.4c-30.7,5.6-61.3,6.3-92,0.3
			c-22.2-4.4-42.6-13.7-62.8-23.5C17.7,428.8,15,427.7,12.3,426.5z M349.3,142.3c-0.5-0.3-1-0.6-1.4-0.9c-2.5,3.1-5.6,5.9-7.5,9.3
			c-15,27.4-30.6,54.5-42.2,83.6c-16.4,41.1-23.1,83.4-17,127.3c1.4,10.2,4.7,20.3,8.6,29.9c3.1,7.7,10,12.1,18.8,11.4
			c7.7-0.6,13.9-4.4,17.6-11.4c7.5-14.3,8.2-29.8,5.1-45.1c-5.6-27.5-12.9-54.7-12.5-83c0.2-15.3,1-30.8,3.1-46
			c3.1-23,12.9-43.9,22.8-64.6C346.3,149.5,347.7,145.9,349.3,142.3z M623,371.3c0-0.5,0.1-0.9,0.1-1.4c-2.8-0.6-5.6-1.7-8.4-1.7
			c-11.6-0.3-23.1-0.3-34.7-0.3c-33.6,0-67.1,1.9-99.8,10.8c-35,9.5-67,24.9-93.9,49.5c-4.9,4.5-9.2,10.1-12.4,16
			c-4.6,8.6-1.3,17.9,6.7,23.6c8.3,5.9,16.9,4.7,25.8,2.3c14.5-4,26.2-12.7,37.2-22.5c20.1-18.1,40.9-35.1,64.7-48.3
			c29.9-16.6,62.1-24.9,96.2-26.4C610.5,372.5,616.7,371.8,623,371.3z M1230.2,468c5.8,15.5,3.5,30.6,0,46.3
			c-10.1-3.1-20-3.3-31-1.5c10.4,2.5,19.7,4.7,30.8,7.3c-5.2,9.6-9.4,18-14.1,26.1c-4.7,8.1-9.9,15.8-14.6,23.8
			c-3.6,6.1-4.3,12.9-3.2,19.8c0.6,4.2,2.2,8.5,6.6,9c3.4,0.4,8.1-0.6,10.3-2.8c4.8-4.7,9.3-10.2,12.2-16.2
			c8.2-16.4,13.8-33.7,15.8-52c0.3,0,0.7-0.2,1-0.1c25.3,13.8,39.9,36,48.1,62.8c3,9.7,5,19.7,8.2,29.2c1.5,4.4,4.3,8.8,7.6,12.1
			c7.3,7.4,18.2,4,20.9-6.1c0.5-1.9,0.6-4,0.6-5.9c-0.1-17.8-6.1-33.6-16.5-47.7c-17.2-23.5-38.9-41.4-66-52.4
			c-1.5-0.6-3.4-2-3.6-3.2c-2.1-11.9-3.8-23.9-5.9-35.8C1236.3,475.6,1234.3,471,1230.2,468z M1402.8,588.3c-4.7,1.2-9,3.1-13.3,3.2
			c-14.7,0.5-32-11.5-36.7-25.7c-2.9-8.6-5.4-17.5-6.6-26.4c-3.2-24.4,1.5-47.2,18.6-65.8c6.3-6.9,14.8-11.6,22.1-17.6
			c5.1-4.2,10.3-8.4,14.8-13.2c3.8-4.1,4.2-9.6,1-14.3c-3.2-4.8-8.7-7.1-13.9-6c-7.2,1.5-14.6,3.9-20.9,7.7
			c-18.6,11.3-30.8,28.2-38,48.6c-9,25.7-7.8,51.8,1.5,77c7.1,19.4,21.6,33,41.6,39.6C1385.3,599.4,1396.4,596.6,1402.8,588.3z
			 M1001.3,624.4c0.4-0.4,0.7-0.8,1.1-1.1c-0.7-1-1.4-2-2.2-3c-4.7-5.8-9.7-11.5-14-17.6c-16.1-22.7-24.6-47.9-22.8-75.8
			c1.2-19.6,5.6-38.8,12.9-57.2c3.1-8,5.4-16.4,7.3-24.8c1.5-6.8-2.4-14.3-7.4-16.7c-5.7-2.7-10.1-1.3-16.3,4.9
			c-6.8,6.7-10.1,15.2-12.8,23.9c-7.5,24.2-4.6,48.6-0.6,72.8c3.6,22.4,12,43.3,25,61.9c7.5,10.7,17,19.9,25.7,29.7
			C998.2,622.6,999.9,623.4,1001.3,624.4z M862.3,426.7c-0.2,0.3-0.5,0.6-0.7,0.8c3.1,9.5,6.5,19,9.2,28.6
			c6.4,22.7,6.3,45.4-2.4,67.5c-3.5,8.9-8,17.5-12.7,25.8c-6.1,10.8-12.5,21.4-13,34.1c-0.2,4.5,0.7,9.3,2.3,13.6
			c2.7,7.2,11.9,8.5,19,3c10.4-8.2,14.5-20.3,17.9-32.1c8.5-29.5,9.7-59.4,2.8-89.5c-3.5-15.5-9.1-30.1-16.8-44
			C866.5,431.6,864.2,429.2,862.3,426.7z M758.8,523.5c0,5.8-0.6,11.9,0.1,17.7c1,8.2,2.6,16.3,4.7,24.3c1.4,5.2,6.6,6.4,11.3,6.5
			c4.9,0.2,7.5-3.4,8.6-7.7c0.8-2.8,1.1-5.9,0.7-8.7c-1.4-9.1-3.2-18.2-4.8-27.6c2.2,0.1,4.5,0.3,6.8,0.3c5.8,0,11.7,0.5,17.4-0.3
			c7.2-1.1,14.5-2.8,19.1-9.5c3.4-5,2.4-10.8-2.4-14.4c-7.2-5.4-14.8-4.1-22.3-1.4c-7.5,2.7-14.8,5.8-22.8,8.9
			c-4.6-19.5-3-38.8-3.4-58c-1.3,2.4-2.2,4.9-2.7,7.4c-2.9,16.4-5.8,32.7-8.5,49.1c-0.6,3.4-1.5,4.9-5.4,4.2
			c-4.7-0.8-9.5-0.9-14.3-1.2c-0.2,0.7-0.4,1.4-0.6,2.1C746.3,517.8,752.4,520.6,758.8,523.5z M714.9,457.1
			c-0.5-0.1-0.9-0.2-1.4-0.3c-0.5,0.6-1.2,1.1-1.5,1.8c-7.6,18.6-18.5,35-33.2,48.7c-8.2,7.6-17,14.5-25.6,21.6
			c-7.9,6.6-16.5,12.6-23.6,19.9c-3.5,3.6-5.8,9.4-6.6,14.5c-1.2,7,5.4,12.7,12.3,11c4.9-1.3,10.2-3.6,13.9-7
			c8.6-8.1,16.7-16.8,24.1-25.9c18.4-22.6,31.1-48.2,40-75.9C714.2,462.7,714.4,459.9,714.9,457.1z M1150.8,463.9
			c-0.3,0.1-0.6,0.3-0.9,0.4c0.5,10.7,1.8,21.5,1.3,32.1c-0.8,19.2-9.2,35.8-19.1,51.8c-4.4,7-8.7,14.3-11.6,22
			c-1.9,5-2.2,11.1-1.3,16.5c1.1,6.8,7.3,9.3,13.4,10c4.8,0.5,9.1-1.6,11.7-6c2-3.4,4.1-6.9,5.4-10.6c12.5-35.6,14.9-71.7,3.9-108.2
			C1152.9,469.1,1151.8,466.5,1150.8,463.9z M1411.1,455.6c-0.4,0.5-0.8,0.9-1.3,1.4c1.1,1.5,2.2,3.1,3.4,4.6
			c9.5,12.2,14.1,25.8,11.7,41.4c-1.9,12.3-5.3,23.9-13.9,33.5c-4.3,4.8-7.9,10.3-11.1,15.9c-3.5,6.2-1.3,14.1,4.2,18.4
			c4.9,3.9,12.3,3.3,17.7-1.4c7-6,11.5-13.7,14.2-22.5c4.8-15.4,3.8-31,0.6-46.4c-2.7-13.1-6.5-25.8-15.6-36.1
			C1418.1,461.1,1414.4,458.5,1411.1,455.6z M613.5,576.1c-0.4,0.4-0.8,0.8-1.2,1.2c3.6,3.3,6.8,7.2,10.9,9.7
			c13.3,8.3,27.8,13.4,43.6,14.6c14.4,1.1,28.6-0.1,42.1-5.5c6.4-2.5,11.6-6.4,14.2-13.2c1.7-4.6,1.6-9.3-1.9-12.6
			c-3.5-3.3-8.3-4.5-13-2.7c-5.4,2.1-10.6,4.7-15.9,7.1c-8.8,3.8-17.5,8-26.5,11.3c-12.9,4.7-25.8,4.4-38.1-2.1
			C622.8,581.4,618.2,578.7,613.5,576.1z M728.6,436.7c-0.4-0.4-0.7-0.7-1.1-1.1c-1.8,1.1-3.7,2.1-5.5,3.3c-7.9,5.1-16.6,7-26,7.1
			c-12.6,0.1-24.2-3.6-35.5-8.7c-7.4-3.4-14.8-6.8-22.4-9.7c-5.1-1.9-12.4,0.3-15,4.1c-3.3,4.8-2.3,9.9,0.2,14.7
			c2.8,5.2,7.6,8.2,13.3,9.7c15.8,4.2,31.9,4.8,48,2c14.9-2.6,29.1-7,40.6-17.6C726.5,439.3,727.5,437.9,728.6,436.7z M838.7,439.4
			c0.2-0.6,0.4-1.2,0.6-1.8c-3.4-1.5-6.7-3.5-10.3-4.4c-19.9-5.3-40.3-7.1-60.8-5.8c-8.9,0.6-17.8,2.6-26.4,4.9
			c-7.6,2.1-11.2,9.4-8.8,15.8c1.9,5.2,7.4,8.2,14.6,6.5c9.7-2.2,19.2-5.2,28.6-8.5c16.3-5.6,33-8.7,50.3-7.9
			C830.6,438.3,834.6,438.9,838.7,439.4z M949.6,567.4c0.3-2.1,0.6-2.7,0.5-3.1c-3.8-13.6-7.5-27.2-11.5-40.7
			c-4.2-14.2-8.8-28.3-17.8-40.3c-2.9-3.9-6.9-7.3-11.1-9.6c-5.7-3.2-11.2-1.1-13.3,4.3c-2.9,7.3-2.3,14.6,2.5,20.8
			c4.7,6,9.9,11.8,15.7,16.7c10,8.4,17.4,18.5,23.1,30.2C940.9,552.7,945.1,559.4,949.6,567.4z M828.6,585.2
			c-0.3-0.4-0.5-0.8-0.8-1.2c-5.3,1-10.6,2.4-16,2.8c-17,1.5-33.3-2.5-49.4-7.6c-5-1.6-10.3-2.2-15.6-2.5c-5.2-0.3-10.1,3.3-11,7
			c-1.1,5,1.9,10.9,6.8,13.2c1.8,0.8,3.7,1.6,5.6,2c23.1,4.7,45.8,3.9,67.7-5.7C820.5,591.3,824.4,587.9,828.6,585.2z M1087,528.9
			c-0.1-0.3-0.3-0.6-0.4-0.9c-0.6,0.2-1.2,0.3-1.9,0.5c-14,3.8-27.9,4.1-41.6-1c-7-2.6-13.7-6-20.6-8.6c-2.8-1.1-6.2-1.6-9.2-1.3
			c-6.8,0.7-9.1,6.7-4.5,11.6c2,2.2,5,3.8,7.9,4.8c23.3,8.6,46,4.5,68.5-3.9C1085.8,529.9,1086.4,529.3,1087,528.9z"/>
		<path class="st1" d="M542.7,730.4c-2-3.9-4.1-7.6-5.9-11.6c-12.1-26.3-27.1-50.7-48.3-70.9c-22-21-47.5-36.8-74.6-50
			c-14-6.8-28.4-13.2-39.4-24.8c-5.8-6.2-11.4-12.6-12.8-21.5c-2.6-17,9.2-28.6,25.7-23.8c11,3.2,21.7,8.5,31.5,14.5
			c38,23.3,66.4,55.8,86.7,95c13.3,25.8,24.2,52.9,35.9,79.5c1.8,4,2.1,8.6,3,13C543.9,729.9,543.3,730.2,542.7,730.4z"/>
		<path class="st2" d="M98.8,728.4c1.9-1.1,3.7-2.3,5.7-3.2c22.2-10.8,43.9-22,62.7-38.5c22.7-19.9,40-43.9,54.2-70.3
			c8.5-15.8,16.6-31.8,25.4-47.4c4.7-8.4,12.2-14.5,20.4-19.4c2.6-1.6,5.7-3,8.7-3.4c19.3-2.7,30,11,23.4,30.1
			c-6.1,17.5-16.2,32.7-27.4,47.2c-24,31-54.2,54.3-89.1,71.6c-22.3,11.1-45.3,20.8-68.1,30.8c-4.8,2.1-10.2,2.9-15.3,4.3
			C99.2,729.5,99,728.9,98.8,728.4z"/>
		<path class="st3" d="M12.3,426.5c2.7,1.2,5.4,2.2,8,3.5c20.2,9.8,40.6,19.1,62.8,23.5c30.7,6,61.4,5.4,92-0.3
			c17.3-3.2,34.5-6.7,51.9-9.4c10.8-1.7,21.5,0.3,31.6,4.6c9.3,3.9,14.1,11.1,14.3,20.9c0.1,9.5-6.1,15.8-14.3,18.4
			c-11.1,3.6-22.7,6.6-34.3,7.9c-29,3.3-57.7,0.8-85.9-6.7c-25.8-6.8-50.2-17.2-73.7-29.7c-15.6-8.4-31.2-17-46.6-25.7
			c-2.5-1.4-4.4-3.7-6.6-5.6C11.7,427.5,12,427,12.3,426.5z"/>
		<path class="st4" d="M349.3,142.3c-1.6,3.6-3,7.2-4.7,10.7c-10,20.7-19.7,41.6-22.8,64.6c-2.1,15.2-2.9,30.6-3.1,46
			c-0.4,28.3,6.9,55.5,12.5,83c3.1,15.3,2.5,30.7-5.1,45.1c-3.7,7-9.9,10.8-17.6,11.4c-8.8,0.7-15.7-3.7-18.8-11.4
			c-3.9-9.6-7.2-19.7-8.6-29.9c-6.1-43.9,0.6-86.2,17-127.3c11.6-29.1,27.2-56.2,42.2-83.6c1.9-3.4,5-6.2,7.5-9.3
			C348.4,141.7,348.8,142,349.3,142.3z"/>
		<path class="st5" d="M623,371.3c-6.2,0.5-12.4,1.2-18.7,1.5c-34.1,1.4-66.2,9.7-96.2,26.4c-23.7,13.2-44.6,30.2-64.7,48.3
			c-10.9,9.9-22.6,18.6-37.2,22.5c-8.8,2.4-17.5,3.6-25.8-2.3c-7.9-5.7-11.3-15-6.7-23.6c3.2-5.9,7.5-11.5,12.4-16
			c27-24.6,58.9-40,93.9-49.5c32.7-8.8,66.1-10.7,99.8-10.8c11.6,0,23.2,0,34.7,0.3c2.8,0.1,5.6,1.1,8.4,1.7
			C623,370.4,623,370.9,623,371.3z"/>
		<path class="st6" d="M1193.5,444.5c-17.8,8.4-36.4,13.6-56.1,14.3c-12.8,0.5-25.1-2.1-36.6-7.9c-5.8-2.9-10.4-7.1-12.1-13.8
			c-2.2-8.8,3.8-15.7,12.7-14.5c8.8,1.2,16.5,5.2,23.5,10.4c21.2,15.7,44,15.1,67.3,6.2c8.3-3.2,15.8-8.4,24-11.8
			c26.3-11.2,59.7-5.6,78.7,16.5c13.6,15.9,14.6,35.5,0.4,50.9c-6.7,7.3-15,13-22.7,19.2c-1.3,1.1-3.4,1.1-5.2,1.6
			c-0.3-0.5-0.5-1-0.8-1.4c1.5-1.1,2.9-2.3,4.4-3.4c9-6.4,16.6-13.8,20.5-24.5c5.1-13.7-1.1-27.3-14.8-32.4
			c-10.7-4-21.5-3.7-32.2-0.2c-10,3.2-19.8,7-29.9,9.3c-13.1,3-21-4.4-19.9-17.5c0-0.4,0-0.9,0.1-1.3
			C1194.3,444.3,1193.9,444.4,1193.5,444.5z"/>
		<path class="st7" d="M1230.2,468c4.1,3,6.2,7.6,7,12.6c2.1,11.9,3.7,23.9,5.9,35.8c0.2,1.3,2.2,2.6,3.6,3.2
			c27.1,11.1,48.8,29,66,52.4c10.4,14.2,16.4,30,16.5,47.7c0,2-0.1,4-0.6,5.9c-2.7,10.1-13.6,13.5-20.9,6.1
			c-3.3-3.3-6.1-7.7-7.6-12.1c-3.2-9.6-5.3-19.6-8.2-29.2c-8.2-26.9-22.8-49-48.1-62.8c-0.2-0.1-0.6,0.1-1,0.1
			c-2,18.3-7.6,35.7-15.8,52c-3,6-7.5,11.4-12.2,16.2c-2.3,2.2-7,3.2-10.3,2.8c-4.4-0.5-5.9-4.9-6.6-9c-1-6.9-0.4-13.7,3.2-19.8
			c4.7-8,10-15.7,14.6-23.8c4.7-8.1,9-16.5,14.1-26.1c-11.1-2.6-20.3-4.8-30.8-7.3c11-1.8,20.9-1.6,31,1.5
			C1233.7,498.7,1236,483.5,1230.2,468z"/>
		<path class="st7" d="M1402.8,588.3c-6.4,8.4-17.6,11.1-29.8,7.1c-20-6.7-34.5-20.2-41.6-39.6c-9.3-25.1-10.5-51.2-1.5-77
			c7.1-20.4,19.3-37.3,38-48.6c6.2-3.8,13.7-6.2,20.9-7.7c5.2-1.1,10.7,1.2,13.9,6c3.2,4.8,2.8,10.2-1,14.3
			c-4.4,4.8-9.7,9-14.8,13.2c-7.3,5.9-15.9,10.7-22.1,17.6c-17.1,18.6-21.7,41.4-18.6,65.8c1.2,9,3.7,17.8,6.6,26.4
			c4.7,14.1,22,26.2,36.7,25.7C1393.8,591.3,1398.1,589.5,1402.8,588.3z"/>
		<path class="st6" d="M1001.3,624.4c-1.4-1-3.2-1.7-4.3-3c-8.7-9.8-18.3-19-25.7-29.7c-13-18.6-21.3-39.5-25-61.9
			c-3.9-24.2-6.9-48.7,0.6-72.8c2.7-8.7,6-17.3,12.8-23.9c6.3-6.2,10.6-7.6,16.3-4.9c5,2.4,8.9,9.9,7.4,16.7
			c-1.8,8.4-4.1,16.8-7.3,24.8c-7.3,18.4-11.6,37.6-12.9,57.2c-1.8,27.9,6.8,53.1,22.8,75.8c4.3,6.1,9.3,11.7,14,17.6
			c0.8,1,1.5,2,2.2,3C1002,623.6,1001.7,624,1001.3,624.4z"/>
		<path class="st6" d="M862.3,426.7c1.9,2.6,4.1,5,5.7,7.7c7.7,13.9,13.2,28.5,16.8,44c6.9,30.1,5.7,60-2.8,89.5
			c-3.4,11.8-7.5,24-17.9,32.1c-7.1,5.6-16.3,4.3-19-3c-1.6-4.2-2.5-9.1-2.3-13.6c0.5-12.7,7-23.3,13-34.1
			c4.7-8.3,9.2-16.9,12.7-25.8c8.7-22.1,8.8-44.8,2.4-67.5c-2.7-9.6-6.1-19.1-9.2-28.6C861.9,427.2,862.1,426.9,862.3,426.7z"/>
		<path class="st6" d="M758.8,523.5c-6.4-2.9-12.4-5.7-18.5-8.4c0.2-0.7,0.4-1.4,0.6-2.1c4.8,0.4,9.6,0.4,14.3,1.2
			c3.8,0.7,4.8-0.8,5.4-4.2c2.7-16.4,5.6-32.8,8.5-49.1c0.5-2.5,1.4-5,2.7-7.4c0.4,19.3-1.2,38.6,3.4,58c7.9-3.1,15.3-6.2,22.8-8.9
			c7.6-2.7,15.1-4,22.3,1.4c4.8,3.6,5.8,9.4,2.4,14.4c-4.6,6.7-11.9,8.4-19.1,9.5c-5.7,0.9-11.6,0.3-17.4,0.3
			c-2.3,0-4.6-0.2-6.8-0.3c1.7,9.4,3.5,18.5,4.8,27.6c0.4,2.8,0.1,5.9-0.7,8.7c-1.2,4.2-3.8,7.8-8.6,7.7c-4.7-0.2-9.9-1.3-11.3-6.5
			c-2.1-7.9-3.7-16.1-4.7-24.3C758.2,535.4,758.8,529.3,758.8,523.5z"/>
		<path class="st6" d="M714.9,457.1c-0.5,2.8-0.7,5.6-1.5,8.3c-8.9,27.6-21.6,53.3-40,75.9c-7.5,9.1-15.6,17.8-24.1,25.9
			c-3.6,3.4-8.9,5.7-13.9,7c-6.9,1.8-13.5-3.9-12.3-11c0.8-5.1,3.1-10.9,6.6-14.5c7.2-7.3,15.7-13.3,23.6-19.9
			c8.6-7.1,17.4-14,25.6-21.6c14.7-13.7,25.7-30,33.2-48.7c0.3-0.7,1-1.2,1.5-1.8C714,456.9,714.4,457,714.9,457.1z"/>
		<path class="st6" d="M1150.8,463.9c1,2.6,2.1,5.2,2.9,7.9c11,36.5,8.6,72.5-3.9,108.2c-1.3,3.7-3.4,7.2-5.4,10.6
			c-2.6,4.4-6.9,6.6-11.7,6c-6.2-0.7-12.3-3.3-13.4-10c-0.9-5.3-0.6-11.5,1.3-16.5c2.9-7.7,7.2-14.9,11.6-22
			c9.9-16,18.3-32.6,19.1-51.8c0.4-10.7-0.8-21.4-1.3-32.1C1150.2,464.1,1150.5,464,1150.8,463.9z"/>
		<path class="st6" d="M1411.1,455.6c3.3,2.9,7,5.5,9.9,8.8c9.1,10.3,12.9,23.1,15.6,36.1c3.2,15.5,4.2,31-0.6,46.4
			c-2.7,8.8-7.1,16.4-14.2,22.5c-5.5,4.7-12.9,5.2-17.7,1.4c-5.5-4.3-7.7-12.2-4.2-18.4c3.2-5.6,6.8-11.2,11.1-15.9
			c8.7-9.6,12.1-21.2,13.9-33.5c2.4-15.6-2.2-29.2-11.7-41.4c-1.2-1.5-2.3-3.1-3.4-4.6C1410.2,456.5,1410.7,456.1,1411.1,455.6z"/>
		<path class="st6" d="M613.5,576.1c4.7,2.6,9.3,5.4,14.1,7.9c12.4,6.4,25.2,6.8,38.1,2.1c9-3.3,17.7-7.5,26.5-11.3
			c5.3-2.3,10.5-5,15.9-7.1c4.7-1.8,9.6-0.5,13,2.7c3.5,3.3,3.6,8,1.9,12.6c-2.5,6.8-7.8,10.6-14.2,13.2
			c-13.5,5.4-27.7,6.6-42.1,5.5c-15.7-1.2-30.2-6.3-43.6-14.6c-4.1-2.5-7.3-6.5-10.9-9.7C612.7,576.9,613.1,576.5,613.5,576.1z"/>
		<path class="st6" d="M728.6,436.7c-1.1,1.3-2.1,2.6-3.4,3.7c-11.5,10.6-25.7,15-40.6,17.6c-16.1,2.9-32.1,2.2-48-2
			c-5.7-1.5-10.5-4.5-13.3-9.7c-2.5-4.7-3.5-9.8-0.2-14.7c2.6-3.8,9.8-6.1,15-4.1c7.6,2.9,15,6.3,22.4,9.7
			c11.3,5.1,22.8,8.8,35.5,8.7c9.4-0.1,18.1-2,26-7.1c1.8-1.1,3.6-2.2,5.5-3.3C727.9,435.9,728.2,436.3,728.6,436.7z"/>
		<path class="st6" d="M838.7,439.4c-4.1-0.4-8.1-1-12.2-1.2c-17.3-0.8-33.9,2.3-50.3,7.9c-9.4,3.2-18.9,6.2-28.6,8.5
			c-7.2,1.7-12.7-1.3-14.6-6.5c-2.4-6.4,1.1-13.8,8.8-15.8c8.6-2.3,17.5-4.4,26.4-4.9c20.5-1.3,40.9,0.5,60.8,5.8
			c3.6,1,6.9,2.9,10.3,4.4C839.1,438.1,838.9,438.7,838.7,439.4z"/>
		<path class="st8" d="M949.6,567.4c-4.5-8-8.7-14.7-12.1-21.8c-5.6-11.7-13.1-21.7-23.1-30.2c-5.8-4.9-11-10.7-15.7-16.7
			c-4.8-6.2-5.4-13.5-2.5-20.8c2.1-5.3,7.7-7.4,13.3-4.3c4.2,2.4,8.2,5.8,11.1,9.6c9,12,13.5,26.2,17.8,40.3
			c4.1,13.5,7.7,27.1,11.5,40.7C950.2,564.8,949.9,565.3,949.6,567.4z"/>
		<path class="st7" d="M828.6,585.2c-4.2,2.7-8.1,6-12.6,8c-21.8,9.6-44.6,10.4-67.7,5.7c-1.9-0.4-3.8-1.1-5.6-2
			c-4.9-2.3-7.9-8.3-6.8-13.2c0.8-3.7,5.8-7.3,11-7c5.2,0.3,10.6,1,15.6,2.5c16.1,5,32.3,9,49.4,7.6c5.4-0.5,10.6-1.9,16-2.8
			C828,584.4,828.3,584.8,828.6,585.2z"/>
		<path class="st9" d="M1087,528.9c-0.6,0.4-1.2,1-1.9,1.3c-22.4,8.3-45.1,12.4-68.5,3.9c-2.9-1.1-5.9-2.7-7.9-4.8
			c-4.6-5-2.3-10.9,4.5-11.6c3-0.3,6.3,0.3,9.2,1.3c7,2.6,13.7,6.1,20.6,8.6c13.7,5,27.7,4.8,41.6,1c0.6-0.2,1.2-0.3,1.9-0.5
			C1086.7,528.3,1086.9,528.6,1087,528.9z"/>
		<path class="st0" d="M1193.5,444.5c0.4-0.1,0.8-0.2,1.2-0.3c0,0.4,0,0.9-0.1,1.3C1194.3,445.2,1193.9,444.8,1193.5,444.5z"/>
	</g>
</g>
</svg>
