<?xml version="1.0" encoding="utf-8"?>
<!-- Generator: Adobe Illustrator 25.0.1, SVG Export Plug-In . SVG Version: 6.00 Build 0)  -->
<svg version="1.1" id="Capa_1" xmlns="http://www.w3.org/2000/svg" xmlns:xlink="http://www.w3.org/1999/xlink" x="0px" y="0px"
	 viewBox="0 0 1087 903" style="enable-background:new 0 0 1087 903;" xml:space="preserve">
<style type="text/css">
	.st0{fill:#FEFEFE;}
	.st1{fill:#050505;}
	.st2{fill:#040404;}
	.st3{fill:#060606;}
	.st4{fill:#356735;}
	.st5{fill:#FD6735;}
	.st6{fill:#04359A;}
	.st7{fill:#8B302F;}
	.st8{fill:#FE9A36;}
</style>
<g>
	<g>
		<path class="st0" d="M0,0c366.6,0,733.3,0,1100,0c0,366.6,0,733.3,0,1100c-366.7,0-733.4,0-1100,0C0,733.3,0,366.7,0,0z
			 M763.4,608c0-0.1,0.1,0.4,0.1,0.9c-1.8,14.7,7.6,23.9,22.2,20.5c10.6-2.4,21-6.2,31.4-9.8c13.8-4.7,27.5-6.1,41.4-0.8
			c15.5,5.9,22.8,21.3,17.2,36.8c-3.9,10.8-10.9,19.4-20.2,26c-3,2.2-5.9,4.5-8.8,6.7c0.3,0.6,0.5,1.2,0.8,1.7
			c2.1-0.6,4.7-0.7,6.3-2c8.7-6.9,18.2-13.2,25.4-21.4c15.8-18.2,17.1-37,4.1-54.6c-18.6-25-44.5-33.5-74.9-29.6
			c-13.8,1.8-25.7,8.2-37.9,14.4c-30.4,15.5-60.5,18.1-89.7-3.6c-7.8-5.8-16.6-9.9-26.4-11c-8.3-1-16,6.2-14.1,14.3
			c1.2,4.9,3.8,10.2,7.4,13.6c4.2,3.9,9.9,6.6,15.4,8.8c20.8,8.2,42.2,6.4,63.3,1.5C738.9,617.4,750.9,612.2,763.4,608z
			 M819.2,702.6c7.3,5.3,14.1,9.5,19.9,14.7c5.6,5,10.5,10.7,15.1,16.6c10.5,13.4,17.8,28.3,21.9,44.9c2.7,10.8,5.4,21.7,9.1,32.1
			c2,5.4,5.5,10.8,9.8,14.7c9.5,8.6,20,1.4,22.6-6.1c0.8-2.3,1.2-4.9,1.3-7.3c0.4-17.5-4.4-33.7-13.7-48.3
			c-19.9-31.4-47-54.6-81.5-68.8c-3.6-1.5-4.9-3.3-5.2-7.1c-0.6-7.9-1.4-15.9-3-23.7c-1.7-8.1-4.1-16-6.7-23.8c-0.7-2.3-3-4-4.6-6
			c6.9,18.3,3.8,35.9,0,54.1c-11.7-3.5-23.2-3.7-36.1-1.7c12.2,3,23.1,5.6,35,8.5c-3.5,7.6-5.9,14-9.3,19.8
			c-6.6,11.2-13.8,22-20.6,33c-5,8.1-8,16.8-6.5,26.6c0.8,5.2,2.1,10,7.5,12c5.2,1.9,10,0.1,13.1-3.9c5.7-7.3,11.6-14.7,15.5-22.9
			C811.3,742.3,817,723.8,819.2,702.6z M1004.5,774.3c-5.6,1.4-10.7,3.5-15.8,3.6c-16.9,0.4-36-13.1-42.2-29
			c-7.5-19.3-10.6-39.2-7.7-60c3.5-25,14.2-45.5,35.5-59.8c4.6-3.1,9.3-5.9,13.6-9.3c5-4,10.1-8.2,14.4-12.9
			c4.7-5.1,5.6-11.3,2.1-17.6c-2.8-5-11.7-8.2-18.1-6.9c-9.6,1.9-18.3,5.7-26.3,11.4c-32.1,23.1-46.1,55.4-46.8,94
			c-0.2,10,1.4,20.1,3.1,30c5.2,30.4,22,51.9,50.6,63.8c7.9,3.3,16.2,3.8,24.5,1.6C996.8,781.8,1001.2,779.2,1004.5,774.3z
			 M504.8,809c0.3-0.4,0.7-0.8,1-1.2c-0.8-1.1-1.6-2.2-2.4-3.2c-3.7-4.5-7.7-8.8-11.2-13.4c-21.6-27.9-34.1-59.2-31.5-94.8
			c1.3-17.3,5.6-34.4,9.7-51.3c3.1-12.5,8.3-24.5,12.3-36.8c2-6.2,2-12.5-0.5-18.6c-3.8-9.3-14.1-12.4-21.5-5.8
			c-4.7,4.2-9.1,9.3-12.2,14.8c-11.3,20.3-13.3,42.6-11.8,65.2c0.9,14.3,4,28.4,6.1,42.6c3.8,25.5,15.4,47.8,29.5,68.6
			c7.6,11.3,18.2,20.6,27.6,30.7C501.1,807.2,503.1,808,504.8,809z M343.5,580.2c-0.5,0.4-1,0.8-1.5,1.1c0.2,0.7,0.3,1.5,0.6,2.2
			c7.1,13.7,10.7,28.5,13.6,43.6c6.7,34.1-1.8,64.8-19.2,93.9c-4.3,7.1-8.2,14.5-11.6,22c-3.9,8.4-5.8,17.4-4.3,26.7
			c1,6.5,3.5,12.2,10.4,14.5c6.1,2,11.4-0.4,15.4-4.6c3.9-4,7.5-8.5,10.1-13.4c16.4-30.5,18.4-63.8,17.1-97.4
			c-0.5-14-2.9-28.1-8-41.4c-5.1-13.3-10.8-26.4-16.6-39.4C348.2,585.1,345.5,582.8,343.5,580.2z M247.5,697.7
			c9.1,0,18.2,0.8,27.2-0.2c8.7-0.9,17.5-3.2,23-11.3c3.7-5.5,2.5-12.3-2.7-16.3c-8.3-6.4-17.2-5.1-26.1-1.9
			c-8.7,3.2-17.2,6.7-26.4,10.4c-5.4-22.6-3.4-44.8-4-67c-1.5,2.7-2.5,5.3-3,8c-3.4,19-6.8,38-9.9,57c-0.7,4.2-1.8,6-6.6,5.1
			c-5.3-1-10.8-1-16.3-1.4c-0.1,0.5-0.3,1-0.4,1.6c6,5.9,14.6,7,21.4,10.4c0,9.2-0.6,17.8,0.2,26.4c0.7,7.5,2.6,15,5,22.2
			c1.7,5.2,8.8,8.6,13.7,8c5-0.6,8.8-4.4,10.2-10.9c0.6-2.5,0.7-5.3,0.3-7.8C251.5,719.3,249.5,708.7,247.5,697.7z M683,486.6
			c0.5-0.2,0.9-0.3,1.4-0.5c-0.7-3.1-0.9-6.4-2.2-9.2c-8.7-19.6-16.7-39.6-26.8-58.5c-16.8-31.2-40.6-55.9-73.1-71.3
			c-3.3-1.5-6.9-2.6-10.5-3c-9.6-1.1-16.1,5.1-15.8,14.7c0.3,8.4,5.1,14.7,11.2,19.2c8.1,6,16.9,11.3,25.9,15.7
			c36.5,17.8,66.5,42.2,83.7,80.1C678.8,478.2,680.9,482.4,683,486.6z M372.2,485c0.2,0.5,0.4,1,0.6,1.5c3.6-1,7.4-1.7,10.9-3.2
			c10.8-4.5,21.4-9.1,32.1-13.9c34-15.1,63.6-35.8,84.4-67.3c4.9-7.4,8.9-15.6,12.3-23.9c3.1-7.5,1.1-14.4-3.8-18.2
			c-5.2-4-13-3.9-19.7,0.3c-7.2,4.6-12.8,10.7-16.8,18.2c-4.3,7.9-8.2,16-12.2,24c-17.7,35.3-43.5,62.4-80,78.4
			C377.4,482.2,374.8,483.7,372.2,485z M311.5,273.7c-0.3,0.5-0.5,0.9-0.8,1.4c2.8,2,5.3,4.4,8.3,6c12.9,7,25.7,14.1,38.8,20.6
			c29.3,14.4,60,23.2,92.9,21.1c10.2-0.6,20.4-2.7,30.4-4.9c7.9-1.8,12.8-8,12.9-14.1c0-7.2-4.8-13.8-13-15.7
			c-6.5-1.5-13.5-2.6-20.2-2c-10.5,1-20.9,3.6-31.4,5.6c-35.9,7-70.9,5.1-104.2-11.6C320.8,277.9,316.1,275.8,311.5,273.7z M739,235
			c0-0.4,0.1-0.9,0.1-1.3c-3.3-0.5-6.7-1.5-10-1.4c-17.8,0.4-35.5,0.5-53.3,1.7c-30.9,2-59.9,10.7-85.8,28
			c-8.3,5.6-15.8,12.6-22.9,19.8c-4.9,5.1-5,11.8-1.7,16.6c4,5.7,9.8,8.6,16.4,6.8c7.1-2,14.4-4.5,20.5-8.4
			c7.7-4.9,14.3-11.3,21.2-17.3c28.3-24.4,59.9-41.2,98.1-43.1C727.5,236.2,733.3,235.5,739,235z M547.5,74.7
			c-0.4-0.2-0.8-0.4-1.1-0.7c-1.8,2.3-3.9,4.4-5.3,7c-5.8,10.3-11.5,20.7-17,31.1c-16.3,30.9-26.9,63.3-25.9,98.8
			c0.4,12,1.6,23.9,5.9,35.3c2.9,7.6,8.3,11.4,14.9,11.2c5.8-0.2,11.6-5.1,14-11.9c3.4-9.3,3.6-18.9,1.8-28.5
			c-2.1-10.9-4.6-21.8-6.5-32.7c-2.7-15.3-3.2-30.7-1.7-46.2c1.8-19.2,8.3-36.9,16.7-54.1C544.8,80.9,546.1,77.8,547.5,74.7z
			 M669.3,685.1c-0.2-0.5-0.4-0.9-0.7-1.4c-0.6,0.1-1.3,0-1.8,0.2c-19.9,6.8-40.5,9.9-61.3,7.7c-17.2-1.8-33.8-6.7-49.6-14.2
			c-9.7-4.7-19.5-9.4-29.7-12.8c-6.1-2-13.1-2.4-19.5-1.6c-10.9,1.4-15.8,11.9-9.9,21.1c2.5,4,6.6,7.8,10.8,9.9
			c17.3,8.6,35.8,13,55.1,13.7c17.9,0.6,35.5-1,53-4.6c16-3.3,31.9-6.5,46.7-13.8C664.7,688.1,666.9,686.5,669.3,685.1z
			 M711.7,630.2c-0.3,0.2-0.6,0.4-0.9,0.7c0.5,5.4,0.9,10.8,1.6,16.2c2.8,21.1-0.6,41.1-10.2,60c-4.8,9.5-10.6,18.4-15.9,27.6
			c-5.3,9.1-10.4,18.2-11.6,28.9c-0.7,6.5,0.8,12.4,6.5,16.3c5.7,4,12.1,6.1,18.5,1.9c2.9-1.9,5.5-4.9,7.2-8
			c8.2-15.3,12.2-31.9,14.6-48.9c4.2-30.5,3.1-60.6-6.7-90.1C714.2,633.1,712.7,631.7,711.7,630.2z M172.8,614.3
			c-1.9,1-2.3,1.1-2.5,1.3c-0.4,0.5-0.8,1.1-1,1.7c-7.9,19.1-19,36.1-33.3,51.1c-15.4,16.1-33.4,29.1-51,42.5
			c-7.8,5.9-14.8,12.4-18.3,21.9c-3.6,9.8,4.9,21.8,14.8,18.1c4.9-1.8,10.3-3.6,13.9-7.1c10.3-9.9,20.3-20.2,29.3-31.3
			c21.4-26.2,36.1-56.2,46.3-88.3C172.1,621.4,172.2,618.3,172.8,614.3z M1013.9,620.6c-0.4,0.5-0.8,1-1.2,1.5
			c0,0.2-0.1,0.4-0.1,0.5c0.9,1.2,1.8,2.4,2.7,3.6c11.5,14.4,17.5,30.4,14.7,49c-2.2,14.3-6,27.8-16.1,39c-5.1,5.6-9.3,12.2-13,18.8
			c-4,7.1-1.1,16.5,5.5,21.4c5.7,4.2,13.9,3.4,20.1-1.9c8.3-7.2,13.5-16.3,16.6-26.7c5.8-19.5,3.9-38.9-0.7-58.2
			c-3.2-13.5-7.7-26.6-17.3-37.1C1021.7,626.7,1017.6,623.8,1013.9,620.6z M55.6,752.8c2,6.3,6.2,10.4,11.5,13.6
			c23.7,14,49.3,19.4,76.6,15.8c10.3-1.4,20.3-3.5,29.2-9.4c5.7-3.7,9.5-8.8,10.5-15.7c1-6.4-2.3-11.1-8.4-13.4
			c-7.5-2.8-13.6,1-19.9,3.7c-12.5,5.5-24.6,11.7-37.3,16.7c-21.4,8.4-41,3.7-59.2-9.4C57.6,754,56.6,753.4,55.6,752.8z
			 M188.6,591.5c-0.3-0.4-0.7-0.8-1-1.1c-1.3,0.8-2.6,1.6-4,2.3c-3.9,2.1-7.7,4.8-11.9,6.2c-20.6,7.1-40.3,3-59.5-5.4
			c-9.3-4-18.4-8.5-27.8-12.2c-6.2-2.4-14.4,0.1-17.8,4.6c-3.3,4.3-3,12.1,0.7,17.9c3.5,5.4,8.6,8.7,14.8,10.3
			c18.1,4.9,36.5,5.6,54.9,2.5c17.8-3,34.7-8.2,48.3-20.9C186.6,594.5,187.5,592.9,188.6,591.5z M316.3,594.7
			c0.2-0.6,0.4-1.3,0.6-1.9c-4.1-1.8-8-4.2-12.3-5.2c-29.2-7.1-58.7-9.8-88.5-3.9c-4.7,0.9-9.5,1.8-13.9,3.6
			c-6.7,2.6-10.3,9.6-8.9,15.5c1.7,7,6.8,10.6,15.1,10c4.8-0.4,9.6-1.2,14.2-2.6c14.1-4.2,28-9.2,42.1-13c14.4-3.8,29.1-5,44-2.8
			C311.2,594.6,313.7,594.5,316.3,594.7z M443.7,741.7c0.4-0.1,0.8-0.3,1.3-0.4c0-0.8,0.3-1.6,0.1-2.2c-5-17.6-9.7-35.3-15.2-52.7
			c-4.7-14.9-9.8-29.8-19.9-42.2c-3.2-4-7.6-7.5-12.2-9.9c-6.4-3.3-12.5-0.7-15,5.3c-3.3,8.1-2.7,16.5,2.5,23.3
			c5.7,7.5,12.3,14.6,19.4,20.8c10.7,9.3,19,20.2,25.3,32.9C434.2,725.2,439.1,733.4,443.7,741.7z M304.5,763.6
			c-0.3-0.6-0.6-1.1-0.9-1.7c-1.4,0.3-2.7,0.7-4.1,1c-4.9,1-9.7,2.4-14.6,2.8c-19.9,1.7-38.9-3.2-57.7-9c-5.8-1.8-12-2.5-18-2.7
			c-4.8-0.2-9.3,2.1-11.5,6.7c-2,4.2-1,8.8,2.2,12.1c2.5,2.6,5.9,5.4,9.3,6c11.2,2,22.6,3.9,33.9,4.1c16.5,0.4,32.7-3.1,47.7-10.1
			C295.7,770.4,300,766.7,304.5,763.6z"/>
		<path class="st1" d="M763.4,608c-12.5,4.3-24.5,9.4-37.1,12.3c-21.1,4.9-42.4,6.6-63.3-1.5c-5.5-2.2-11.2-4.8-15.4-8.8
			c-3.6-3.4-6.3-8.7-7.4-13.6c-1.9-8,5.8-15.2,14.1-14.3c9.9,1.1,18.7,5.2,26.4,11c29.2,21.6,59.3,19.1,89.7,3.6
			c12.2-6.2,24.1-12.7,37.9-14.4c30.4-3.9,56.3,4.6,74.9,29.6c13.1,17.6,11.7,36.4-4.1,54.6c-7.2,8.3-16.7,14.5-25.4,21.4
			c-1.6,1.3-4.2,1.4-6.3,2c-0.3-0.6-0.5-1.2-0.8-1.7c2.9-2.2,5.8-4.6,8.8-6.7c9.3-6.7,16.3-15.2,20.2-26c5.6-15.5-1.7-31-17.2-36.8
			c-13.9-5.3-27.7-3.9-41.4,0.8c-10.4,3.5-20.7,7.3-31.4,9.8c-14.6,3.4-24-5.8-22.2-20.5C763.5,608.4,763.4,607.9,763.4,608z"/>
		<path class="st1" d="M819.2,702.6c-2.2,21.2-8,39.7-16.3,57.3c-3.9,8.3-9.9,15.6-15.5,22.9c-3.1,4-7.9,5.8-13.1,3.9
			c-5.4-2-6.7-6.8-7.5-12c-1.5-9.8,1.6-18.5,6.5-26.6c6.8-11.1,14-21.9,20.6-33c3.4-5.8,5.8-12.2,9.3-19.8
			c-11.9-2.9-22.8-5.5-35-8.5c12.8-2,24.4-1.7,36.1,1.7c3.8-18.2,7-35.9,0-54.1c1.6,2,3.8,3.8,4.6,6c2.6,7.8,5,15.8,6.7,23.8
			c1.6,7.8,2.4,15.8,3,23.7c0.3,3.8,1.5,5.6,5.2,7.1c34.5,14.2,61.6,37.3,81.5,68.8c9.2,14.6,14.1,30.8,13.7,48.3
			c-0.1,2.5-0.5,5-1.3,7.3c-2.6,7.5-13.1,14.7-22.6,6.1c-4.3-3.9-7.8-9.3-9.8-14.7c-3.8-10.4-6.5-21.3-9.1-32.1
			c-4.1-16.6-11.5-31.5-21.9-44.9c-4.6-5.9-9.6-11.6-15.1-16.6C833.3,712.1,826.5,707.9,819.2,702.6z"/>
		<path class="st2" d="M1004.5,774.3c-3.3,4.9-7.7,7.5-12.9,8.9c-8.3,2.2-16.6,1.7-24.5-1.6c-28.6-11.9-45.4-33.4-50.6-63.8
			c-1.7-9.9-3.3-20-3.1-30c0.7-38.6,14.7-70.8,46.8-94c8-5.7,16.7-9.5,26.3-11.4c6.4-1.2,15.3,2,18.1,6.9c3.5,6.3,2.6,12.5-2.1,17.6
			c-4.3,4.7-9.4,8.9-14.4,12.9c-4.3,3.4-9,6.3-13.6,9.3c-21.3,14.3-32,34.8-35.5,59.8c-2.9,20.7,0.2,40.6,7.7,60
			c6.2,15.9,25.3,29.3,42.2,29C993.7,777.8,998.8,775.6,1004.5,774.3z"/>
		<path class="st1" d="M504.8,809c-1.7-1-3.7-1.8-5-3.1c-9.4-10.1-20-19.4-27.6-30.7c-14.1-20.8-25.7-43.1-29.5-68.6
			c-2.1-14.2-5.2-28.3-6.1-42.6c-1.5-22.5,0.5-44.9,11.8-65.2c3.1-5.5,7.5-10.6,12.2-14.8c7.4-6.6,17.7-3.5,21.5,5.8
			c2.5,6.1,2.5,12.4,0.5,18.6c-4,12.3-9.2,24.3-12.3,36.8c-4.2,16.9-8.4,34.1-9.7,51.3c-2.6,35.6,9.9,66.9,31.5,94.8
			c3.6,4.6,7.5,8.9,11.2,13.4c0.9,1,1.6,2.1,2.4,3.2C505.5,808.2,505.2,808.6,504.8,809z"/>
		<path class="st1" d="M343.5,580.2c2,2.6,4.7,5,6,7.9c5.8,13,11.6,26.1,16.6,39.4c5.1,13.3,7.4,27.4,8,41.4
			c1.3,33.6-0.7,66.8-17.1,97.4c-2.6,4.9-6.3,9.4-10.1,13.4c-4.1,4.2-9.3,6.6-15.4,4.6c-6.9-2.3-9.4-8-10.4-14.5
			c-1.5-9.3,0.5-18.3,4.3-26.7c3.5-7.5,7.3-14.9,11.6-22c17.5-29.1,25.9-59.8,19.2-93.9c-3-15.1-6.5-29.8-13.6-43.6
			c-0.3-0.7-0.4-1.5-0.6-2.2C342.5,580.9,343,580.5,343.5,580.2z"/>
		<path class="st3" d="M247.5,697.7c2,11,4,21.6,5.7,32.2c0.4,2.5,0.3,5.3-0.3,7.8c-1.4,6.5-5.2,10.2-10.2,10.9
			c-4.8,0.6-11.9-2.8-13.7-8c-2.4-7.2-4.2-14.7-5-22.2c-0.8-8.5-0.2-17.2-0.2-26.4c-6.8-3.4-15.4-4.5-21.4-10.4
			c0.1-0.5,0.3-1,0.4-1.6c5.4,0.4,11,0.4,16.3,1.4c4.8,0.9,5.9-0.9,6.6-5.1c3.1-19,6.5-38,9.9-57c0.5-2.7,1.4-5.4,3-8
			c0.6,22.2-1.4,44.4,4,67c9.2-3.6,17.7-7.2,26.4-10.4c8.9-3.2,17.7-4.6,26.1,1.9c5.2,4,6.4,10.8,2.7,16.3
			c-5.5,8.1-14.3,10.4-23,11.3C265.8,698.4,256.6,697.7,247.5,697.7z"/>
		<path class="st4" d="M683,486.6c-2.1-4.2-4.2-8.4-6.2-12.8c-17.2-37.9-47.2-62.3-83.7-80.1c-9.1-4.4-17.8-9.7-25.9-15.7
			c-6.1-4.5-11-10.8-11.2-19.2c-0.3-9.6,6.1-15.8,15.8-14.7c3.6,0.4,7.2,1.5,10.5,3c32.5,15.4,56.3,40.1,73.1,71.3
			c10.1,18.9,18.1,38.9,26.8,58.5c1.3,2.8,1.5,6.1,2.2,9.2C683.9,486.3,683.5,486.5,683,486.6z"/>
		<path class="st5" d="M372.2,485c2.6-1.3,5.1-2.8,7.8-4c36.6-16,62.4-43.1,80-78.4c4-8,7.9-16.1,12.2-24c4-7.4,9.6-13.6,16.8-18.2
			c6.6-4.2,14.5-4.4,19.7-0.3c4.9,3.8,6.9,10.8,3.8,18.2c-3.5,8.2-7.4,16.5-12.3,23.9c-20.8,31.5-50.5,52.1-84.4,67.3
			c-10.6,4.7-21.3,9.4-32.1,13.9c-3.5,1.4-7.2,2.1-10.9,3.2C372.6,486,372.4,485.5,372.2,485z"/>
		<path class="st6" d="M311.5,273.7c4.6,2.2,9.3,4.2,13.8,6.5c33.3,16.7,68.2,18.6,104.2,11.6c10.4-2,20.8-4.6,31.4-5.6
			c6.6-0.6,13.6,0.5,20.2,2c8.2,1.9,13,8.5,13,15.7c0,6.1-4.9,12.3-12.9,14.1c-10,2.3-20.2,4.3-30.4,4.9c-33,2.1-63.7-6.8-92.9-21.1
			c-13.1-6.4-25.9-13.6-38.8-20.6c-3-1.6-5.6-4-8.3-6C311,274.6,311.3,274.1,311.5,273.7z"/>
		<path class="st7" d="M739,235c-5.8,0.5-11.5,1.1-17.3,1.4c-38.2,1.8-69.8,18.6-98.1,43.1c-6.9,6-13.6,12.4-21.2,17.3
			c-6.2,3.9-13.4,6.4-20.5,8.4c-6.7,1.9-12.5-1.1-16.4-6.8c-3.3-4.7-3.3-11.5,1.7-16.6c7-7.2,14.5-14.3,22.9-19.8
			c25.9-17.3,54.9-25.9,85.8-28c17.7-1.2,35.5-1.3,53.3-1.7c3.3-0.1,6.7,0.9,10,1.4C739.1,234.2,739.1,234.6,739,235z"/>
		<path class="st8" d="M547.5,74.7c-1.4,3.1-2.6,6.3-4.2,9.3c-8.5,17.1-14.9,34.9-16.7,54.1c-1.5,15.5-1,30.9,1.7,46.2
			c1.9,11,4.4,21.8,6.5,32.7c1.8,9.6,1.7,19.2-1.8,28.5c-2.5,6.7-8.3,11.7-14,11.9c-6.6,0.2-12-3.6-14.9-11.2
			c-4.3-11.3-5.5-23.2-5.9-35.3c-1.1-35.5,9.6-67.9,25.9-98.8c5.5-10.5,11.2-20.8,17-31.1c1.4-2.5,3.5-4.7,5.3-7
			C546.7,74.2,547.1,74.4,547.5,74.7z"/>
		<path class="st1" d="M669.3,685.1c-2.3,1.4-4.5,3-7,4.2c-14.8,7.2-30.7,10.5-46.7,13.8c-17.5,3.6-35.1,5.2-53,4.6
			c-19.4-0.6-37.8-5-55.1-13.7c-4.2-2.1-8.2-5.9-10.8-9.9c-5.9-9.2-1-19.8,9.9-21.1c6.4-0.8,13.4-0.4,19.5,1.6
			c10.2,3.4,20,8.1,29.7,12.8c15.8,7.5,32.4,12.4,49.6,14.2c20.9,2.2,41.4-1,61.3-7.7c0.6-0.2,1.2-0.1,1.8-0.2
			C668.8,684.2,669,684.7,669.3,685.1z"/>
		<path class="st3" d="M711.7,630.2c1,1.5,2.5,2.9,3,4.6c9.8,29.5,10.9,59.6,6.7,90.1c-2.4,17.1-6.4,33.7-14.6,48.9
			c-1.6,3.1-4.3,6.1-7.2,8c-6.4,4.2-12.8,2.1-18.5-1.9c-5.6-3.9-7.1-9.9-6.5-16.3c1.1-10.7,6.3-19.9,11.6-28.9
			c5.3-9.2,11.1-18.2,15.9-27.6c9.6-18.8,13-38.9,10.2-60c-0.7-5.4-1.1-10.8-1.6-16.2C711.1,630.6,711.4,630.4,711.7,630.2z"/>
		<path class="st3" d="M172.8,614.3c-0.6,4-0.7,7.1-1.6,10c-10.3,32.1-24.9,62.1-46.3,88.3c-9,11-19.1,21.3-29.3,31.3
			c-3.6,3.5-9,5.3-13.9,7.1c-9.9,3.7-18.4-8.3-14.8-18.1c3.5-9.5,10.5-16,18.3-21.9c17.6-13.4,35.6-26.3,51-42.5
			c14.3-15,25.4-32,33.3-51.1c0.2-0.6,0.6-1.2,1-1.7C170.6,615.4,170.9,615.3,172.8,614.3z"/>
		<path class="st3" d="M1013.9,620.6c3.8,3.2,7.9,6.1,11.2,9.8c9.6,10.5,14.1,23.7,17.3,37.1c4.6,19.3,6.5,38.7,0.7,58.2
			c-3.1,10.4-8.3,19.6-16.6,26.7c-6.1,5.3-14.4,6.1-20.1,1.9c-6.6-4.8-9.4-14.3-5.5-21.4c3.7-6.6,8-13.2,13-18.8
			c10.1-11.2,14-24.7,16.1-39c2.8-18.7-3.1-34.7-14.7-49c-0.9-1.2-1.8-2.4-2.7-3.6c-0.1-0.1,0-0.3,0.1-0.5
			C1013,621.6,1013.5,621.1,1013.9,620.6z"/>
		<path class="st1" d="M55.6,752.8c1,0.7,2,1.3,3,2c18.2,13,37.8,17.8,59.2,9.4c12.6-5,24.8-11.2,37.3-16.7
			c6.3-2.8,12.4-6.5,19.9-3.7c6.1,2.2,9.4,6.9,8.4,13.4c-1,6.8-4.8,11.9-10.5,15.7c-8.8,5.8-18.9,8-29.2,9.4
			c-27.3,3.7-52.9-1.7-76.6-15.8C61.7,763.1,57.6,759.1,55.6,752.8z"/>
		<path class="st3" d="M188.6,591.5c-1.1,1.4-2.1,3-3.4,4.2c-13.6,12.7-30.5,17.9-48.3,20.9c-18.5,3.1-36.8,2.4-54.9-2.5
			c-6.2-1.7-11.3-4.9-14.8-10.3c-3.7-5.8-4-13.6-0.7-17.9c3.4-4.4,11.6-7,17.8-4.6c9.4,3.7,18.5,8.2,27.8,12.2
			c19.2,8.3,38.9,12.5,59.5,5.4c4.2-1.4,7.9-4.1,11.9-6.2c1.4-0.7,2.7-1.5,4-2.3C188,590.7,188.3,591.1,188.6,591.5z"/>
		<path class="st1" d="M316.3,594.7c-2.5-0.1-5.1-0.1-7.6-0.5c-14.9-2.2-29.7-1-44,2.8c-14.2,3.8-28.1,8.8-42.1,13
			c-4.6,1.4-9.4,2.2-14.2,2.6c-8.3,0.7-13.4-3-15.1-10c-1.4-5.9,2.3-12.8,8.9-15.5c4.4-1.8,9.2-2.7,13.9-3.6
			c29.8-5.9,59.3-3.2,88.5,3.9c4.3,1,8.2,3.5,12.3,5.2C316.6,593.4,316.5,594,316.3,594.7z"/>
		<path class="st3" d="M443.7,741.7c-4.6-8.4-9.5-16.6-13.7-25.1c-6.3-12.7-14.5-23.6-25.3-32.9c-7.1-6.2-13.7-13.2-19.4-20.8
			c-5.2-6.8-5.8-15.2-2.5-23.3c2.5-6,8.6-8.6,15-5.3c4.6,2.3,9,5.9,12.2,9.9c10,12.4,15.2,27.2,19.9,42.2
			c5.4,17.4,10.2,35.1,15.2,52.7c0.2,0.7,0,1.5-0.1,2.2C444.6,741.4,444.1,741.6,443.7,741.7z"/>
		<path class="st3" d="M304.5,763.6c-4.5,3.1-8.8,6.8-13.7,9.1c-15.1,7-31.2,10.5-47.7,10.1c-11.3-0.3-22.7-2.2-33.9-4.1
			c-3.4-0.6-6.8-3.4-9.3-6c-3.2-3.3-4.1-7.9-2.2-12.1c2.1-4.6,6.7-6.9,11.5-6.7c6.1,0.2,12.3,0.9,18,2.7c18.8,5.8,37.8,10.7,57.7,9
			c4.9-0.4,9.8-1.8,14.6-2.8c1.4-0.3,2.7-0.6,4.1-1C303.9,762.5,304.2,763,304.5,763.6z"/>
	</g>
</g>
</svg>
