<?xml version="1.0" encoding="utf-8"?>
<!-- Generator: Adobe Illustrator 25.0.1, SVG Export Plug-In . SVG Version: 6.00 Build 0)  -->
<svg version="1.1" id="Capa_1" xmlns="http://www.w3.org/2000/svg" xmlns:xlink="http://www.w3.org/1999/xlink" x="0px" y="0px"
	 viewBox="0 0 934 432" style="enable-background:new 0 0 934 432;" xml:space="preserve">
<style type="text/css">
	.st0{fill:#FEFEFE;}
	.st1{fill:#356735;}
	.st2{fill:#FD6734;}
	.st3{fill:#033599;}
	.st4{fill:#FE9935;}
	.st5{fill:#8B302F;}
	.st6{fill:#040404;}
	.st7{fill:#030303;}
	.st8{fill:#050505;}
	.st9{fill:#090909;}
</style>
<g>
	<g>
		<path class="st0" d="M0,0c311.3,0,622.6,0,934,0c0,144,0,287.9,0,432c-311.3,0-622.6,0-934,0C0,288.1,0,144,0,0z M762.6,183.8
			c0.2,0.2,0.5,0.5,0.7,0.7c-0.7,8.8,4.1,13.8,12.1,11.8c6.2-1.6,12.2-4.1,18.2-6.3c6.6-2.3,13.1-2.5,19.6,0.2
			c8.4,3.4,12.1,12.6,9,21.8c-2.4,7.1-7,12.2-12.5,16.4c-0.9,0.7-1.8,1.5-2.7,2.3c0.2,0.3,0.3,0.6,0.5,1c1.1-0.3,2.4-0.4,3.2-1.1
			c4.7-4.2,9.8-8,13.8-12.9c8.6-10.4,8-23.6-0.3-34.2c-11.5-14.9-31.9-18.6-47.9-11.1c-5,2.3-9.6,5.8-14.7,8
			c-14.2,5.9-28.1,6.4-41-4.2c-4.3-3.5-8.9-6.2-14.3-7c-5.5-0.8-9.1,3.8-7.8,9.7c1,4.5,3.8,7.3,7.4,9.3c7,3.9,14.5,5.6,22.3,5.3
			C740.4,192.9,751.7,189.4,762.6,183.8z M334.9,408.1c0.4-0.1,0.8-0.3,1.2-0.4c-0.6-3-0.9-6.2-2-8.9c-7.1-17.8-13.7-35.9-21.8-53.1
			c-12.4-26.5-29.8-48.4-53-64.1c-5.9-4-12.3-7.5-18.9-9.6c-10.1-3.2-17.3,4.5-15.7,15.9c0.8,6,4.2,10.3,7.7,14.5
			c6.7,7.8,15.5,12.1,24,16.7c16.6,8.9,32.1,19.5,45.5,33.6c12.9,13.6,22.1,29.9,29.5,47.6C332.5,403,333.7,405.5,334.9,408.1z
			 M64.4,406.8c0.1,0.3,0.2,0.6,0.4,1c1.6-0.3,3.2-0.5,4.7-1c2.7-0.9,5.4-1.9,8-3.1c19.6-9.2,39.4-18.2,57.3-31.4
			c19.1-14.2,34.9-32,46.3-54.2c2.8-5.4,4.9-11.3,6.3-17.3c1.8-7.6-1.9-14.5-8-16.1c-4.3-1.1-8.4-0.8-12.3,1.9
			c-4.9,3.5-9.6,7.4-12.4,13.1c-5.4,10.6-10.4,21.4-15.6,32.2c-9.2,19-20.7,36-35.9,49.8C92.4,391.2,80.2,398,68,404.6
			C66.8,405.3,65.6,406.1,64.4,406.8z M11.8,204c-0.2,0.2-0.3,0.5-0.5,0.7c0.3,0.4,0.5,0.9,0.9,1.2c4.6,3.2,9,6.7,13.8,9.6
			c19.4,11.8,38.9,23.4,60.5,29.7c24.1,7.1,48.2,8.7,72.5,1.3c6.3-1.9,11.3-7.5,11.5-13.1c0.2-5.5-2.5-12.6-10.1-15.4
			c-5.8-2.2-11.8-3.5-17.9-2.4c-10.6,1.9-21.1,4.2-31.6,6.3c-18.8,3.8-37.5,4.2-56.4,0.1c-13.4-3-25.7-9.2-38-15.7
			C15.1,205.5,13.4,204.8,11.8,204z M217.1,13.1c-0.4-0.3-0.7-0.5-1.1-0.8c-1.9,2.9-4,5.7-5.6,8.8c-4.1,8-7.9,16.1-11.9,24.2
			c-16.5,33.6-26.8,68.8-23.8,107.6c0.7,9.5,2,18.9,5.9,27.5c2.3,5,6.1,8.2,11.5,7.8c4.8-0.4,8.7-3,11-7.8c4.5-9.7,4.9-20,3-30.3
			c-3.4-18.4-7.8-36.7-7.6-55.7c0.1-10.3,0.7-20.7,2-30.9c1.9-15.5,7.9-29.5,13.9-43.4C215.3,17.7,216.2,15.4,217.1,13.1z
			 M383.7,166.9c0-0.3,0.1-0.6,0.1-0.9c-0.5-0.2-1.1-0.6-1.6-0.6c-6.4-0.3-12.8-0.9-19.3-0.9c-16.6,0-33.2,0.4-49.6,3.4
			c-22.6,4.1-43.7,12.6-62.4,27.2c-6.1,4.8-11.7,10.7-16.9,16.8c-4.1,4.8-4.1,11.3-1.4,15.8c3.1,5.2,9.3,7.7,14.9,6.6
			c9.3-1.8,17.1-6.8,24-13.5c11.5-11,22.8-22.2,35.9-31c18.4-12.4,38.1-20,59.7-21.4C372.7,168,378.2,167.4,383.7,166.9z
			 M792.6,239.8c0.2,0,0.4-0.1,0.6,0c15.4,9.3,24.3,24.2,29.3,42.2c1.8,6.5,2.9,13.2,5,19.6c1.1,3.3,3.2,6.6,5.5,8.9
			c3.7,3.7,9.4,1.8,11.3-3.2c0.6-1.5,0.8-3.2,0.9-4.9c0.1-12.6-3.8-23.6-10.5-33.6c-10.5-15.5-23.6-27.3-39.9-34.6
			c-0.8-0.4-1.9-1.4-2.1-2.3c-1.3-8.1-2.3-16.3-3.6-24.4c-0.5-3.1-1.7-6.2-4.8-8.7c4.2,11.1,2.7,21.3,0.6,31.9
			c-6.2-2.2-12.2-2.1-18.2-0.9c5.7,1.5,11.4,3,17.9,4.7c-2.4,5.2-4.2,9.7-6.4,13.9c-3.5,6.6-7.3,12.9-10.8,19.4
			c-2.2,4.1-2.7,8.6-2.1,13.3c0.4,2.8,1.2,5.3,3.8,6.4c2.6,1.1,5,0.2,6.6-1.9c2.6-3.3,5.5-6.7,7.2-10.6
			C787.9,263.9,791.4,252.2,792.6,239.8z M890.1,280.4c-2.9,0.8-5.5,2-8.1,2.1c-9,0.3-19.5-7.8-22.3-17.3c-1.7-5.8-3.3-11.7-4-17.8
			c-1.9-16.4,0.9-31.7,11.3-44.2c3.8-4.6,9-7.8,13.5-11.8c3.1-2.8,6.3-5.6,9-8.9c2.3-2.8,2.5-6.4,0.6-9.6c-2-3.2-5.3-4.8-8.5-4
			c-4.4,1-8.9,2.6-12.7,5.2c-11.3,7.6-18.8,19-23.1,32.6c-5.5,17.3-4.7,34.8,0.9,51.7c4.4,13,13.2,22.2,25.4,26.6
			C879.4,287.9,886.3,286,890.1,280.4z M645.5,304.6c0.2-0.3,0.5-0.6,0.7-0.9c-0.7-0.9-1.4-1.8-2.1-2.7
			c-7.6-9.3-13.7-19.7-17.7-31.5c-6.3-18.4-4.7-36.9-0.2-55.3c2.2-8.8,5.2-17.4,7.8-26.1c1.1-3.7,1.1-7.5-0.3-11.1
			c-2.1-5.2-7.4-6.9-11.2-3.1c-2.5,2.4-4.7,5.3-6.3,8.4c-6.1,11.9-7.1,25-6.3,38.3c0.8,12.9,2.4,25.7,6.5,37.9
			c5.5,16.5,13.5,31.2,25.5,43C642.9,302.8,644.2,303.6,645.5,304.6z M560.7,171.8c-0.1,0.2-0.3,0.4-0.4,0.6
			c1.9,6.4,4,12.8,5.6,19.2c3.9,15.3,3.8,30.5-1.5,45.3c-2.1,6-4.9,11.7-7.7,17.3c-3.7,7.2-7.5,14.4-8,22.9
			c-0.1,2.2,0.2,4.5,0.6,6.6c1.5,7.2,8.1,8.6,12.7,4.3c6-5.6,8.6-13.6,10.6-21.4c5.1-19.8,5.9-39.9,1.7-60.1
			c-2.2-10.4-5.6-20.3-10.2-29.6C563.3,175.1,561.9,173.5,560.7,171.8z M505.9,189.9c-0.2,0-0.5,0-0.7-0.1c-0.4,1.7-1,3.3-1.3,5
			c-1.8,11-3.5,22-5.2,33c-0.3,2.3-0.9,3.3-3.3,2.8c-2.9-0.6-5.8-0.6-8.7-0.8c-0.1,0.5-0.2,0.9-0.4,1.4c3.8,1.9,7.5,3.8,11.3,5.7
			c0,2.4,0,4.8,0,7.2c0,7.2,0,14.3,2.8,21c1.4,3.3,4.1,4.3,7,4.4c3,0.1,4.6-2.3,5.3-5.2c0.5-1.9,0.7-4,0.4-5.9
			c-0.8-6.1-1.9-12.3-3-18.6c1.3,0.1,2.7,0.2,4.1,0.2c3.5,0,7.1,0.4,10.6-0.2c4.4-0.7,8.8-1.9,11.6-6.4c2.1-3.3,1.4-7.3-1.4-9.7
			c-4.4-3.6-9-2.8-13.6-0.9c-4.6,1.8-9,3.9-13.9,6C504.8,215.8,505.9,202.8,505.9,189.9z M470.9,192.3c-0.3-0.1-0.5-0.2-0.8-0.3
			c-0.3,0.5-0.8,0.9-1,1.4c-4.4,11.7-10.5,22.2-18.8,31c-4.4,4.6-9,9-13.7,13.3c-4.9,4.5-10.2,8.5-15.1,13
			c-3.5,3.3-6.5,7.2-6.7,12.7c-0.2,4.8,3.4,8.7,7.6,7.5c3-0.8,6.3-2.3,8.5-4.6c5.2-5.4,10.2-11.3,14.7-17.4
			c11.2-15.2,19-32.4,24.4-51C470.5,196.1,470.6,194.2,470.9,192.3z M736.5,196.8c-0.2,0.1-0.4,0.2-0.5,0.3
			c0.3,7.2,1.1,14.4,0.8,21.6c-0.5,12.8-5.5,23.8-11.5,34.5c-2.7,4.7-5.3,9.6-7.1,14.7c-1.2,3.3-1.4,7.2-1,10.7
			c0.5,4.8,4.2,6.7,8.1,7.3c3.3,0.5,5.9-1.2,7.6-4.3c1.2-2.3,2.4-4.7,3.2-7.2c7.5-23.9,8.9-48,2.2-72.4
			C737.8,200.3,737.1,198.6,736.5,196.8z M894.3,192.4c0.4,0.6,0.9,1.2,1.3,1.8c0.4,0.6,0.9,1.2,1.3,1.9c5.5,8,8,16.9,6.6,27
			c-1.1,8.3-3.2,16.1-8.4,22.5c-2.7,3.3-4.9,7.1-6.9,11c-2.1,4.1-0.6,9.5,2.8,12.3c3,2.4,7.3,2,10.6-1c4.2-3.9,7.1-8.9,8.6-14.8
			c4.5-18,1.6-35-6-51.2C902.2,197.6,899.6,193.1,894.3,192.4z M409.2,272.2c-0.3,0.3-0.5,0.5-0.8,0.8c2.1,2.2,4,4.9,6.5,6.5
			c8.3,5.7,17.3,9.2,27.1,9.9c8.7,0.7,17.2-0.1,25.4-3.8c4.2-1.9,7.6-4.8,8.8-9.9c1.1-4.3-0.7-7.6-4.5-9.1c-2.9-1.1-5.4-0.1-7.9,1.1
			c-7.6,3.7-15,7.8-22.7,11.1c-7.9,3.4-15.9,3-23.5-1.4C414.8,275.8,412,274,409.2,272.2z M479.3,178.6c-0.2-0.3-0.4-0.5-0.6-0.8
			c-1.4,0.9-2.7,1.8-4.1,2.7c-4.5,3-9.5,4.2-14.8,4.3c-8.1,0.2-15.5-2.5-22.8-6.2c-4.1-2.1-8.3-4.2-12.5-6c-3.3-1.4-7.7,0-9.5,2.6
			c-1.8,2.6-1.9,7.7,0.6,10.6c2.1,2.5,5,4.7,7.9,5.7c9.4,3.2,19.2,3.3,28.9,1.4c9.1-1.8,17.7-4.7,24.7-11.8
			C478,180.3,478.6,179.4,479.3,178.6z M546.2,180.3c0.1-0.4,0.3-0.8,0.4-1.2c-2.1-1-4.2-2.4-6.4-3c-12-3.5-24.3-4.7-36.7-3.9
			c-5.4,0.4-10.8,1.7-16.1,3.3c-4.8,1.4-6.9,6.1-5.6,10.5c1.1,3.6,4.4,5.7,8.8,4.6c6-1.5,11.9-3.5,17.7-5.7
			c9.9-3.8,20.1-5.8,30.6-5.3C541.4,179.7,543.8,180.1,546.2,180.3z M613.5,265.6c0.2-0.1,0.4-0.2,0.6-0.3c0-0.4,0.1-0.8,0.1-1.2
			c-2.3-9-4.5-18.1-7-27c-2.6-9.5-5.3-19.1-10.8-27.1c-1.8-2.7-4.4-5-7-6.7c-3.3-2-6.6-0.6-7.9,2.9c-1.8,4.9-1.5,9.8,1.4,14
			c2.9,4.1,6.2,8.1,9.8,11.5c5.9,5.5,10.3,12.1,13.7,19.7C608.5,256.2,611.1,260.8,613.5,265.6z M540.2,278.4
			c-0.2-0.3-0.3-0.6-0.5-0.9c-3.2,0.7-6.4,1.6-9.7,1.9c-10.4,1-20.3-1.7-30.1-5.1c-3.1-1.1-6.5-1.5-9.8-1.7c-3-0.2-5.9,2.3-6.4,4.7
			c-0.7,3.2,1,7.2,3.8,8.7c1.3,0.7,2.6,1.3,4,1.6c13.9,3.1,27.5,2.5,40.7-3.7C535.1,282.6,537.5,280.3,540.2,278.4z M698.3,240.6
			c-0.9-0.5-1.1-0.7-1.2-0.6c-11.8,4-22.9,2.3-33.8-3.9c-2.7-1.5-5.6-2.5-8.6-3.2c-2.7-0.7-5.4,0.5-6.1,3.5
			c-0.6,2.8,1.1,5.3,3.5,6.3c4.3,1.7,8.6,3.4,13,4.1c8.5,1.4,16.9-0.4,25.2-2.8C692.9,243.1,695.3,241.9,698.3,240.6z"/>
		<path class="st1" d="M334.9,408.1c-1.2-2.6-2.5-5.2-3.6-7.9c-7.4-17.7-16.5-34.1-29.5-47.6c-13.4-14.1-28.9-24.7-45.5-33.6
			c-8.6-4.6-17.3-8.9-24-16.7c-3.6-4.1-6.9-8.5-7.7-14.5c-1.5-11.4,5.7-19.1,15.7-15.9c6.6,2.1,13,5.6,18.9,9.6
			c23.2,15.7,40.7,37.6,53,64.1c8.1,17.2,14.7,35.3,21.8,53.1c1.1,2.8,1.4,5.9,2,8.9C335.7,407.9,335.3,408,334.9,408.1z"/>
		<path class="st2" d="M64.4,406.8c1.2-0.7,2.3-1.5,3.5-2.2c12.3-6.6,24.5-13.4,35.2-23.1c15.2-13.8,26.7-30.8,35.9-49.8
			c5.2-10.7,10.2-21.6,15.6-32.2c2.9-5.6,7.5-9.6,12.4-13.1c3.8-2.7,8-3,12.3-1.9c6.1,1.6,9.8,8.5,8,16.1c-1.4,6-3.6,11.9-6.3,17.3
			c-11.4,22.2-27.2,39.9-46.3,54.2c-17.8,13.3-37.6,22.2-57.3,31.4c-2.6,1.2-5.3,2.2-8,3.1c-1.5,0.5-3.1,0.7-4.7,1
			C64.7,407.4,64.6,407.1,64.4,406.8z"/>
		<path class="st3" d="M11.8,204c1.6,0.8,3.3,1.5,4.9,2.3c12.2,6.5,24.5,12.7,38,15.7c18.8,4.1,37.6,3.7,56.4-0.1
			c10.5-2.1,21.1-4.5,31.6-6.3c6.1-1.1,12.1,0.2,17.9,2.4c7.6,2.9,10.3,9.9,10.1,15.4c-0.2,5.6-5.2,11.2-11.5,13.1
			c-24.3,7.3-48.5,5.8-72.5-1.3c-21.6-6.4-41.1-17.9-60.5-29.7c-4.8-2.9-9.2-6.4-13.8-9.6c-0.4-0.3-0.6-0.8-0.9-1.2
			C11.5,204.5,11.6,204.2,11.8,204z"/>
		<path class="st4" d="M217.1,13.1c-0.9,2.3-1.8,4.6-2.8,6.9c-6,13.9-12.1,27.9-13.9,43.4c-1.2,10.2-1.8,20.6-2,30.9
			c-0.2,19,4.2,37.3,7.6,55.7c1.9,10.3,1.5,20.7-3,30.3c-2.3,4.9-6.1,7.4-11,7.8c-5.4,0.4-9.2-2.7-11.5-7.8
			c-3.9-8.6-5.2-18-5.9-27.5c-3-38.8,7.3-74.1,23.8-107.6c4-8.1,7.8-16.2,11.9-24.2c1.6-3.1,3.7-5.9,5.6-8.8
			C216.4,12.6,216.7,12.8,217.1,13.1z"/>
		<path class="st5" d="M383.7,166.9c-5.5,0.5-11,1.2-16.6,1.5c-21.6,1.3-41.3,9-59.7,21.4c-13,8.8-24.4,20-35.9,31
			c-7,6.7-14.7,11.7-24,13.5c-5.6,1.1-11.7-1.3-14.9-6.6c-2.7-4.5-2.7-11,1.4-15.8c5.2-6.1,10.7-12,16.9-16.8
			c18.7-14.6,39.8-23.1,62.4-27.2c16.5-3,33-3.4,49.6-3.4c6.4,0,12.8,0.5,19.3,0.9c0.5,0,1.1,0.4,1.6,0.6
			C383.8,166.3,383.7,166.6,383.7,166.9z"/>
		<path class="st6" d="M762.6,183.8c-10.8,5.7-22.2,9.1-34.2,9.6c-7.8,0.3-15.3-1.4-22.3-5.3c-3.5-2-6.3-4.8-7.4-9.3
			c-1.4-5.9,2.3-10.5,7.8-9.7c5.4,0.8,10.1,3.5,14.3,7c12.9,10.6,26.8,10.1,41,4.2c5.1-2.1,9.6-5.6,14.7-8
			c16-7.5,36.4-3.8,47.9,11.1c8.3,10.7,8.9,23.8,0.3,34.2c-4.1,4.9-9.1,8.7-13.8,12.9c-0.8,0.7-2.1,0.7-3.2,1.1
			c-0.2-0.3-0.3-0.6-0.5-1c0.9-0.8,1.8-1.5,2.7-2.3c5.5-4.3,10.1-9.3,12.5-16.4c3.1-9.2-0.7-18.3-9-21.8c-6.5-2.7-13.1-2.5-19.6-0.2
			c-6.1,2.1-12,4.7-18.2,6.3c-8,2-12.8-2.9-12.1-11.8c0-0.3,0-0.6,0-0.9C763.1,183.6,762.8,183.7,762.6,183.8z"/>
		<path class="st6" d="M792.6,239.8c-1.3,12.4-4.7,24.1-9.7,35.3c-1.8,3.9-4.6,7.3-7.2,10.6c-1.7,2.1-4.1,3.1-6.6,1.9
			c-2.6-1.1-3.4-3.6-3.8-6.4c-0.6-4.7-0.1-9.2,2.1-13.3c3.5-6.5,7.4-12.8,10.8-19.4c2.2-4.2,4-8.7,6.4-13.9
			c-6.5-1.7-12.2-3.2-17.9-4.7c6-1.2,12-1.3,18.2,0.9c2.2-10.6,3.7-20.8-0.6-31.9c3.1,2.5,4.3,5.5,4.8,8.7
			c1.4,8.1,2.4,16.3,3.6,24.4c0.1,0.9,1.2,1.9,2.1,2.3c16.3,7.3,29.4,19.1,39.9,34.6c6.7,9.9,10.7,21,10.5,33.6
			c0,1.6-0.3,3.4-0.9,4.9c-1.9,5-7.6,6.9-11.3,3.2c-2.4-2.4-4.5-5.6-5.5-8.9c-2.1-6.4-3.2-13.1-5-19.6c-5-18-13.9-32.9-29.3-42.2
			C793.1,239.7,792.8,239.8,792.6,239.8z"/>
		<path class="st7" d="M890.1,280.4c-3.8,5.6-10.7,7.5-18.1,4.7c-12.2-4.5-21-13.6-25.4-26.6c-5.6-16.9-6.4-34.4-0.9-51.7
			c4.3-13.7,11.8-25,23.1-32.6c3.8-2.5,8.3-4.1,12.7-5.2c3.2-0.7,6.5,0.8,8.5,4c1.9,3.2,1.7,6.9-0.6,9.6c-2.7,3.3-5.9,6.1-9,8.9
			c-4.5,4-9.7,7.2-13.5,11.8c-10.4,12.5-13.2,27.8-11.3,44.2c0.7,6,2.3,12,4,17.8c2.9,9.5,13.4,17.6,22.3,17.3
			C884.6,282.5,887.2,281.2,890.1,280.4z"/>
		<path class="st6" d="M645.5,304.6c-1.3-1-2.6-1.9-3.8-3c-12-11.8-20-26.5-25.5-43c-4.1-12.2-5.7-25-6.5-37.9
			c-0.8-13.3,0.2-26.4,6.3-38.3c1.6-3.1,3.9-6,6.3-8.4c3.9-3.8,9.2-2.1,11.2,3.1c1.4,3.7,1.4,7.4,0.3,11.1
			c-2.6,8.7-5.6,17.3-7.8,26.1c-4.5,18.4-6,36.9,0.2,55.3c4,11.8,10.1,22.1,17.7,31.5c0.7,0.9,1.4,1.8,2.1,2.7
			C646,304,645.7,304.3,645.5,304.6z"/>
		<path class="st6" d="M560.7,171.8c1.2,1.7,2.5,3.3,3.5,5.2c4.7,9.3,8.1,19.2,10.2,29.6c4.2,20.2,3.5,40.3-1.7,60.1
			c-2,7.9-4.6,15.8-10.6,21.4c-4.7,4.4-11.3,3-12.7-4.3c-0.4-2.2-0.7-4.4-0.6-6.6c0.5-8.5,4.3-15.7,8-22.9
			c2.9-5.6,5.6-11.4,7.7-17.3c5.3-14.9,5.4-30.1,1.5-45.3c-1.7-6.5-3.7-12.8-5.6-19.2C560.5,172.2,560.6,172,560.7,171.8z"/>
		<path class="st6" d="M505.9,189.9c-0.1,12.9-1.1,25.9,1.7,38.9c4.8-2.1,9.3-4.2,13.9-6c4.6-1.8,9.2-2.7,13.6,0.9
			c2.9,2.4,3.5,6.4,1.4,9.7c-2.8,4.5-7.2,5.6-11.6,6.4c-3.5,0.6-7.1,0.2-10.6,0.2c-1.4,0-2.8-0.1-4.1-0.2c1,6.3,2.1,12.4,3,18.6
			c0.3,1.9,0,4-0.4,5.9c-0.7,2.8-2.3,5.3-5.3,5.2c-2.9-0.1-5.6-1-7-4.4c-2.8-6.7-2.8-13.9-2.8-21c0-2.4,0-4.9,0-7.2
			c-3.8-1.9-7.5-3.8-11.3-5.7c0.1-0.5,0.2-0.9,0.4-1.4c2.9,0.2,5.9,0.3,8.7,0.8c2.4,0.5,2.9-0.6,3.3-2.8c1.7-11,3.4-22,5.2-33
			c0.3-1.7,0.8-3.3,1.3-5C505.4,189.8,505.7,189.9,505.9,189.9z"/>
		<path class="st6" d="M470.9,192.3c-0.3,1.9-0.4,3.8-1,5.6c-5.4,18.6-13.2,35.8-24.4,51c-4.5,6.1-9.5,12-14.7,17.4
			c-2.2,2.3-5.5,3.8-8.5,4.6c-4.2,1.2-7.7-2.7-7.6-7.5c0.2-5.5,3.2-9.4,6.7-12.7c4.9-4.5,10.1-8.6,15.1-13
			c4.7-4.3,9.4-8.6,13.7-13.3c8.3-8.8,14.4-19.3,18.8-31c0.2-0.5,0.6-0.9,1-1.4C470.4,192.1,470.6,192.2,470.9,192.3z"/>
		<path class="st6" d="M736.5,196.8c0.6,1.8,1.3,3.5,1.8,5.3c6.7,24.4,5.3,48.5-2.2,72.4c-0.8,2.5-2,4.9-3.2,7.2
			c-1.7,3.1-4.3,4.8-7.6,4.3c-3.9-0.6-7.6-2.5-8.1-7.3c-0.4-3.5-0.1-7.5,1-10.7c1.8-5.1,4.4-10,7.1-14.7c6-10.7,11-21.7,11.5-34.5
			c0.3-7.2-0.5-14.4-0.8-21.6C736.1,197,736.3,196.9,736.5,196.8z"/>
		<path class="st6" d="M894.3,192.4c5.3,0.8,7.8,5.2,9.8,9.4c7.6,16.2,10.5,33.3,6,51.2c-1.4,5.8-4.3,10.8-8.6,14.8
			c-3.2,3-7.6,3.4-10.6,1c-3.4-2.8-4.9-8.2-2.8-12.3c1.9-3.9,4.2-7.7,6.9-11c5.3-6.5,7.3-14.3,8.4-22.5c1.4-10.1-1.2-19-6.6-27
			c-0.4-0.6-0.8-1.3-1.3-1.9C895.2,193.5,894.8,193,894.3,192.4z"/>
		<path class="st6" d="M409.2,272.2c2.8,1.7,5.5,3.6,8.4,5.2c7.6,4.4,15.6,4.8,23.5,1.4c7.7-3.3,15.2-7.4,22.7-11.1
			c2.5-1.2,5-2.2,7.9-1.1c3.8,1.5,5.6,4.7,4.5,9.1c-1.3,5.1-4.6,8-8.8,9.9c-8.1,3.7-16.7,4.5-25.4,3.8c-9.8-0.7-18.8-4.2-27.1-9.9
			c-2.4-1.7-4.3-4.3-6.5-6.5C408.7,272.7,409,272.5,409.2,272.2z"/>
		<path class="st6" d="M479.3,178.6c-0.7,0.8-1.3,1.8-2.1,2.5c-7,7.1-15.7,10-24.7,11.8c-9.7,1.9-19.4,1.8-28.9-1.4
			c-2.9-1-5.7-3.3-7.9-5.7c-2.5-2.9-2.4-8.1-0.6-10.6c1.8-2.6,6.1-4,9.5-2.6c4.2,1.8,8.4,3.9,12.5,6c7.2,3.7,14.6,6.3,22.8,6.2
			c5.3-0.1,10.2-1.2,14.8-4.3c1.4-0.9,2.7-1.8,4.1-2.7C478.9,178,479.1,178.3,479.3,178.6z"/>
		<path class="st6" d="M546.2,180.3c-2.4-0.3-4.8-0.7-7.2-0.8c-10.5-0.5-20.7,1.5-30.6,5.3c-5.8,2.2-11.7,4.2-17.7,5.7
			c-4.4,1.1-7.6-1-8.8-4.6c-1.4-4.4,0.8-9.1,5.6-10.5c5.3-1.5,10.7-2.9,16.1-3.3c12.4-0.8,24.7,0.4,36.7,3.9c2.2,0.6,4.3,2,6.4,3
			C546.5,179.5,546.4,179.9,546.2,180.3z"/>
		<path class="st8" d="M613.5,265.6c-2.4-4.7-5-9.3-7.1-14.2c-3.4-7.6-7.8-14.2-13.7-19.7c-3.6-3.4-6.8-7.4-9.8-11.5
			c-2.9-4.1-3.2-9.1-1.4-14c1.3-3.4,4.6-4.9,7.9-2.9c2.7,1.6,5.2,4,7,6.7c5.5,8.1,8.2,17.6,10.8,27.1c2.5,9,4.7,18,7,27
			c0.1,0.4,0,0.8-0.1,1.2C613.9,265.4,613.7,265.5,613.5,265.6z"/>
		<path class="st7" d="M540.2,278.4c-2.6,1.9-5.1,4.2-8,5.5c-13.1,6.2-26.8,6.8-40.7,3.7c-1.4-0.3-2.7-0.9-4-1.6
			c-2.8-1.5-4.5-5.6-3.8-8.7c0.5-2.4,3.4-4.8,6.4-4.7c3.3,0.2,6.7,0.6,9.8,1.7c9.8,3.4,19.7,6.1,30.1,5.1c3.3-0.3,6.5-1.3,9.7-1.9
			C539.9,277.8,540,278.1,540.2,278.4z"/>
		<path class="st9" d="M698.3,240.6c-3,1.2-5.4,2.5-8,3.2c-8.2,2.4-16.6,4.3-25.2,2.8c-4.4-0.7-8.8-2.4-13-4.1
			c-2.4-0.9-4.2-3.5-3.5-6.3c0.7-3,3.4-4.2,6.1-3.5c2.9,0.7,5.9,1.7,8.6,3.2c10.8,6.2,22,7.9,33.8,3.9
			C697.2,239.9,697.4,240.1,698.3,240.6z"/>
		<path class="st0" d="M762.6,183.8c0.2-0.1,0.5-0.1,0.7-0.2c0,0.3,0,0.6,0,0.9C763,184.2,762.8,184,762.6,183.8z"/>
	</g>
</g>
</svg>
