<?xml version="1.0" encoding="utf-8"?>
<!-- Generator: Adobe Illustrator 25.0.1, SVG Export Plug-In . SVG Version: 6.00 Build 0)  -->
<svg version="1.1" id="Capa_1" xmlns="http://www.w3.org/2000/svg" xmlns:xlink="http://www.w3.org/1999/xlink" x="0px" y="0px"
	 viewBox="0 0 368.1 368.1" style="enable-background:new 0 0 368.1 368.1;" xml:space="preserve">
<style type="text/css">
	.st0{fill:#FFFFFF;}
	.st1{fill:#4A683C;}
	.st2{fill:#E69841;}
	.st3{fill:#DE683B;}
	.st4{fill:#213995;}
	.st5{fill:#793433;}
	.st6{fill:#0E0E0E;}
	.st7{fill:#0C0C0C;}
	.st8{fill:#0F0F0F;}
	.st9{fill:#0F0E0E;}
	.st10{fill:#100F0F;}
	.st11{fill:#0D0D0D;}
</style>
<g>
	<g>
		<path class="st0" d="M0,0c122.7,0,245.4,0,368.1,0c0,122.7,0,245.4,0,368.1c-122.7,0-245.4,0-368.1,0C0,245.4,0,122.7,0,0z
			 M273.7,246.7c-0.4-1.8-0.6-3.6-1.3-5.4c-2.2-4.9-4.4-9.9-6.6-14.9c-2.2-4.9-4.3-9.8-6.8-14.6c-2-3.8-3.9-7.7-6.4-11.3
			c-2.2-3.3-4.4-6.6-6.9-9.6c-2-2.4-3.9-4.8-6.2-6.9c-2.2-2.1-4.4-4.2-6.8-6.2c-4.3-3.7-8.9-6.8-13.8-9.6c-2.9-1.6-6-3-9.2-4.1
			c-1.4-0.5-2.9-0.9-4.4-0.9c-3.8-0.1-7.2,2-8,6.3c-0.4,2.4-0.1,4.6,0.9,6.8c0.9,1.9,2.2,3.6,3.6,5.2c3.2,3.6,7.2,6,11.4,8.2
			c4.8,2.4,9.6,4.7,14.3,7.2c4.4,2.3,8.7,5,12.8,8c4.8,3.4,9.2,7.2,13.2,11.5c2.2,2.4,4.4,5,6.4,7.6c2.6,3.3,4.7,7,6.7,10.7
			c2,3.6,3.7,7.4,5.6,11.1c0.1,0.2,0.2,0.5,0.4,0.7C272.9,247,273.2,247,273.7,246.7z M191.5,4.7c-0.3,0.3-0.5,0.6-0.8,0.9
			c-1.5,1.7-2.6,3.7-3.7,5.7c-2.2,3.9-4.3,7.7-6.4,11.7c-2.8,5.3-5.6,10.7-8,16.2c-2.2,4.9-4,9.9-5.5,15.1
			c-1.3,4.1-2.1,8.3-2.8,12.5c-0.7,4.4-1.1,8.8-1.2,13.2c-0.1,3.9,0.1,7.8,0.4,11.6c0.2,1.7,0.4,3.4,0.7,5.1
			c0.6,3.8,1.8,7.4,3.3,10.9c0.9,2.2,2.5,3.9,4.9,4.6c3.7,1.1,8.4-0.5,10.3-4.1c0.5-1,1-2,1.4-3.1c1.9-5.1,2-10.4,0.9-15.6
			c-1.3-6.4-2.7-12.9-4-19.3c-0.7-3.4-1.1-7-1.2-10.5c-0.2-6.5,0-13,0.7-19.5c0.3-3.4,0.9-6.7,1.8-10c1.3-5.2,3.2-10.1,5.6-14.9
			c1.1-2.2,2.2-4.5,3.2-6.8c0.5-1,0.9-2.1,1.4-3.2C191.9,4.9,191.7,4.8,191.5,4.7z M87.9,247c2.1-0.6,4.2-1,6.2-1.8
			c7.7-3.2,15.3-6.6,23-10c6.3-2.8,12.4-6,18.2-9.7c4.9-3.2,9.5-6.7,13.8-10.7c2.1-1.9,4.2-3.9,6.1-6.1c2.3-2.6,4.5-5.2,6.6-8
			c1.7-2.3,3.1-4.7,4.6-7.1c2.1-3.4,3.8-6.9,5.2-10.6c0.6-1.6,0.9-3.2,0.7-4.8c-0.3-2.8-1.6-5-4.2-6.1c-3.3-1.5-6.7-1.4-9.9,0.5
			c-1.1,0.7-2.1,1.4-3.2,2.1c-2.1,1.4-3.8,3.2-5.1,5.3c-0.8,1.3-1.6,2.6-2.3,3.9c-2.4,4.4-4.8,8.9-7.2,13.4
			c-1.9,3.6-3.8,7.1-6.1,10.5c-2.1,3.1-4.1,6.3-6.5,9.1c-2.1,2.6-4.2,5.2-6.7,7.5c-2.2,2-4.3,4-6.6,6c-2.5,2.1-5.2,4-7.9,5.7
			c-4.5,2.8-9.1,5.2-13.9,7.5c-1.5,0.7-3,1.5-4.5,2.2C87.5,246.1,87.5,246.1,87.9,247z M51.2,122.6c1.1,1.2,2.3,2.2,3.6,2.9
			c2.9,1.5,5.7,3.1,8.6,4.7c4.4,2.4,8.8,4.7,13.2,7c4.1,2.2,8.4,4,12.8,5.7c8.4,3.3,17.1,5.8,26.1,7.2c3.8,0.6,7.6,0.9,11.4,1
			c2.9,0,5.8,0,8.7-0.2c2.3-0.1,4.6-0.4,6.9-0.7c4.2-0.6,8.3-1.7,12.3-3c2.7-0.9,4.7-2.6,5.4-5.5c0.8-3.2-0.1-7.4-3.8-9.7
			c-1-0.6-2.2-1.1-3.3-1.5c-3.8-1.4-7.7-2-11.7-1.3c-4.5,0.7-8.9,1.5-13.4,2.3c-4.4,0.8-8.8,1.6-13.2,2.3c-4.1,0.7-8.2,0.9-12.4,1.1
			c-3.6,0.1-7.1,0-10.7-0.3c-4.3-0.3-8.6-0.9-12.8-1.9c-5.9-1.3-11.5-3.5-17-6c-2.4-1.1-4.8-2.2-7.2-3.4c-1-0.5-2-0.9-3-1.3
			C51.4,122.2,51.3,122.4,51.2,122.6z M306.6,99.2c-0.2-0.3-0.3-0.5-0.4-0.5c-0.4-0.1-0.8-0.3-1.2-0.3c-2.5-0.1-4.9-0.3-7.4-0.4
			c-4.1-0.1-8.2-0.1-12.2-0.1c-6.6,0-13.3,0.3-19.9,1c-4.3,0.4-8.6,1.1-12.9,2c-9.3,1.9-18.2,5-26.7,9.3c-4.7,2.4-9.2,5.2-13.5,8.3
			c-1.8,1.3-3.5,2.8-5.2,4.2c-2,1.7-3.6,3.8-4.7,6.1c-2.5,5.4,1.2,11.5,7.2,11.7c5.2,0.2,9.9-1.3,14.2-4.2c1.2-0.8,2.3-1.6,3.4-2.5
			c2.3-1.8,4.5-3.6,6.7-5.5c2.2-1.8,4.3-3.6,6.5-5.4c2.2-1.7,4.4-3.4,6.6-5c4.2-3.1,8.6-5.7,13.2-8.1c4.3-2.2,8.7-4.1,13.2-5.6
			c7.1-2.4,14.5-3.5,21.9-4.1c3-0.2,5.9-0.4,8.9-0.7C305,99.4,305.7,99.3,306.6,99.2z M260.8,287.3c0.1,1.1,0.1,2.1,0.2,3.1
			c0.4,2.9,2.6,4.8,5.5,4.8c0.9,0,1.8-0.1,2.7-0.3c1.5-0.3,3.1-0.8,4.6-1.2c2.8-0.9,5.6-1.8,8.3-2.7c3.1-1,6.2-1.2,9.3-0.7
			c2,0.3,3.9,0.9,5.6,1.9c3.3,2.1,5,5,4.9,9c-0.1,2.8-1.2,5.2-2.9,7.4c-1.9,2.5-4.2,4.6-6.9,6.3c-0.5,0.3-0.9,0.7-1.5,1.2
			c0.3,0.2,0.6,0.4,0.7,0.4c0.8-0.1,1.6-0.2,2.3-0.8c1.1-0.9,2.3-1.8,3.4-2.7c2.1-1.6,4.1-3.2,5.9-5.1c2.8-2.9,4.3-6.3,4.1-10.4
			c-0.1-4.1-1.7-7.5-4.3-10.5c-2.4-2.8-5.5-4.7-8.8-6.3c-7.2-3.4-14.6-3.7-22.2-1.1c-2.6,0.9-5.1,2.2-7.5,3.5
			c-4.5,2.5-9.3,4-14.4,4.5c-6.5,0.7-12.5-0.9-17.9-4.5c-2.6-1.8-5.5-3.1-8.5-4c-0.8-0.3-1.7-0.5-2.6-0.7c-1.8-0.3-3.3,0.6-4.1,2
			c-0.5,0.9-0.7,1.9-0.6,2.9c0.3,2.5,1.5,4.5,3.6,5.8c4.1,2.5,8.6,3.8,13.3,4.1c4.7,0.3,9.3-0.3,13.8-1.3c4-0.9,8-2.2,11.7-3.9
			C259.6,287.8,260.2,287.5,260.8,287.3z M275.9,297.2c2.3,6.3,1.3,12.5-0.2,18.9c-4-1.3-8-1.3-12-0.5c4,1.1,8,1.9,12,3
			c-0.2,0.4-0.4,0.7-0.5,1c-1.2,2.2-2.5,4.5-3.7,6.7c-1.3,2.3-2.6,4.5-4,6.8c-1.2,2-2.5,3.9-3.7,5.8c-1.8,2.9-1.9,6.1-1.2,9.3
			c0.4,1.7,1.6,2.8,3.4,3c1.4,0.2,2.6-0.4,3.5-1.4c1-1.1,2-2.3,2.9-3.5c0.7-0.9,1.4-1.8,1.9-2.7c2.4-4.5,4.1-9.3,5.4-14.1
			c0.5-2,0.8-4.1,1.2-6.2c0.1-0.6,0.2-1.3,0.3-1.9c0.2,0.1,0.2,0.1,0.3,0.1c4.4,2.6,8.3,5.9,11.6,9.8c2.8,3.3,4.9,7,6.6,11
			c0.9,2.1,1.6,4.4,2.3,6.6c1,3.3,1.8,6.6,2.8,10c0.7,2.3,2.1,4.2,3.8,5.9c2.7,2.7,6.9,1.5,8.1-1.9c0.3-1,0.5-2.1,0.5-3.1
			c0-1.6-0.1-3.2-0.4-4.8c-0.7-4.5-2.2-8.7-4.8-12.5c-2.2-3.3-4.6-6.3-7.3-9.1c-1.9-1.9-3.8-3.8-5.9-5.5c-4.8-3.9-10.1-7-15.9-9.4
			c-1.1-0.4-1.6-1.2-1.8-2.3c-0.8-4.7-1.6-9.5-2.4-14.2C278.2,300,277.5,298.4,275.9,297.2z M347.7,346.6c-0.6,0.2-1.2,0.4-1.8,0.5
			c-1.2,0.2-2.5,0.6-3.7,0.6c-6.6,0-12.8-4.2-15.2-10.3c-0.8-2-1.4-4.1-2-6.2c-0.8-2.6-1.1-5.3-1.2-8.1c-0.3-4.9,0.2-9.7,2-14.3
			c1.4-3.4,3.1-6.5,5.6-9.2c1.9-2.1,4.3-3.8,6.6-5.4c2.1-1.6,4.2-3.2,6.3-4.9c1.1-0.9,2.1-1.8,3-2.8c1.4-1.5,1.6-3.5,0.7-5.4
			c-1.2-2.2-3.6-3.4-6.2-2.9c-1.5,0.3-3.1,0.7-4.5,1.3c-5.1,1.8-9.2,5.1-12.7,9.1c-2.7,3-4.7,6.5-6.3,10.2
			c-3.1,7.1-4.2,14.5-3.3,22.3c0.6,5.1,1.8,10.1,4.1,14.7c1.6,3.2,3.7,6.1,6.5,8.5c2.9,2.4,6.1,4.1,9.7,5.1c2,0.6,4,1,6,0.8
			C344,349.9,346.1,348.7,347.7,346.6z M168,358.4c0-0.1,0-0.2-0.1-0.2c-2.7-2.7-5-5.7-7.2-8.8c-2.8-3.9-4.9-8.3-6.6-12.8
			c-2.6-7.1-3-14.4-2.1-21.9c0.6-4.5,1.5-8.9,3-13.2c1.5-4.5,3-9,4.5-13.5c0.5-1.5,0.7-3,0.5-4.6c-0.1-1.4-0.6-2.7-1.5-3.8
			c-1.7-2.1-4.6-2.5-6.6-0.8c-2,1.7-3.7,3.6-5,6c-2.9,5.3-4,11.1-4.1,17.1c-0.1,4.5,0.3,8.9,0.9,13.4c0.8,6.1,2.1,12.1,4.6,17.9
			c1.9,4.3,3.8,8.6,6.5,12.5c2.1,3.1,4.4,6.1,7,8.7c1.6,1.6,3.1,3.2,5.1,4.4C167.5,358.9,167.8,358.9,168,358.4z M109.6,277.7
			c-0.1,0-0.2,0.1-0.3,0.1c0.1,0.3,0.1,0.6,0.2,0.9c0.9,2.7,1.8,5.5,2.7,8.2c1.4,4.3,2.4,8.6,2.6,13.1c0.4,6.4-0.7,12.6-3.2,18.6
			c-1.5,3.7-3.6,7.1-5.5,10.6c-1.2,2.2-2.4,4.5-3.4,6.8c-1.1,2.5-1.7,5.2-1.5,8c0.2,2,0.8,3.7,2.2,5.2c0.8,0.9,1.9,1.3,3.1,1.3
			c1.5-0.1,2.7-0.6,3.9-1.6c2.6-2.1,4.4-4.9,5.6-8c2.2-5.7,3.5-11.6,4.2-17.7c0.6-5.6,0.7-11.3-0.1-16.9c-0.9-7.1-2.6-14-5.8-20.5
			c-0.8-1.7-1.6-3.3-2.5-4.9C111.3,279.6,110.4,278.7,109.6,277.7z M66.2,317.4c0,0.7,0,1.3,0,1.9c-0.4,5.3,0.6,10.4,2.1,15.4
			c0.2,0.7,0.6,1.2,1.2,1.6c1,0.7,2,0.8,3.2,0.9c1.9,0.2,3.4-1.2,3.8-2.7c0.4-1.5,0.7-2.9,0.4-4.5c-0.5-2.5-0.9-5-1.4-7.5
			c-0.2-1.1-0.4-2.2-0.6-3.4c0.2,0,0.3-0.1,0.4-0.1c1.7,0,3.4,0.1,5,0.1c2.9,0.1,5.7-0.1,8.5-1.1c1.8-0.6,3.2-1.7,4.2-3.2
			c1.2-1.8,0.9-3.8-0.6-5.3c-0.9-0.9-2-1.5-3.3-1.8c-2-0.5-4-0.1-5.9,0.5c-2.3,0.8-4.5,1.7-6.8,2.6c-1.1,0.4-2.2,0.8-3.3,1.3
			c-0.1-0.5-0.2-0.8-0.3-1.2c-0.7-3.7-1-7.4-1-11.2c0-3.6,0.1-7.1,0.1-10.7c0-0.2,0-0.4,0-0.7c-0.3,0-0.5,0-0.8,0
			c-1.6,8.4-3.1,16.6-4.7,24.9c-2.6-0.2-5.1-0.4-7.6-0.5c-0.1,0.3-0.2,0.5-0.3,0.8C61.2,315.1,63.7,316.3,66.2,317.4z M227,314.9
			c-0.2-0.7-0.6-0.5-1-0.4c-4.5,1.5-9,2.4-13.7,2.7c-4.3,0.3-8.5,0-12.7-0.7c-5.5-1-10.6-2.8-15.6-5.3c-2.3-1.2-4.7-2.3-7.2-3.1
			c-2.9-1-5.8-1.4-8.8-0.9c-3.3,0.6-5,3.7-3.6,6.8c0.9,1.8,2.2,3.3,4.1,4.1c5.8,2.5,11.8,4.4,18.2,4.8c4.8,0.3,9.5,0.3,14.3-0.4
			c3.8-0.6,7.5-1.3,11.2-2.1C217.3,319.2,222.4,317.8,227,314.9z M47.9,290c-0.3,0.1-0.6,0.1-0.8,0.3c-0.2,0.3-0.4,0.6-0.6,0.9
			c-1.3,3-2.7,5.9-4.5,8.6c-1.9,2.8-3.8,5.5-6.1,7.9c-2.1,2.2-4.3,4.3-6.6,6.2c-4.1,3.2-8.1,6.5-12.1,9.8c-1.7,1.4-3.4,2.8-4.9,4.3
			c-1.6,1.6-2.4,3.8-2.8,6.1c-0.3,2.4,2.2,4.7,4.6,4.4c2.3-0.4,4.5-1.3,6.3-2.8c1.1-1,2.3-2,3.3-3.1c2.2-2.3,4.4-4.6,6.5-7
			c2.5-2.9,4.7-6.1,6.8-9.3c3.2-5.1,5.9-10.4,8.1-16C46.1,296.9,47.5,293.7,47.9,290z M242.2,295.3c0.2,3.7,0.4,7.2,0.5,10.7
			c0.1,3.3-0.3,6.6-1.1,9.7c-1,3.7-2.7,7-4.5,10.3c-1.2,2.2-2.7,4.3-3.9,6.5c-1.1,2.1-2.1,4.2-3.1,6.4c-1.1,2.2-1.2,4.4-0.7,6.7
			c0.3,1.4,1,2.5,2.3,3.3c1,0.6,2.2,0.8,3.4,1c1.9,0.2,3.5-0.5,4.6-2.1c1.3-1.8,2.2-3.7,2.9-5.8c0.9-2.9,1.8-5.9,2.5-8.9
			c1-4,1.4-8,1.7-12.1c0.2-3.2,0-6.4-0.3-9.5c-0.5-4.8-1.5-9.6-2.9-14.3C243.2,296.5,242.8,295.9,242.2,295.3z M350.4,292.2
			c0.4,0.5,0.7,0.9,1,1.3c0.5,0.7,1.1,1.3,1.6,2c2.7,3.7,4.3,7.9,4.2,12.5c-0.1,5.2-1.3,10.2-4.1,14.6c-0.4,0.7-1,1.4-1.5,2
			c-2.1,2.2-3.9,4.8-5.2,7.5c-1.6,3.2,0.7,7.5,4.2,8.1c1.9,0.3,3.5-0.2,5-1.4c2.7-2.2,4.8-5,5.8-8.4c1.7-5.7,2.1-11.4,1.2-17.3
			c-0.9-5.8-2.9-11.2-5.9-16.3c-0.7-1.3-1.6-2.4-2.8-3.3C352.9,293,351.8,292.5,350.4,292.2z M5.2,339.5c1.7,1.7,3.3,3.4,5.4,4.6
			c5.4,3,11.1,4.9,17.2,5.4c5.1,0.4,10,0.1,14.9-1.3c2.2-0.7,4.4-1.5,6.3-3c1.5-1.3,2.4-2.8,2.8-4.7c0.3-1.6-0.5-3.4-2-4.3
			c-1.4-0.8-2.9-1.2-4.4-0.7c-1.2,0.4-2.3,0.8-3.4,1.3c-4.6,2-9.2,4.1-13.9,6.1c-4.1,1.7-8.3,2-12.6,0.9c-3-0.8-5.8-2.1-8.3-3.9
			c-0.5-0.3-1-0.6-1.6-1C5.4,339.2,5.3,339.3,5.2,339.5z M53.2,281.2c-1,0.6-1.9,1.1-2.8,1.6c-2.7,1.5-5.5,2.3-8.6,2.6
			c-4.6,0.3-9-0.5-13.2-2.1c-2.4-0.9-4.8-2.1-7.2-3.1c-1.8-0.7-3.5-1.5-5.3-2.2c-1.8-0.7-3.6-0.4-5.2,0.6c-0.9,0.5-1.7,1.3-1.9,2.4
			c-0.4,1.8-0.2,3.5,0.9,5c1.3,1.9,3.2,3.2,5.5,3.8c2.6,0.7,5.3,1.1,8.1,1.4c5.2,0.4,10.2-0.1,15.3-1.2c3.8-0.9,7.5-2.2,10.8-4.4
			c1.6-1,3-2.2,4.2-3.7C53.5,281.5,53.4,281.4,53.2,281.2z M99.8,281.9c-1.4-0.6-2.7-1.3-4.1-1.7c-6-1.6-12-2.4-18.2-2.6
			c-6-0.2-11.9,0.4-17.8,2c-1.5,0.4-2.8,1.1-3.8,2.4c-1.1,1.4-1,4,0.1,5.4c1.4,1.8,3.3,2.1,5.4,1.7c1.4-0.3,2.9-0.6,4.3-1.1
			c3.5-1.1,7-2.2,10.5-3.3c6.8-2.1,13.8-2.9,20.9-2.2c0.8,0.1,1.6,0.1,2.4,0.1C99.7,282.4,99.7,282.2,99.8,281.9z M145.6,335.1
			c0.2-0.3,0.5-0.5,0.5-0.7c0-0.3,0-0.6-0.1-0.9c-1.7-5.8-3.4-11.5-5.1-17.3c-0.4-1.4-0.9-2.9-1.4-4.3c-1.4-3.8-2.9-7.5-5.4-10.8
			c-1.4-1.8-3-3.3-5-4.4c-2.3-1.2-4.6-0.3-5.5,2.1c-1.1,3.1-0.8,5.9,1.3,8.5c2,2.6,4.4,4.9,6.8,7.1c3.1,2.7,5.7,5.8,7.7,9.4
			c0.8,1.5,1.7,3.1,2.5,4.6C143.2,330.6,144.3,332.7,145.6,335.1z M95.4,342.5c-0.4-0.1-0.6-0.2-0.8-0.1c-0.6,0.1-1.2,0.2-1.8,0.3
			c-4.6,1-9.1,1.1-13.7,0.4c-3.8-0.6-7.5-1.6-11.2-2.7c-2.2-0.7-4.5-1-6.8-1.1c-2.1-0.1-4.1,1.4-4.3,3.2c-0.2,1.6,0.7,3.9,2.5,4.9
			c1.1,0.6,2.3,1,3.6,1.1c2.4,0.2,4.8,0.5,7.2,0.7c3,0.3,6,0.3,9.1-0.1c3.5-0.5,6.8-1.5,10.1-2.7C91.4,345.7,93.4,344.4,95.4,342.5z
			"/>
		<path class="st1" d="M273.7,246.7c-0.5,0.3-0.8,0.3-1.1-0.2c-0.1-0.2-0.3-0.5-0.4-0.7c-1.8-3.7-3.6-7.5-5.6-11.1
			c-2-3.7-4.1-7.3-6.7-10.7c-2-2.6-4.1-5.2-6.4-7.6c-4-4.3-8.4-8.1-13.2-11.5c-4.1-2.9-8.3-5.6-12.8-8c-4.7-2.5-9.6-4.8-14.3-7.2
			c-4.2-2.1-8.2-4.5-11.4-8.2c-1.4-1.6-2.7-3.2-3.6-5.2c-1-2.2-1.3-4.5-0.9-6.8c0.8-4.2,4.2-6.4,8-6.3c1.5,0.1,3,0.5,4.4,0.9
			c3.2,1.1,6.2,2.5,9.2,4.1c4.9,2.8,9.6,5.9,13.8,9.6c2.3,2,4.5,4.1,6.8,6.2c2.3,2.1,4.2,4.5,6.2,6.9c2.6,3,4.7,6.3,6.9,9.6
			c2.4,3.6,4.3,7.5,6.4,11.3c2.5,4.8,4.6,9.7,6.8,14.6c2.2,5,4.3,9.9,6.6,14.9C273.2,243,273.3,244.9,273.7,246.7z"/>
		<path class="st2" d="M191.5,4.7c0.3,0.1,0.5,0.3,0.7,0.4c-0.5,1.1-0.9,2.2-1.4,3.2c-1.1,2.3-2.1,4.5-3.2,6.8
			c-2.4,4.8-4.3,9.7-5.6,14.9c-0.8,3.3-1.4,6.6-1.8,10c-0.7,6.5-0.9,13-0.7,19.5c0.1,3.5,0.5,7,1.2,10.5c1.3,6.4,2.7,12.9,4,19.3
			c1.1,5.3,1,10.5-0.9,15.6c-0.4,1-0.8,2.1-1.4,3.1c-1.9,3.6-6.6,5.2-10.3,4.1c-2.4-0.7-4-2.4-4.9-4.6c-1.5-3.5-2.7-7.1-3.3-10.9
			c-0.3-1.7-0.5-3.4-0.7-5.1c-0.4-3.9-0.5-7.7-0.4-11.6c0.1-4.4,0.5-8.9,1.2-13.2c0.7-4.2,1.6-8.4,2.8-12.5
			c1.6-5.1,3.4-10.2,5.5-15.1c2.5-5.5,5.2-10.9,8-16.2c2.1-3.9,4.2-7.8,6.4-11.7c1.1-2,2.2-4,3.7-5.7C190.9,5.3,191.2,5,191.5,4.7z"
			/>
		<path class="st3" d="M87.9,247c-0.4-0.9-0.4-0.9,0.2-1.2c1.5-0.8,3-1.5,4.5-2.2c4.7-2.3,9.4-4.7,13.9-7.5c2.8-1.7,5.5-3.5,7.9-5.7
			c2.2-1.9,4.4-3.9,6.6-6c2.5-2.3,4.5-4.9,6.7-7.5c2.4-2.9,4.4-6,6.5-9.1c2.3-3.4,4.1-6.9,6.1-10.5c2.4-4.5,4.8-8.9,7.2-13.4
			c0.7-1.3,1.5-2.6,2.3-3.9c1.3-2.1,3-3.9,5.1-5.3c1.1-0.7,2.1-1.5,3.2-2.1c3.2-1.9,6.6-2,9.9-0.5c2.6,1.1,3.9,3.3,4.2,6.1
			c0.2,1.7-0.1,3.3-0.7,4.8c-1.4,3.7-3.1,7.2-5.2,10.6c-1.5,2.4-2.9,4.8-4.6,7.1c-2.1,2.8-4.3,5.4-6.6,8c-1.9,2.1-4,4.1-6.1,6.1
			c-4.3,4-8.9,7.5-13.8,10.7c-5.8,3.7-11.9,6.9-18.2,9.7c-7.6,3.4-15.3,6.7-23,10C92.2,245.9,90,246.3,87.9,247z"/>
		<path class="st4" d="M51.2,122.6c0.1-0.2,0.2-0.4,0.4-0.6c1,0.4,2,0.9,3,1.3c2.4,1.1,4.8,2.3,7.2,3.4c5.5,2.4,11.1,4.6,17,6
			c4.2,1,8.5,1.6,12.8,1.9c3.5,0.3,7.1,0.4,10.7,0.3c4.1-0.1,8.3-0.4,12.4-1.1c4.4-0.7,8.8-1.5,13.2-2.3c4.5-0.8,8.9-1.6,13.4-2.3
			c4-0.6,7.9-0.1,11.7,1.3c1.1,0.4,2.3,0.9,3.3,1.5c3.7,2.3,4.6,6.5,3.8,9.7c-0.7,2.8-2.7,4.6-5.4,5.5c-4,1.3-8.1,2.4-12.3,3
			c-2.3,0.3-4.6,0.6-6.9,0.7c-2.9,0.1-5.8,0.2-8.7,0.2c-3.8-0.1-7.6-0.4-11.4-1c-9-1.3-17.6-3.8-26.1-7.2c-4.3-1.7-8.6-3.6-12.8-5.7
			c-4.4-2.3-8.8-4.7-13.2-7c-2.9-1.5-5.7-3.1-8.6-4.7C53.4,124.7,52.3,123.7,51.2,122.6z"/>
		<path class="st5" d="M306.6,99.2c-0.9,0.1-1.6,0.2-2.3,0.2c-3,0.2-5.9,0.4-8.9,0.7c-7.5,0.6-14.8,1.7-21.9,4.1
			c-4.6,1.5-9,3.4-13.2,5.6c-4.6,2.4-9,5.1-13.2,8.1c-2.2,1.6-4.4,3.3-6.6,5c-2.2,1.8-4.4,3.6-6.5,5.4c-2.2,1.8-4.5,3.7-6.7,5.5
			c-1.1,0.9-2.2,1.7-3.4,2.5c-4.3,3-9,4.4-14.2,4.2c-6-0.2-9.7-6.3-7.2-11.7c1.1-2.4,2.7-4.4,4.7-6.1c1.7-1.4,3.4-2.9,5.2-4.2
			c4.3-3.1,8.8-5.9,13.5-8.3c8.5-4.3,17.4-7.4,26.7-9.3c4.2-0.9,8.5-1.5,12.9-2c6.6-0.7,13.2-1,19.9-1c4.1,0,8.2,0,12.2,0.1
			c2.5,0,4.9,0.2,7.4,0.4c0.4,0,0.8,0.2,1.2,0.3C306.4,98.8,306.4,98.9,306.6,99.2z"/>
		<path class="st6" d="M260.8,287.3c-0.6,0.3-1.3,0.5-1.9,0.8c-3.8,1.7-7.7,3-11.7,3.9c-4.5,1-9.1,1.6-13.8,1.3
			c-4.8-0.3-9.3-1.6-13.3-4.1c-2.1-1.3-3.3-3.3-3.6-5.8c-0.1-1,0.1-2,0.6-2.9c0.8-1.5,2.4-2.3,4.1-2c0.9,0.1,1.7,0.4,2.6,0.7
			c3,0.9,5.8,2.3,8.5,4c5.4,3.6,11.3,5.2,17.9,4.5c5.1-0.6,9.9-2.1,14.4-4.5c2.4-1.3,4.9-2.6,7.5-3.5c7.5-2.5,14.9-2.3,22.2,1.1
			c3.3,1.6,6.3,3.5,8.8,6.3c2.6,3,4.2,6.5,4.3,10.5c0.1,4.1-1.4,7.5-4.1,10.4c-1.8,1.9-3.8,3.5-5.9,5.1c-1.1,0.9-2.3,1.8-3.4,2.7
			c-0.7,0.6-1.5,0.7-2.3,0.8c-0.2,0-0.4-0.2-0.7-0.4c0.6-0.5,1-0.9,1.5-1.2c2.7-1.7,5-3.8,6.9-6.3c1.6-2.2,2.8-4.7,2.9-7.4
			c0.2-3.9-1.5-6.9-4.9-9c-1.7-1.1-3.7-1.6-5.6-1.9c-3.2-0.5-6.3-0.3-9.3,0.7c-2.8,0.9-5.5,1.8-8.3,2.7c-1.5,0.5-3,0.9-4.6,1.2
			c-0.9,0.2-1.8,0.3-2.7,0.3c-3,0-5.1-1.9-5.5-4.8C260.9,289.4,260.9,288.4,260.8,287.3z"/>
		<path class="st6" d="M275.9,297.2c1.6,1.1,2.4,2.7,2.7,4.6c0.8,4.7,1.7,9.4,2.4,14.2c0.2,1.2,0.7,1.9,1.8,2.3
			c5.8,2.3,11.1,5.4,15.9,9.4c2.1,1.7,4,3.6,5.9,5.5c2.8,2.8,5.2,5.9,7.3,9.1c2.5,3.8,4.1,8,4.8,12.5c0.2,1.6,0.4,3.2,0.4,4.8
			c0,1-0.2,2.1-0.5,3.1c-1.2,3.5-5.4,4.6-8.1,1.9c-1.7-1.7-3.1-3.6-3.8-5.9c-1-3.3-1.8-6.7-2.8-10c-0.7-2.2-1.4-4.5-2.3-6.6
			c-1.7-3.9-3.8-7.7-6.6-11c-3.3-3.9-7.2-7.2-11.6-9.8c-0.1,0-0.1,0-0.3-0.1c-0.1,0.6-0.2,1.3-0.3,1.9c-0.4,2.1-0.7,4.2-1.2,6.2
			c-1.3,4.9-3,9.7-5.4,14.1c-0.5,1-1.2,1.9-1.9,2.7c-0.9,1.2-1.9,2.3-2.9,3.5c-0.9,1-2.1,1.6-3.5,1.4c-1.8-0.2-3-1.3-3.4-3
			c-0.8-3.2-0.6-6.4,1.2-9.3c1.2-2,2.5-3.9,3.7-5.8c1.4-2.2,2.7-4.5,4-6.8c1.3-2.2,2.5-4.5,3.7-6.7c0.2-0.3,0.3-0.6,0.5-1
			c-4-1-8-1.9-12-3c4-0.7,8-0.8,12,0.5C277.2,309.8,278.2,303.5,275.9,297.2z"/>
		<path class="st7" d="M347.7,346.6c-1.6,2.1-3.7,3.2-6.3,3.5c-2.1,0.2-4.1-0.2-6-0.8c-3.6-1.1-6.8-2.7-9.7-5.1
			c-2.8-2.3-4.9-5.2-6.5-8.5c-2.3-4.6-3.5-9.6-4.1-14.7c-0.9-7.7,0.2-15.2,3.3-22.3c1.6-3.7,3.6-7.2,6.3-10.2
			c3.5-4,7.6-7.3,12.7-9.1c1.5-0.5,3-0.9,4.5-1.3c2.6-0.5,5,0.6,6.2,2.9c1,1.9,0.8,3.9-0.7,5.4c-0.9,1-2,2-3,2.8
			c-2.1,1.7-4.2,3.3-6.3,4.9c-2.3,1.7-4.7,3.3-6.6,5.4c-2.5,2.7-4.3,5.8-5.6,9.2c-1.8,4.6-2.3,9.4-2,14.3c0.2,2.7,0.5,5.4,1.2,8.1
			c0.6,2.1,1.2,4.2,2,6.2c2.4,6.1,8.5,10.2,15.2,10.3c1.2,0,2.5-0.4,3.7-0.6C346.5,347,347.1,346.8,347.7,346.6z"/>
		<path class="st6" d="M168,358.4c-0.2,0.5-0.5,0.5-1,0.2c-1.9-1.2-3.5-2.8-5.1-4.4c-2.7-2.6-4.9-5.6-7-8.7
			c-2.7-3.9-4.6-8.1-6.5-12.5c-2.5-5.7-3.8-11.7-4.6-17.9c-0.6-4.4-1-8.9-0.9-13.4c0.1-6,1.2-11.8,4.1-17.1c1.3-2.3,2.9-4.3,5-6
			c2.1-1.7,5-1.3,6.6,0.8c0.9,1.1,1.3,2.4,1.5,3.8c0.2,1.6,0,3.1-0.5,4.6c-1.5,4.5-3,9-4.5,13.5c-1.5,4.3-2.4,8.7-3,13.2
			c-0.9,7.4-0.5,14.8,2.1,21.9c1.7,4.5,3.8,8.9,6.6,12.8c2.2,3.1,4.5,6.1,7.2,8.8C168,358.2,168,358.3,168,358.4z"/>
		<path class="st6" d="M109.6,277.7c0.8,1,1.7,2,2.3,3.1c0.8,1.6,1.7,3.3,2.5,4.9c3.2,6.5,4.9,13.4,5.8,20.5
			c0.7,5.6,0.7,11.3,0.1,16.9c-0.7,6.1-2,12-4.2,17.7c-1.2,3.1-3,5.9-5.6,8c-1.1,0.9-2.4,1.5-3.9,1.6c-1.2,0-2.3-0.4-3.1-1.3
			c-1.4-1.4-2-3.2-2.2-5.2c-0.2-2.8,0.4-5.4,1.5-8c1-2.3,2.2-4.6,3.4-6.8c1.9-3.5,3.9-6.9,5.5-10.6c2.5-6,3.6-12.1,3.2-18.6
			c-0.3-4.5-1.2-8.8-2.6-13.1c-0.9-2.8-1.8-5.5-2.7-8.2c-0.1-0.3-0.1-0.6-0.2-0.9C109.4,277.7,109.5,277.7,109.6,277.7z"/>
		<path class="st6" d="M66.2,317.4c-2.5-1.1-5.1-2.3-7.7-3.5c0.1-0.3,0.2-0.6,0.3-0.8c2.6,0.2,5.1,0.4,7.6,0.5
			c1.6-8.3,3.1-16.6,4.7-24.9c0.2,0,0.5,0,0.8,0c0,0.3,0,0.5,0,0.7c0,3.6-0.1,7.1-0.1,10.7c0,3.8,0.3,7.5,1,11.2
			c0.1,0.4,0.2,0.8,0.3,1.2c1.1-0.4,2.2-0.8,3.3-1.3c2.3-0.9,4.5-1.8,6.8-2.6c1.9-0.7,3.9-1,5.9-0.5c1.2,0.3,2.3,0.9,3.3,1.8
			c1.5,1.5,1.8,3.5,0.6,5.3c-1,1.6-2.4,2.6-4.2,3.2c-2.7,0.9-5.6,1.1-8.5,1.1c-1.7-0.1-3.4-0.1-5-0.1c-0.1,0-0.3,0-0.4,0.1
			c0.2,1.2,0.4,2.3,0.6,3.4c0.4,2.5,0.9,5,1.4,7.5c0.3,1.5,0.1,3-0.4,4.5c-0.4,1.5-1.9,2.8-3.8,2.7c-1.1-0.1-2.2-0.3-3.2-0.9
			c-0.6-0.4-1-0.9-1.2-1.6c-1.5-5-2.5-10.1-2.1-15.4C66.3,318.7,66.2,318.1,66.2,317.4z"/>
		<path class="st8" d="M227,314.9c-4.6,3-9.7,4.3-14.8,5.4c-3.7,0.8-7.5,1.5-11.2,2.1c-4.7,0.7-9.5,0.7-14.3,0.4
			c-6.4-0.4-12.4-2.3-18.2-4.8c-1.9-0.8-3.2-2.3-4.1-4.1c-1.5-3,0.3-6.2,3.6-6.8c3-0.5,6-0.1,8.8,0.9c2.5,0.9,4.9,1.9,7.2,3.1
			c4.9,2.5,10.1,4.3,15.6,5.3c4.2,0.8,8.4,1,12.7,0.7c4.7-0.3,9.2-1.2,13.7-2.7C226.3,314.4,226.8,314.1,227,314.9z"/>
		<path class="st6" d="M47.9,290c-0.4,3.7-1.8,6.9-3,10.1c-2.2,5.6-4.8,10.9-8.1,16c-2.1,3.2-4.3,6.4-6.8,9.3
			c-2.1,2.4-4.3,4.7-6.5,7c-1,1.1-2.2,2.1-3.3,3.1c-1.8,1.6-4,2.5-6.3,2.8c-2.4,0.4-4.9-1.9-4.6-4.4c0.3-2.3,1.1-4.4,2.8-6.1
			c1.5-1.5,3.2-2.9,4.9-4.3c4-3.3,8.1-6.6,12.1-9.8c2.4-1.9,4.5-4,6.6-6.2c2.3-2.4,4.3-5.2,6.1-7.9c1.8-2.7,3.2-5.6,4.5-8.6
			c0.1-0.3,0.3-0.6,0.6-0.9C47.3,290.1,47.5,290.1,47.9,290z"/>
		<path class="st6" d="M242.2,295.3c0.6,0.6,1,1.2,1.2,1.9c1.4,4.7,2.3,9.4,2.9,14.3c0.4,3.2,0.5,6.4,0.3,9.5
			c-0.2,4.1-0.7,8.1-1.7,12.1c-0.7,3-1.6,6-2.5,8.9c-0.6,2.1-1.6,4-2.9,5.8c-1.1,1.6-2.7,2.3-4.6,2.1c-1.2-0.1-2.3-0.4-3.4-1
			c-1.3-0.7-2-1.8-2.3-3.3c-0.4-2.3-0.3-4.6,0.7-6.7c1-2.1,2-4.3,3.1-6.4c1.2-2.2,2.7-4.3,3.9-6.5c1.8-3.3,3.5-6.7,4.5-10.3
			c0.9-3.2,1.3-6.4,1.1-9.7C242.5,302.5,242.4,299,242.2,295.3z"/>
		<path class="st6" d="M350.4,292.2c1.4,0.2,2.5,0.8,3.4,1.5c1.2,0.9,2.1,2,2.8,3.3c3,5,5,10.5,5.9,16.3c0.9,5.8,0.5,11.6-1.2,17.3
			c-1,3.4-3.1,6.2-5.8,8.4c-1.4,1.2-3.1,1.7-5,1.4c-3.5-0.6-5.8-4.9-4.2-8.1c1.4-2.7,3.1-5.3,5.2-7.5c0.6-0.6,1.1-1.3,1.5-2
			c2.8-4.5,4-9.4,4.1-14.6c0.1-4.6-1.5-8.8-4.2-12.5c-0.5-0.7-1.1-1.3-1.6-2C351.1,293.2,350.8,292.7,350.4,292.2z"/>
		<path class="st9" d="M5.2,339.5c0.2-0.2,0.3-0.4,0.5-0.6c0.5,0.3,1.1,0.6,1.6,1c2.6,1.8,5.3,3.1,8.3,3.9c4.3,1.1,8.5,0.8,12.6-0.9
			c4.7-2,9.2-4.1,13.9-6.1c1.1-0.5,2.2-0.9,3.4-1.3c1.6-0.5,3.1-0.1,4.4,0.7c1.5,0.8,2.3,2.6,2,4.3c-0.4,1.9-1.2,3.5-2.8,4.7
			c-1.8,1.5-4,2.4-6.3,3c-4.9,1.4-9.9,1.7-14.9,1.3c-6.2-0.5-11.9-2.4-17.2-5.4C8.5,343,6.9,341.3,5.2,339.5z"/>
		<path class="st9" d="M53.2,281.2c0.2,0.2,0.3,0.4,0.4,0.5c-1.2,1.5-2.6,2.7-4.2,3.7c-3.3,2.2-7,3.5-10.8,4.4
			c-5,1.2-10.1,1.6-15.3,1.2c-2.7-0.2-5.4-0.7-8.1-1.4c-2.3-0.6-4.1-1.8-5.5-3.8c-1-1.5-1.3-3.2-0.9-5c0.3-1.1,1-1.8,1.9-2.4
			c1.6-0.9,3.4-1.2,5.2-0.6c1.8,0.7,3.5,1.4,5.3,2.2c2.4,1,4.8,2.2,7.2,3.1c4.2,1.6,8.6,2.5,13.2,2.1c3.1-0.2,5.9-1,8.6-2.6
			C51.3,282.3,52.3,281.7,53.2,281.2z"/>
		<path class="st9" d="M99.8,281.9c-0.1,0.3-0.2,0.5-0.2,0.7c-0.8,0-1.6-0.1-2.4-0.1c-7.1-0.7-14.1,0.1-20.9,2.2
			c-3.5,1.1-7,2.2-10.5,3.3c-1.4,0.4-2.9,0.8-4.3,1.1c-2.1,0.4-4,0.1-5.4-1.7c-1.1-1.4-1.1-4-0.1-5.4c1-1.2,2.3-1.9,3.8-2.4
			c5.8-1.6,11.7-2.2,17.8-2c6.2,0.2,12.3,1,18.2,2.6C97.1,280.6,98.4,281.4,99.8,281.9z"/>
		<path class="st10" d="M145.6,335.1c-1.3-2.4-2.5-4.5-3.6-6.6c-0.8-1.5-1.7-3.1-2.5-4.6c-2-3.6-4.7-6.7-7.7-9.4
			c-2.5-2.2-4.8-4.5-6.8-7.1c-2.1-2.6-2.4-5.5-1.3-8.5c0.9-2.5,3.2-3.3,5.5-2.1c2,1.1,3.6,2.6,5,4.4c2.5,3.2,4,7,5.4,10.8
			c0.5,1.4,1,2.9,1.4,4.3c1.7,5.8,3.4,11.5,5.1,17.3c0.1,0.3,0.2,0.6,0.1,0.9C146.1,334.6,145.9,334.8,145.6,335.1z"/>
		<path class="st11" d="M95.4,342.5c-2,1.9-4,3.1-6.2,4c-3.3,1.2-6.6,2.2-10.1,2.7c-3,0.4-6,0.4-9.1,0.1c-2.4-0.2-4.8-0.5-7.2-0.7
			c-1.3-0.1-2.5-0.5-3.6-1.1c-1.9-1-2.8-3.3-2.5-4.9c0.3-1.9,2.2-3.3,4.3-3.2c2.3,0.1,4.6,0.4,6.8,1.1c3.7,1.1,7.4,2.1,11.2,2.7
			c4.6,0.7,9.2,0.6,13.7-0.4c0.6-0.1,1.2-0.2,1.8-0.3C94.8,342.4,95,342.5,95.4,342.5z"/>
	</g>
</g>
</svg>
